<svg width="153" height="52" viewBox="0 0 153 52" fill="none" xmlns="http://www.w3.org/2000/svg">
<g clip-path="url(#clip0_4498_121343)">
<path d="M37.6071 15.8017C36.2395 14.8055 34.6509 14.1537 32.9763 13.9024C34.4299 9.53354 32.8902 4.72248 29.1665 2.01553C24.452 -1.41297 17.8512 -0.367893 14.4252 4.35007L2.01674 21.4437C-1.40925 26.1616 -0.364941 32.7672 4.34958 36.1957C5.71951 37.1919 7.30807 37.8436 8.98269 38.095C7.52903 42.4638 9.07108 47.2726 12.7925 49.9819C17.5093 53.4104 24.1078 52.3653 27.5338 47.645L39.9399 30.5561C43.3659 25.8381 42.3193 19.2325 37.6047 15.804L37.6071 15.8017ZM19.0932 33.8589C16.7767 37.0499 12.8785 38.6816 8.98269 38.095C9.3246 37.0686 9.82233 36.1026 10.4573 35.2275L22.8634 18.1385C25.18 14.9474 29.0781 13.3158 32.974 13.9024C32.632 14.9288 32.1343 15.8948 31.4994 16.7676L19.0932 33.8565V33.8589Z" fill="#F7ED75"/>
<path d="M67.073 33.9871C62.7073 33.9871 59.5744 30.6331 59.5744 25.9989C59.5744 21.3647 62.5724 17.9665 67.0264 17.9665C70.378 17.9665 73.0667 20.0846 73.6854 23.3059L77.8743 22.2911C76.595 16.9074 72.141 13.9072 66.8939 13.9072C60.014 13.9072 55.0762 19.2001 55.0762 25.9966C55.0762 32.793 59.8837 38.0882 66.9381 38.0906C72.1852 38.0906 76.6834 35.0903 77.9626 29.7067L73.7296 28.7361C73.1132 31.9574 70.4222 33.9871 67.0706 33.9871H67.073Z" fill="#121212"/>
<path d="M91.5019 13.9072C85.3291 13.9072 80.168 18.7602 80.168 26.0408C80.168 33.3214 84.7104 38.0882 91.7228 38.0906C96.749 38.0906 100.763 35.3999 102.173 30.8519L98.0725 29.837C97.2793 32.7069 94.5883 34.2943 91.7228 34.2943C87.4456 34.2943 84.7104 31.6456 84.6662 27.1464H102.615V25.7778C102.615 18.8929 98.5144 13.9072 91.5019 13.9072ZM84.7104 23.8343C85.0313 20.3383 87.9945 17.6825 91.5019 17.7454C94.986 17.7454 97.9399 19.9077 98.1608 23.8343H84.7104Z" fill="#121212"/>
<path d="M109.978 20.6573C109.978 18.9814 111.567 17.7897 114.079 17.7897C116.59 17.7897 118.53 19.0699 118.93 21.4068L122.768 20.3035C122.063 16.1558 118.402 13.905 114.213 13.905C109.187 13.905 105.792 16.6841 105.792 20.6131C105.792 29.8372 118.891 25.4241 118.891 30.9847C118.891 32.9258 117.302 34.206 114.348 34.206C111.395 34.206 109.499 32.8374 109.101 30.1025L105.045 31.0289C105.619 35.4885 109.104 38.0907 114.174 38.0907C119.686 38.0907 123.303 35.0905 123.303 30.6332C123.303 21.2345 109.983 25.6895 109.983 20.6596L109.978 20.6573Z" fill="#121212"/>
<path d="M131.102 20.6573C131.102 18.9814 132.69 17.7897 135.202 17.7897C137.714 17.7897 139.654 19.0699 140.054 21.4068L143.889 20.3035C143.182 16.1558 139.524 13.905 135.335 13.905C130.306 13.905 126.911 16.6841 126.911 20.6131C126.911 29.8372 140.01 25.4241 140.01 30.9847C140.01 32.9258 138.421 34.206 135.468 34.206C132.514 34.206 130.618 32.8374 130.22 30.1025L126.164 31.0289C126.736 35.4885 130.22 38.0907 135.295 38.0907C140.808 38.0907 144.424 35.0905 144.424 30.6332C144.424 21.2345 131.104 25.6895 131.104 20.6596L131.102 20.6573Z" fill="#121212"/>
<path d="M152.121 14.3705C149.712 14.3705 147.758 16.328 147.758 18.7393V37.6298C150.17 37.6298 152.123 35.6746 152.123 33.261V18.1644V14.3682L152.121 14.3705Z" fill="#121212"/>
<path d="M149.941 11.7775C151.272 11.7775 152.35 10.6979 152.35 9.36619C152.35 8.03443 151.272 6.95483 149.941 6.95483C148.61 6.95483 147.531 8.03443 147.531 9.36619C147.531 10.6979 148.61 11.7775 149.941 11.7775Z" fill="#121212"/>
</g>
<defs>
<clipPath id="clip0_4498_121343">
<rect width="152.351" height="52" fill="white"/>
</clipPath>
</defs>
</svg>
