<svg width="168" height="52" viewBox="0 0 168 52" fill="none" xmlns="http://www.w3.org/2000/svg">
<g clip-path="url(#clip0_4498_121346)">
<path d="M167.616 17.0751C167.408 17.1331 167.259 17.2827 167.132 17.4417C166.705 17.9823 166.131 18.1581 165.474 18.1581C163.776 18.1581 162.078 18.1768 160.379 18.1581C160.001 18.1543 159.906 18.2722 159.906 18.6369C159.909 21.8485 159.902 25.0581 159.881 28.2697C159.879 28.6475 160.012 28.9131 160.275 29.1693C161.073 29.9493 161.854 30.7424 162.633 31.5392C162.831 31.7412 163.015 31.96 163.174 32.192C163.645 32.8878 163.644 33.7706 163.187 34.4365C162.685 35.1678 161.779 35.57 160.974 35.3418C160.454 35.194 160.044 34.8237 159.665 34.4365C158.537 33.2899 157.374 32.1789 156.278 30.9986C155.797 30.4805 155.688 29.8838 155.69 29.2273C155.694 26.4497 155.698 23.6721 155.701 20.8945C155.701 20.253 155.701 19.6095 155.696 18.968C155.687 18.16 155.685 18.1656 154.892 18.1581C154.348 18.1525 153.794 18.246 153.287 17.9224C152.605 17.4866 152.064 16.9666 152.057 16.0875C152.047 15.0214 153.151 14.0805 153.975 13.972C154.337 13.9234 154.71 13.929 155.075 13.9421C155.616 13.9627 155.659 13.9421 155.659 13.3885C155.659 11.8959 155.666 10.4014 155.646 8.90877C155.638 8.34764 155.696 7.79773 155.931 7.30394C156.074 7.00093 156.376 6.77274 156.675 6.58756C158.205 5.63925 159.909 7.06078 159.904 8.51598C159.896 10.1582 159.92 11.8023 159.894 13.4446C159.887 13.9178 160.057 14.0207 160.487 14.0132C161.992 13.987 163.496 14.0188 165.001 13.9833C165.911 13.9608 166.712 14.1179 167.303 14.8848C167.376 14.9783 167.449 15.1224 167.616 15.1018V17.0751Z" fill="#E8435D"/>
<path d="M44.9452 8.19263C46.3751 9.90408 47.7585 11.5613 49.1418 13.2185C50.7339 15.1245 52.3205 17.036 53.9182 18.9383C55.4209 20.7283 56.9478 22.4977 58.4355 24.3008C58.745 24.6768 59.1272 24.991 59.3621 25.4343C59.6921 26.0534 59.6809 26.2031 59.1235 26.8633C57.6786 28.5673 56.1927 30.2357 54.7236 31.9191C53.7784 33.0021 52.794 34.057 51.8991 35.1811C51.131 36.1444 50.2343 36.9861 49.4587 37.9419C48.2711 39.4065 47.0164 40.8168 45.7785 42.2402C45.5343 42.5207 45.277 42.7863 45.0514 43.0837C44.7904 43.4298 44.4716 43.2352 44.2162 43.095C43.0715 42.4684 41.9193 41.8511 40.8138 41.1591C39.5889 40.3903 38.4759 39.4682 37.4543 38.4357C37.2399 38.2187 37.3051 38.0691 37.4804 37.8764C38.6642 36.5728 39.8798 35.2952 41.0655 33.9934C41.7236 33.2714 42.4749 32.6317 43.0286 31.8162C43.1125 31.6947 43.2598 31.588 43.1796 31.4272C43.0957 31.2588 42.9112 31.3393 42.7751 31.3393C39.5274 31.3299 36.2779 31.3299 33.0302 31.3262C32.5231 31.3262 32.016 31.2944 31.5108 31.3262C31.0689 31.3561 30.7538 31.1709 30.5245 30.8361C29.8534 29.8541 29.089 28.9395 28.498 27.9014C27.9368 26.9138 28.1027 26.1395 29.0424 25.5203C30.2803 24.703 31.5201 23.8875 32.7599 23.0701C32.8102 23.0364 32.8699 23.0102 32.9034 22.9653C33.4403 22.2602 34.1898 22.262 34.9821 22.2695C37.857 22.2957 40.7336 22.2826 43.6103 22.2808C43.7669 22.2808 43.9738 22.3518 44.0596 22.176C44.1416 22.0133 43.9999 21.8562 43.8993 21.7383C43.4369 21.194 43.0678 20.5824 42.611 20.0325C41.7105 18.9458 40.8623 17.816 39.9786 16.7125C39.8052 16.4955 39.8332 16.3272 39.9711 16.1139C40.4241 15.4125 40.9853 14.7915 41.4607 14.1051C42.1561 13.0988 42.8366 12.0887 43.3996 10.9983C43.8862 10.0593 44.4157 9.14281 44.9396 8.1945L44.9452 8.19263Z" fill="#E8435D"/>
<path d="M20.9143 42.2102C20.2487 42.7396 19.8069 43.3699 19.3967 44.0133C18.8896 44.8083 18.3545 45.5976 17.9518 46.4486C17.3646 47.6925 16.686 48.9008 16.2889 50.2269C16.1919 50.5505 16.095 50.5748 15.7631 50.485C13.9417 49.9912 12.37 49.0579 10.9699 47.8253C10.3416 47.2716 9.72266 46.6974 9.26776 45.9754C9.14658 45.7828 9.10929 45.6088 9.18759 45.39C9.67978 44.0208 10.405 42.7676 11.1302 41.5182C12.0251 39.9807 13.1195 38.5778 14.2679 37.2367C15.7687 35.4823 17.4503 33.8905 19.2532 32.4428C20.8565 31.1559 22.5605 30.0112 24.2906 28.9021C24.7548 28.6047 25.2526 28.4962 25.7765 28.5486C26.1195 28.5822 26.3526 28.846 26.511 29.1415C27.404 30.8137 28.4667 32.3736 29.5965 33.8887C30.6536 35.3027 31.8318 36.6083 33.0623 37.8764C34.0616 38.9052 35.1187 39.8628 36.2242 40.7606C37.4584 41.7632 38.7579 42.6834 40.1319 43.4933C41.064 44.0433 42.0465 44.494 42.975 45.0458C43.2845 45.231 42.9731 45.3806 42.8948 45.433C42.164 45.9174 41.5991 46.5908 40.9168 47.1351C39.5073 48.2573 37.8947 48.9569 36.2373 49.5835C36.09 49.6396 35.9408 49.6583 35.8066 49.591C34.2611 48.8185 32.792 47.9319 31.4497 46.8302C30.661 46.183 29.9265 45.4797 29.164 44.8045C28.8489 44.5258 28.7128 44.1106 28.4201 43.8169C28.3549 43.7515 28.312 43.6149 28.1815 43.6823C28.0677 43.7421 28.0827 43.8693 28.1106 43.9628C28.1833 44.2172 28.2766 44.4678 28.3642 44.7185C28.6737 45.6088 28.737 46.5609 29.013 47.4549C29.2926 48.364 29.3691 49.3235 29.7568 50.2082C29.8948 50.5243 29.8519 50.9283 30.0346 51.2631C30.1316 51.4427 30.0048 51.4801 29.8482 51.51C27.7023 51.9084 25.5434 52.1048 23.3603 51.9496C23.0378 51.9271 22.719 51.8729 22.3946 51.8561C22.0403 51.8374 22.0739 51.467 22.0329 51.2426C21.8576 50.2625 21.6768 49.2805 21.591 48.291C21.4717 46.9125 21.1473 45.5583 21.1212 44.1667C21.11 43.5495 20.9926 42.9341 20.9124 42.214L20.9143 42.2102Z" fill="#176BA3"/>
<path d="M6.68031 42.9881C4.78615 41.0204 3.21451 38.8769 2.33268 36.2845C2.23946 36.0133 2.24692 35.7626 2.342 35.5008C2.6925 34.5225 3.26298 33.664 3.82601 32.8036C4.67615 31.5018 5.66984 30.314 6.76794 29.2161C7.09979 28.885 7.47825 28.6007 7.82688 28.2865C7.93874 28.1855 8.16806 28.0938 8.04687 27.9161C7.98535 27.8264 7.75977 27.9161 7.61062 27.9573C6.80709 28.1761 6.00729 28.4062 5.19817 28.6026C3.66941 28.9748 2.13133 29.3115 0.632402 29.7978C0.432918 29.8633 0.330379 29.8838 0.276314 29.6014C-0.167399 27.2278 0.0749651 24.8337 0.0171706 22.447C0.0078489 22.0336 0.160725 21.912 0.54105 21.8634C2.06608 21.6651 3.59484 21.4893 5.11427 21.2593C6.10423 21.1096 7.11657 21.1489 8.09162 20.8683C8.47194 20.7599 8.89142 20.8927 9.2792 20.7468C9.36869 20.7131 9.52156 20.7973 9.55885 20.685C9.60173 20.5541 9.50106 20.4325 9.40038 20.3446C9.0387 20.0341 8.70498 19.6787 8.30229 19.4337C7.01962 18.6519 5.74628 17.8476 4.38159 17.2135C3.43637 16.774 2.52284 16.2297 1.46017 16.0819C1.2234 16.0482 1.27373 15.8518 1.32034 15.691C1.61864 14.6753 1.96167 13.684 2.50979 12.7656C3.34501 11.3684 4.45429 10.2256 5.64747 9.14257C5.94763 8.87136 6.21796 8.84891 6.57591 8.99855C8.39178 9.76169 10.0958 10.71 11.7066 11.8547C13.2036 12.919 14.6541 14.03 15.9722 15.3094C17.1131 16.4186 18.2094 17.5689 19.2217 18.8052C20.1949 19.993 21.0693 21.2518 21.9269 22.5218C22.4452 23.2906 22.9877 24.0462 23.3139 24.9309C23.4687 25.3499 23.2319 25.9129 22.7714 26.1785C20.7057 27.3681 18.7165 28.6624 16.8689 30.1812C15.1519 31.5915 13.5485 33.116 12.0813 34.7825C11.0298 35.9759 10.0492 37.2253 9.17293 38.5608C8.47754 39.6213 7.84366 40.7155 7.23216 41.8228C7.02708 42.1932 6.86861 42.5897 6.68404 42.9862L6.68031 42.9881Z" fill="#176BA3"/>
<path d="M30.1147 1.24016C30.1855 1.97337 30.3086 2.6991 30.3813 3.43231C30.4633 4.25343 30.5715 5.07455 30.6964 5.89006C30.8175 6.67564 30.7821 7.47619 30.9555 8.25803C31.0021 8.46565 30.9611 8.69197 30.9592 8.90895C30.9592 9.04362 30.9462 9.19886 31.0916 9.26246C31.2557 9.3354 31.3862 9.21383 31.4775 9.10721C31.7404 8.8042 32.007 8.49932 32.2326 8.16825C33.1386 6.83837 33.9478 5.4449 34.591 3.97099C34.9806 3.07693 35.4989 2.22775 35.6965 1.25512C35.7562 0.957721 35.9258 0.997 36.1234 1.05498C37.1936 1.36174 38.2283 1.74143 39.1847 2.3381C40.555 3.19289 41.6549 4.34134 42.7642 5.48605C42.9674 5.69554 42.9861 5.91625 42.8742 6.18185C41.8768 8.54421 40.5699 10.7139 39.015 12.7508C37.8442 14.2846 36.528 15.6724 35.1577 17.0173C33.45 18.6932 31.5279 20.1072 29.5927 21.4989C28.942 21.9665 28.2392 22.3723 27.5251 22.7389C26.5016 23.2627 25.9908 23.2215 25.3923 22.1535C24.0705 19.793 22.5212 17.5784 20.7352 15.5509C19.4358 14.0751 18.0207 12.7097 16.5404 11.4078C15.4424 10.4427 14.2715 9.57669 13.0746 8.75744C12.0548 8.05977 10.9586 7.46123 9.83629 6.92628C9.60884 6.8178 9.39444 6.67377 9.15953 6.58773C8.87056 6.48112 8.79412 6.3876 9.07004 6.16127C10.2781 5.17743 11.3762 4.04207 12.7726 3.31073C13.7346 2.80571 14.7339 2.3699 15.7518 1.98459C15.9308 1.91725 16.0427 1.96589 16.2011 2.02948C17.6553 2.60932 18.9137 3.51087 20.161 4.42738C21.356 5.30274 22.4504 6.29782 23.4143 7.42943C23.4515 7.47245 23.4609 7.53979 23.4963 7.58468C23.6175 7.73618 23.6678 8.06912 23.9102 7.95689C24.1078 7.86524 23.9158 7.60338 23.8673 7.43691C23.4795 6.12012 23.1365 4.79212 22.855 3.44727C22.7282 2.83938 22.6517 2.21091 22.4355 1.63669C22.3068 1.29627 22.2714 0.935276 22.1167 0.611691C21.9787 0.321773 21.9806 0.194583 22.3684 0.108543C22.9351 -0.0167759 23.4963 0.0281145 24.0593 0.0225032C25.877 0.00566929 27.6966 0.0168919 29.5144 -0.00181245C29.8313 -0.00555332 29.9767 0.0636528 29.9842 0.405943C29.9898 0.684638 30.0681 0.961462 30.1147 1.23829V1.24016Z" fill="#176BA3"/>
<path d="M70.6388 40.4799C69.537 40.4799 68.4333 40.478 67.3315 40.4799C66.0022 40.4836 65.4392 40.1133 64.8519 38.7946C64.6916 38.4355 64.7624 38.0857 64.9283 37.7004C65.3944 36.6081 66.239 36.3294 67.3315 36.3069C68.4687 36.2826 68.4035 36.5071 68.4035 35.2108C68.4035 29.9531 68.4053 24.6934 68.4072 19.4356C68.4072 18.4069 68.4072 18.39 67.3706 18.3938C66.7927 18.3938 66.2408 18.3433 65.7449 18.0141C65.7319 18.0066 65.7151 18.0028 65.7058 17.9916C65.2136 17.481 64.6841 16.9479 64.7866 16.181C64.865 15.5956 65.1707 15.07 65.6592 14.6716C66.0749 14.333 66.5279 14.1909 67.0593 14.1946C68.7875 14.2059 70.5158 14.204 72.244 14.1909C72.5553 14.189 72.684 14.2807 72.6374 14.5968C72.6225 14.6996 72.6392 14.8063 72.6374 14.9091C72.6318 15.272 72.7791 15.358 73.1109 15.2065C73.7597 14.911 74.3675 14.5257 75.0647 14.3349C76.4667 13.9515 77.8631 13.8262 79.3229 14.0843C80.6745 14.3256 81.9236 14.752 83.0422 15.5301C84.3007 16.4036 85.3261 17.4735 86.0699 18.8576C86.8399 20.2904 87.2389 21.8054 87.1923 23.386C87.1009 26.5825 85.7679 29.1712 83.1 31.0192C81.9796 31.7954 80.764 32.3435 79.431 32.5623C78.1521 32.7718 76.8601 32.725 75.5849 32.4538C74.7198 32.2705 73.9648 31.816 73.1762 31.4438C72.7753 31.2549 72.7213 31.2661 72.7175 31.7225C72.7045 33.0823 72.7138 34.4402 72.6952 35.8C72.6877 36.3556 73.1091 36.2901 73.4334 36.3443C73.8548 36.4135 74.2799 36.3518 74.7124 36.4173C76.2113 36.6436 76.6271 38.6525 75.831 39.6026C75.363 40.16 74.8075 40.5061 74.0319 40.4817C72.9002 40.4443 71.7667 40.4724 70.6351 40.4724C70.6351 40.4761 70.6351 40.478 70.6351 40.4817L70.6388 40.4799ZM72.7119 23.3411C72.5386 25.9971 75.1561 28.7822 78.2397 28.4492C81.1742 28.1312 83.0217 26.0625 82.9733 23.2363C82.9229 20.3371 80.956 18.1899 77.7494 18.1693C74.9697 18.1506 72.6728 20.4082 72.7119 23.3429V23.3411Z" fill="#176BA3"/>
<path d="M88.6086 23.2309C88.5862 17.816 93.2936 13.5626 98.6089 13.9498C103.682 14.3201 107.457 18.3434 107.366 23.3712C107.269 28.7412 103.156 32.6841 97.8463 32.6859C92.6206 32.6878 88.4762 28.0547 88.6086 23.2309ZM97.9433 28.4569C100.876 28.4139 103.167 26.2928 103.121 23.1916C103.081 20.5674 101.249 18.1339 97.796 18.1732C94.8056 18.2069 92.8126 20.5131 92.8164 23.2552C92.8201 26.1338 94.8578 28.3839 97.9433 28.455V28.4569Z" fill="#176BA3"/>
<path d="M117.496 23.3562C117.436 18.3697 121.584 14.5689 125.611 14.2023C128.434 13.9442 131.01 14.5315 133.121 16.5067C135.136 18.3958 136.234 20.7339 136.212 23.5489C136.173 28.6795 131.959 32.8805 126.715 32.8506C121.668 32.8225 117.347 28.4868 117.494 23.3562H117.496ZM127.006 28.5972C129.7 28.6084 132.163 26.1638 132.01 23.2571C131.866 20.5338 129.793 18.0218 126.148 18.3603C123.747 18.5829 121.657 20.5936 121.713 23.7023C121.761 26.4275 124.153 28.7599 127.008 28.5972H127.006Z" fill="#176BA3"/>
<path d="M114.523 17.988C114.523 21.2743 114.549 24.5626 114.502 27.847C114.493 28.5485 114.771 28.9974 115.22 29.435C116.042 30.2318 116.881 31.0118 117.668 31.8442C118.248 32.4577 118.36 33.2713 118.089 34.0213C117.795 34.8369 117.127 35.3681 116.227 35.4485C115.585 35.5065 115.045 35.1885 114.605 34.7527C113.346 33.5051 112.101 32.2407 110.867 30.9707C110.459 30.5498 110.274 30.013 110.272 29.4276C110.267 23.3767 110.265 17.3258 110.265 11.275C110.265 10.3341 110.268 10.3248 109.349 10.3435C109.008 10.351 108.671 10.2743 108.328 10.3435C108.052 10.3977 107.912 10.1415 107.725 10.0162C107.047 9.56353 106.715 8.90513 106.717 8.09149C106.721 7.08894 107.526 6.18739 108.525 6.16494C110.432 6.12005 112.34 6.14063 114.247 6.12379C114.54 6.12192 114.491 6.30149 114.499 6.47731C114.594 8.61147 114.558 10.7456 114.566 12.8798C114.571 14.5838 114.566 16.2859 114.566 17.9898H114.523V17.988Z" fill="#176BA3"/>
<path d="M150.661 21.2912C150.661 23.517 150.656 25.7428 150.665 27.9686C150.667 28.627 150.685 28.627 151.351 28.6233C151.679 28.6233 152.007 28.6027 152.333 28.6177C153.157 28.657 154.08 29.5061 154.188 30.3085C154.326 31.3335 153.778 32.3716 152.909 32.6335C152.546 32.742 152.147 32.7663 151.765 32.7682C149.5 32.7794 147.234 32.7831 144.969 32.7682C143.83 32.7607 142.939 31.8404 142.928 30.7088C142.917 29.6296 143.825 28.6738 144.919 28.6233C145.305 28.6046 145.693 28.6177 146.08 28.6083C146.353 28.6008 146.502 28.4998 146.502 28.1781C146.491 24.9965 146.491 21.8149 146.5 18.6314C146.5 18.2536 146.354 18.1507 145.995 18.1545C145.434 18.1601 144.863 18.2517 144.313 18.0347C143.532 17.7261 142.937 16.9293 142.933 16.1662C142.932 15.332 143.537 14.4603 144.313 14.1499C144.637 14.0208 144.962 13.9591 145.31 13.9609C146.934 13.9684 148.56 13.974 150.184 13.9535C150.559 13.9497 150.669 14.0694 150.667 14.4342C150.654 16.7198 150.661 19.0055 150.659 21.2912H150.661Z" fill="#E8435D"/>
<path d="M86.3495 34.4927C86.9554 34.3655 87.4774 34.373 87.992 34.4085C88.1542 34.4197 88.5308 34.5039 88.2157 34.8574C88.1598 34.9191 88.184 35.0576 88.1822 35.1604C88.1784 36.4735 88.1728 37.7884 88.1747 39.1014C88.1747 39.6102 88.2288 39.6439 88.6613 39.3708C89.6699 38.7367 90.768 38.632 91.8978 38.8433C92.3676 38.9312 92.9549 39.0435 93.2327 39.367C93.723 39.9375 94.3065 40.4463 94.644 41.1608C95.4214 42.803 94.8304 44.7258 93.5477 45.8257C92.444 46.7721 91.2434 47.0452 89.9048 46.9105C89.4555 46.8656 89.0248 46.5364 88.6371 46.2465C88.5196 46.1586 88.4171 46.009 88.2623 46.052C88.0815 46.1025 88.115 46.2895 88.1244 46.4317C88.1411 46.6505 88.0479 46.7216 87.8391 46.7104C87.5129 46.6917 87.1829 46.6748 86.8566 46.6879C86.6031 46.6991 86.577 46.585 86.577 46.3681C86.577 42.5617 86.5732 38.7535 86.5658 34.9472C86.5658 34.7957 86.6292 34.6143 86.3477 34.4908L86.3495 34.4927ZM93.4676 42.8629C93.5813 41.5573 92.2203 40.3041 90.9265 40.2705C89.6606 40.2368 88.1356 41.4189 88.1971 42.8217C88.2549 44.1105 89.3026 45.4216 90.7456 45.3898C92.3024 45.3562 93.3557 44.4752 93.4676 42.8629Z" fill="#121212"/>
<path d="M143.858 42.7602C143.858 43.9404 143.845 45.1188 143.868 46.299C143.873 46.6114 143.773 46.6937 143.491 46.6712C143.299 46.6563 143.103 46.6581 142.911 46.6712C142.591 46.6937 142.341 46.6825 142.36 46.2354C142.371 45.953 142.153 46.0446 142.016 46.1325C141.606 46.4 141.17 46.5964 140.706 46.7591C140.023 47.0004 139.377 46.963 138.679 46.7928C137.866 46.5945 137.186 46.2298 136.649 45.6088C135.571 44.3594 135.208 42.9453 135.814 41.2339C136.034 40.6129 136.429 40.1004 136.837 39.7263C137.385 39.2269 138.135 38.8528 138.927 38.7705C139.941 38.6658 140.922 38.8004 141.819 39.3503C142.227 39.601 142.304 39.5561 142.378 39.0941C142.41 38.8977 142.497 38.8584 142.671 38.8472C143.008 38.8229 143.342 38.8902 143.685 38.7948C143.954 38.72 143.888 39.0006 143.89 39.1296C143.905 39.861 143.898 40.5923 143.898 41.3237C143.898 41.8006 143.898 42.2795 143.898 42.7564C143.885 42.7564 143.871 42.7564 143.858 42.7564V42.7602ZM137.035 42.6629C136.996 44.0582 138.109 45.3582 139.375 45.3975C140.792 45.4405 142.259 44.322 142.296 43.1716C142.343 41.6585 141.312 40.3492 140.035 40.3024C138.312 40.2388 137.074 41.2133 137.035 42.6629Z" fill="#121212"/>
<path d="M107.465 43.3511C106.557 43.3511 105.647 43.3511 104.74 43.3511C104.199 43.3511 104.136 43.4465 104.359 43.9272C104.572 44.3855 104.697 44.8755 105.183 45.1785C106.136 45.7715 107.631 45.7584 108.535 45.0925C108.602 45.042 108.649 44.9616 108.701 44.8923C108.899 44.6286 109.136 44.6137 109.399 44.7801C109.51 44.8512 109.615 44.9372 109.719 45.0195C110.185 45.3899 110.178 45.4198 109.766 45.8089C109.136 46.4018 108.41 46.8152 107.56 46.9667C106.953 47.0751 106.319 47.1069 105.72 47.0003C105.241 46.9143 104.823 46.5851 104.402 46.3027C103.86 45.9398 103.423 45.4423 103.2 44.8961C102.862 44.0768 102.599 43.194 102.875 42.2494C102.996 41.8323 103.168 41.4339 103.297 41.0205C103.371 40.7793 103.589 40.5062 103.776 40.3621C104.467 39.8291 105.166 39.2717 106.106 39.2044C106.552 39.1726 107.012 39.3353 107.456 39.0921C107.536 39.0472 107.75 39.3203 107.924 39.3615C109.266 39.6794 109.952 40.6596 110.416 41.8435C110.59 42.2831 110.586 42.7731 110.579 43.2464C110.575 43.4521 110.377 43.353 110.279 43.353C109.341 43.3642 108.401 43.3586 107.463 43.3586C107.463 43.3548 107.463 43.3511 107.463 43.3492L107.465 43.3511ZM109.059 42.1091C108.629 41.3292 108.116 40.7475 107.314 40.6072C106.27 40.4239 105.303 40.6147 104.678 41.606C104.6 41.7313 104.402 41.8622 104.516 42.0306C104.613 42.1746 104.816 42.1091 104.973 42.111C105.597 42.1147 106.222 42.111 106.844 42.111C107.553 42.111 108.261 42.111 109.059 42.111V42.1091Z" fill="#121212"/>
<path d="M158.135 43.3549C157.212 43.3549 156.287 43.3642 155.364 43.3493C155.025 43.3437 154.962 43.4652 155.042 43.7776C155.327 44.9017 156.181 45.5302 157.352 45.5863C158.234 45.6293 158.961 45.3562 159.604 44.7951C159.794 44.6286 159.969 44.6305 160.159 44.7783C160.264 44.8587 160.37 44.9373 160.476 45.0196C160.84 45.302 160.847 45.4367 160.53 45.7621C159.699 46.615 158.705 47.0209 157.501 47.0434C156.487 47.064 155.694 46.7067 154.915 46.0932C153.44 44.9317 153.271 43.1678 153.705 41.8567C154.175 40.4314 155.299 39.2324 157.091 39.2081C157.671 39.2006 158.26 39.1726 158.819 39.3316C159.127 39.4195 159.423 39.6028 159.684 39.7973C160.765 40.6072 161.354 41.664 161.285 43.0537C161.271 43.3437 161.118 43.3549 160.907 43.3549C159.984 43.3549 159.059 43.3549 158.137 43.353L158.135 43.3549ZM157.423 42.2064C157.423 42.2064 157.423 42.1971 157.423 42.1915C158.092 42.1915 158.759 42.1877 159.429 42.1933C159.675 42.1952 159.854 42.0755 159.712 41.8604C159.417 41.4171 159.099 40.9514 158.612 40.7138C157.415 40.1302 155.858 40.6465 155.202 41.7931C155.055 42.0493 155.055 42.2102 155.417 42.2064C156.086 42.1989 156.753 42.2046 157.423 42.2046V42.2064Z" fill="#121212"/>
<path d="M122.664 47.0283C120.584 47.1125 118.569 45.0737 118.665 42.8648C118.761 40.7007 120.677 39.0827 123.25 39.1332C125.04 39.1688 126.766 41.3085 126.656 43.5194C126.574 45.1467 124.756 47.1275 122.666 47.0283H122.664ZM122.745 40.6651C121.525 40.4669 120.015 41.8248 120.127 43.1752C120.228 44.3761 121.281 45.5657 122.506 45.5619C124.206 45.5563 125.165 44.4022 125.228 42.9807C125.275 41.9033 124.001 40.5005 122.745 40.6651Z" fill="#121212"/>
<path d="M95.3926 39.2361C95.8978 39.3951 96.2986 39.3053 96.6957 39.3333C96.9512 39.352 97.3203 39.7635 97.2028 39.9599C96.9418 40.3995 97.0369 40.8634 97.063 41.3085C97.1078 42.0586 96.9978 42.8049 97.05 43.5531C97.0779 43.9515 97.0481 44.3648 97.2569 44.7258C97.6801 45.4534 98.2618 45.6966 99.0467 45.56C99.7253 45.4422 100.298 45.0494 100.451 44.146C100.546 43.5811 100.51 43.0144 100.514 42.4495C100.52 41.5236 100.523 40.5996 100.512 39.6738C100.508 39.4044 100.596 39.324 100.87 39.3184C102.043 39.2922 102.045 39.281 102.045 40.4406C102.045 41.4264 102.067 42.4121 102.035 43.3959C102.015 44.0375 101.992 44.7108 101.69 45.2869C101.002 46.6019 99.675 47.1817 98.135 47.0077C96.7237 46.8488 95.5026 45.5638 95.5324 43.972C95.5585 42.5542 95.5249 41.1364 95.5193 39.7187C95.5193 39.5784 95.538 39.4362 95.3963 39.238L95.3926 39.2361Z" fill="#121212"/>
<path d="M112.96 40.4014C113.419 40.1339 113.755 39.7542 114.182 39.4924C115.024 38.9761 116.682 39.0659 117.491 40.0816C117.722 40.3715 117.825 40.8054 117.828 41.2113C117.839 42.9733 117.897 44.7371 117.817 46.4934C117.789 47.1088 117.124 46.7104 116.758 46.8039C116.514 46.8656 116.37 46.7889 116.376 46.4541C116.4 44.9915 116.385 43.5288 116.378 42.0642C116.374 41.2581 116.085 40.8035 115.447 40.5604C114.745 40.291 114.129 40.4201 113.624 41.0149C113.015 41.7331 112.75 42.5337 112.867 43.525C112.985 44.5107 112.89 45.5227 112.88 46.5233C112.88 46.6898 112.772 46.8226 112.614 46.8357C112.302 46.8619 111.987 46.8675 111.676 46.8469C111.394 46.8282 111.437 46.5776 111.435 46.398C111.428 45.6667 111.434 44.9353 111.435 44.204C111.439 42.7264 111.454 41.2487 111.437 39.7692C111.434 39.4419 111.536 39.3577 111.838 39.3858C112.161 39.4157 112.556 39.3016 112.795 39.4512C113.037 39.6027 112.832 40.0385 112.957 40.3995L112.96 40.4014Z" fill="#121212"/>
<path d="M129.306 47.0471C128.558 46.9798 127.792 46.6431 127.274 45.8407C127.142 45.6349 127.125 45.4853 127.404 45.4086C127.501 45.3824 127.595 45.3357 127.684 45.287C128.132 45.0476 128.572 45.027 128.877 45.4086C129.151 45.749 129.451 45.6723 129.75 45.6536C130.156 45.6275 130.507 45.4124 130.753 45.0906C131.023 44.7371 130.831 44.2209 130.268 43.9067C129.759 43.6205 129.2 43.4222 128.67 43.1734C128.04 42.8779 127.483 42.4197 127.255 41.7949C126.854 40.6932 127.964 39.3073 129.176 39.1988C130.015 39.1239 130.775 39.268 131.499 39.7038C132.058 40.0386 132.097 40.2556 131.612 40.6727C131.534 40.74 131.456 40.8111 131.383 40.8859C131.187 41.0935 131.04 41.1421 130.781 40.9046C130.317 40.48 129.731 40.5268 129.144 40.624C128.782 40.6839 128.764 40.9401 128.717 41.1983C128.668 41.4564 128.775 41.6154 128.995 41.7781C129.448 42.1148 129.962 42.2981 130.468 42.5207C131.351 42.9097 132.082 43.4372 132.177 44.5183C132.231 45.1468 132 45.6686 131.623 46.1437C131.073 46.8358 130.315 47.0247 129.308 47.0471H129.306Z" fill="#121212"/>
<path d="M163.8 47.0228C162.905 47.2304 162.377 46.4897 161.744 46.009C161.537 45.8519 161.451 45.5676 161.841 45.3862C162.288 45.1785 162.657 45.0383 163.149 45.3824C163.828 45.8575 164.768 45.5489 165.282 44.9896C165.385 44.8793 165.36 44.7951 165.31 44.6735C165.105 44.1853 164.756 43.9048 164.259 43.6953C163.474 43.3642 162.624 43.151 162.049 42.3991C161.544 41.7388 161.539 40.5436 162.316 39.7917C163.334 38.8078 165.405 39.1576 166.227 40.0087C166.376 40.1639 166.393 40.2668 166.225 40.4033C166.123 40.4875 166.02 40.5791 165.94 40.6858C165.681 41.0281 165.426 41.0804 165.047 40.8186C164.59 40.5025 164.037 40.5343 163.509 40.5979C163.213 40.6334 163.136 40.9233 163.073 41.1646C162.998 41.4508 163.181 41.6509 163.386 41.8043C163.824 42.1335 164.339 42.328 164.844 42.5169C165.511 42.7657 165.959 43.2539 166.376 43.7907C166.563 44.0301 166.559 44.2957 166.567 44.5912C166.602 46.0333 165.172 47.1949 163.8 47.0228Z" fill="#121212"/>
<path d="M149.15 43.0162C149.15 41.8977 149.15 40.7792 149.15 39.6607C149.15 39.4231 149.197 39.2566 149.492 39.3221C149.547 39.3352 149.611 39.3221 149.671 39.3221C150.5 39.3221 150.502 39.3221 150.545 40.1414C150.554 40.306 150.571 40.4986 150.72 40.5529C150.927 40.6277 150.966 40.3976 151.05 40.2685C151.57 39.4643 152.284 39.0771 153.259 39.2005C153.455 39.2248 153.511 39.2866 153.505 39.468C153.494 39.8458 153.289 40.1713 153.224 40.5342C153.2 40.6651 153.079 40.7062 152.942 40.6819C152.128 40.5323 151.477 40.8577 151.043 41.503C150.847 41.7948 150.605 42.1128 150.621 42.5505C150.66 43.5792 150.621 44.608 150.636 45.6386C150.642 45.979 150.571 46.3082 150.558 46.6449C150.556 46.7066 150.562 46.7908 150.5 46.7945C150.12 46.8132 149.726 46.8805 149.361 46.8076C149.115 46.7571 149.16 46.426 149.16 46.1941C149.16 45.1354 149.16 44.0768 149.16 43.0162C149.158 43.0162 149.156 43.0162 149.154 43.0162H149.15Z" fill="#121212"/>
<path d="M148.292 10.5324C147.291 10.5866 146.321 9.53915 146.252 8.43747C146.189 7.42743 147.352 6.41179 148.484 6.40991C149.528 6.40804 150.453 7.35636 150.455 8.42999C150.455 9.67009 149.571 10.5305 148.294 10.5324H148.292Z" fill="#E8435D"/>
<path d="M145.812 43.048C145.812 41.9444 145.812 40.8409 145.812 39.7373C145.812 39.4156 145.819 39.1032 146.291 39.3183C146.328 39.3352 146.379 39.3183 146.423 39.3202C147.331 39.3464 147.328 39.3464 147.326 40.2535C147.322 42.2661 147.316 44.2806 147.335 46.2932C147.339 46.6748 147.231 46.8001 146.854 46.7701C146.629 46.7514 146.399 46.7514 146.159 46.83C145.838 46.9329 145.801 46.6542 145.801 46.4035C145.801 45.285 145.801 44.1665 145.801 43.048H145.81H145.812Z" fill="#121212"/>
<path d="M145.801 37.5022C145.798 37.0059 146.021 36.7571 146.47 36.7559C147.042 36.7534 147.328 36.9124 147.33 37.2329C147.331 37.9324 147.023 38.2822 146.405 38.2822C146.005 38.2822 145.803 38.0228 145.801 37.5041V37.5022Z" fill="#121212"/>
</g>
<defs>
<clipPath id="clip0_4498_121346">
<rect width="167.617" height="52" fill="white"/>
</clipPath>
</defs>
</svg>
