<?xml version="1.0" encoding="utf-8"?>
<!-- Generator: Adobe Illustrator 23.1.0, SVG Export Plug-In . SVG Version: 6.00 Build 0)  -->
<svg version="1.1" id="Capa_1" xmlns="http://www.w3.org/2000/svg" xmlns:xlink="http://www.w3.org/1999/xlink" x="0px" y="0px"
	 viewBox="0 0 352.9 90.2" style="enable-background:new 0 0 352.9 90.2;" xml:space="preserve">
<style type="text/css">
	.st0{fill:#FFFFFF;}
</style>
<g>
	<path class="st0" d="M71.2,54.6c0-3.7,1.4-6.9,4.1-9.6c2.7-2.6,6.9-3.9,12.6-3.9c4.3,0,8.4,1,12.3,2.9v6.5
		c-3.5-2.1-7.3-3.2-11.5-3.2c-7.2,0-10.8,2.4-10.8,7.3c0,1.3,0.6,2.4,1.9,3.4c1.3,1,2.8,1.7,4.7,2.3c1.9,0.6,3.9,1.3,6.1,2.2
		c2.2,0.9,4.3,1.9,6.1,2.9c1.9,1,3.4,2.6,4.7,4.6c1.3,2,1.9,4.3,1.9,7c0,4.1-1.5,7.3-4.6,9.6c-3.1,2.3-7.3,3.4-12.7,3.4
		c-4.8,0-9.5-1.1-14.2-3.4v-6.9c4.4,2.7,9,4.1,13.6,4.1c7.4,0,11.2-2.3,11.2-6.8c0-1.9-0.6-3.6-1.9-5c-1.3-1.4-2.8-2.4-4.7-3
		L84,67.1c-2.2-0.8-4.3-1.6-6.2-2.4c-1.9-0.8-3.4-2.1-4.7-3.8C71.8,59.1,71.2,57.1,71.2,54.6z"/>
	<path class="st0" d="M108.5,89.5V56.7c4.8-2.4,9.7-3.6,14.9-3.6c3.9,0,7.1,0.9,9.6,2.7c4.5-1.8,8.9-2.7,13.1-2.7
		c4.5,0,8.1,1.2,10.6,3.5c2.5,2.4,3.8,5.7,3.8,9.9v23h-6.6V66.1c0-2.1-0.5-3.7-1.5-5c-1-1.3-3-1.9-5.9-1.9c-3.2,0-6.4,0.7-9.6,2
		c0.6,1.5,0.8,3.2,0.8,5.1c0,0.1,0,0.1,0,0.2v23h-6.6V66.1c0-2.1-0.6-3.8-1.7-5c-1.1-1.2-3.3-1.8-6.6-1.8c-2.6,0-5.2,0.4-7.8,1.1
		v29.1H108.5z"/>
	<path class="st0" d="M165.3,78.2c0-3.5,1.5-6.3,4.5-8.3c3-2,7.1-3,12.4-3c2.2,0,4.4,0.1,6.5,0.4c-0.1-3-1-5.2-2.5-6.5
		c-1.5-1.3-4-2-7.4-2c-3.1,0-6.4,0.6-9.9,1.8v-5.6c3.4-1.3,7-1.9,10.8-1.9c5,0,8.8,1.3,11.6,3.9c2.7,2.6,4.1,6.3,4.1,11.1v10.3
		c0,0.8-0.1,1.5-0.2,2.3c-0.2,0.8-0.5,1.7-1.1,2.9c-0.6,1.2-1.4,2.2-2.3,3.1c-1,0.9-2.5,1.6-4.4,2.3c-2,0.6-4.2,1-6.8,1
		c-2.6,0-5-0.3-6.9-1c-2-0.7-3.5-1.4-4.5-2.3c-1-0.9-1.8-1.9-2.4-3.2c-0.6-1.2-1-2.2-1.1-3C165.3,79.8,165.3,79,165.3,78.2z
		 M171.8,78.1c0,4,2.9,6.1,8.6,6.1c0,0,0.1,0,0.1,0c5.4,0,8.1-1.9,8.1-5.8v-5.8c-1.7-0.3-3.8-0.4-6.2-0.5c-1,0-2,0.1-3,0.3
		c-1,0.2-2.2,0.4-3.4,0.8c-1.2,0.4-2.2,1-3,1.8C172.2,75.9,171.8,77,171.8,78.1z"/>
	<path class="st0" d="M200,89.5V56.7c6-2.4,11.8-3.6,17.4-3.6v6c-3.6,0-7.2,0.5-10.9,1.5v28.8H200z"/>
	<path class="st0" d="M221.9,59.3v-5.6h6.2V43.1h6.6v10.6h9.5v5.6h-9.5V80c0,2.8,1.8,4.2,5.3,4.2c0,0,0,0,0.1,0c1.6,0,3-0.3,4.2-1
		v5.9c-1.6,0.7-3.3,1-4.9,1c0,0-0.1,0-0.2,0c-0.9,0-1.8-0.1-2.8-0.3c-1-0.2-2.2-0.6-3.5-1.2c-1.4-0.6-2.5-1.7-3.4-3.2
		c-0.9-1.5-1.3-3.4-1.3-5.7V59.3H221.9z"/>
	<path class="st0" d="M249.3,48.2v-6.9h7v6.9H249.3z M249.5,89.5V53.7h6.6v35.8H249.5z"/>
	<path class="st0" d="M263.6,74.5V53.7h6.5V75c0,3.3,0.7,5.6,2.1,7.2c1.4,1.5,3.6,2.3,6.5,2.3c3,0,5.1-0.8,6.5-2.3
		c1.4-1.5,2-3.9,2-7.2V53.7h6.5v20.7c0,5-1.3,8.8-4,11.6c-2.6,2.7-6.3,4.1-11.1,4.1c-4.8,0-8.5-1.4-11.2-4.1
		C264.9,83.3,263.6,79.4,263.6,74.5z"/>
	<path class="st0" d="M301,89.5V56.7c4.8-2.4,9.7-3.6,14.9-3.6c3.9,0,7.1,0.9,9.6,2.7c4.5-1.8,8.9-2.7,13.1-2.7
		c4.5,0,8,1.2,10.6,3.5c2.5,2.4,3.8,5.7,3.8,9.9v23h-6.6V66.1c0-2.1-0.5-3.7-1.5-5c-1-1.3-3-1.9-5.9-1.9c-3.2,0-6.4,0.7-9.6,2
		c0.6,1.5,0.8,3.2,0.8,5.1c0,0.1,0,0.1,0,0.2v23h-6.6V66.1c0-2.1-0.6-3.8-1.7-5c-1.1-1.2-3.3-1.8-6.6-1.8c-2.6,0-5.2,0.4-7.8,1.1
		v29.1H301z"/>
	<path class="st0" d="M69.2,71.6c-5.7-2-11.6-4.1-16.8-7.4c-5.1-3.2-10.5-7.7-8.5-14.3c0.9-3,3.9-5.3,6.3-7.1c2.4-1.7,5-3.2,7.7-4.4
		c5.8-2.6,11.7-4.8,17.9-6.5c12.3-3.4,24.9-5.8,37.5-7.5c13.2-1.8,26.4-2.9,39.7-3.6c2.8-0.2,5.6-0.3,8.4-0.3c2-0.1,4-0.1,5.9-0.2
		c0.9,0,2.4,0,3-0.6c0.8-0.8-2.7-0.9-2.9-0.9c-6.7,0-13.5,0.3-20.2,0.5c-12.6,0.5-25.2,1.4-37.7,2.9c-13.1,1.6-26.1,3.7-38.9,6.9
		c-6.1,1.6-12.1,3.5-18,5.9c-5.8,2.4-11.4,5.7-15.2,10.7c-4,5.4,0.1,11.8,4.5,15.2c4.9,3.8,10.6,6.4,16.3,8.5c2.5,0.9,5,1.8,7.6,2.6
		c1.4,0.4,2.9,1,4.3,1.2c0.2,0,1.9,0.3,1.8-0.2C72,72.4,69.8,71.8,69.2,71.6z"/>
	<path class="st0" d="M184,9.7c0,5.4,4.3,9.7,9.7,9.7c5.4,0,9.7-4.3,9.7-9.7c0-5.4-4.3-9.7-9.7-9.7C188.3,0,184,4.3,184,9.7z"/>
	<path class="st0" d="M175.3,9.6c-12.8,0.2-25.6,0.5-38.3,1.3c-12.9,0.8-25.9,1.8-38.7,3.4c-13.2,1.7-26.4,3.6-39.5,6.4
		c-12.6,2.6-25,6.1-37,11.1C12.2,35.7-4.7,45.2,1.3,58c2.6,5.6,8.1,9.5,13.3,12.4c5.4,3.1,11.1,5.5,16.9,7.6c3,1.1,6,2.1,9,3
		c2.2,0.7,4.7,1.8,7,1.6c0.6-0.1,1-0.5,0.7-1.1c-0.3-0.6-1.2-0.9-1.8-1.2c-4.8-2.4-9.5-5.3-13.8-8.6c-5.3-4.1-11-9.4-12.4-16.2
		c-1.9-8.7,5.4-15.4,12.1-19.5C46.7,27.2,64.1,24,80.5,20.8c12.2-2.4,24.7-4.1,37.1-5.4c13.2-1.3,26.4-2.4,39.6-3
		c3.7-0.2,7.4-0.3,11.1-0.4c2.3-0.1,4.6-0.1,6.8-0.2c0.8,0,3.6,0.1,4-1C179.7,9.6,175.6,9.6,175.3,9.6z"/>
</g>
</svg>
