<svg width="75" height="74" viewBox="0 0 75 74" fill="none" xmlns="http://www.w3.org/2000/svg">
<g clip-path="url(#clip0_487_34715)">
<path d="M37.554 73.9997C57.8045 73.9997 74.2207 57.5834 74.2207 37.333C74.2207 17.0825 57.8045 0.66626 37.554 0.66626C17.3035 0.66626 0.887299 17.0825 0.887299 37.333C0.887299 57.5834 17.3035 73.9997 37.554 73.9997Z" fill="#20418F"/>
<path d="M17.3764 32.2693H15.0001V43.6085H17.3764V32.2693Z" fill="white"/>
<path d="M30.1997 41.3047C31.1095 40.4241 31.5716 39.2851 31.5716 37.9095C31.5716 37.098 31.4152 36.3193 31.1095 35.5988C30.8002 34.8782 30.378 34.2523 29.8504 33.7392C29.3227 33.2298 28.6895 32.8186 27.9617 32.5238C27.2376 32.229 26.4552 32.0798 25.6437 32.0798C24.5483 32.0798 23.5367 32.3382 22.6342 32.8513C21.7317 33.3644 21.0149 34.074 20.5018 34.9547C19.9887 35.8389 19.7303 36.8215 19.7303 37.8768C19.7303 38.681 19.8868 39.4488 20.1961 40.1584C20.5054 40.8717 20.9239 41.483 21.4479 41.9852C21.9683 42.4838 22.5906 42.8841 23.2965 43.1679C24.0025 43.4554 24.7558 43.6009 25.5272 43.6009H32.263V41.2975H30.1961L30.1997 41.3047ZM29.1881 37.895C29.1881 38.5609 29.0316 39.1686 28.7186 39.7036C28.4093 40.2385 27.9799 40.657 27.445 40.9481C26.9101 41.2429 26.306 41.3921 25.6582 41.3921C24.6648 41.3921 23.8133 41.0609 23.1291 40.4059C22.4377 39.7436 22.1029 38.9285 22.1029 37.9095C22.1029 37.2472 22.2594 36.6322 22.5651 36.0827C22.8708 35.5333 23.3002 35.0966 23.8424 34.7763C24.3809 34.4597 24.9887 34.296 25.6437 34.296C26.2987 34.296 26.8991 34.4525 27.4414 34.7654C27.9799 35.0747 28.413 35.5114 28.7223 36.0609C29.0316 36.6104 29.1881 37.229 29.1881 37.895Z" fill="white"/>
<path d="M42.34 32.2693V39.5437L37.0707 32.2693H34.3014V43.6085H36.6777V35.7955L42.3327 43.6085H44.7017V32.2693H42.34Z" fill="white"/>
<path d="M55.1306 34.5801V32.2693H47.2849V43.6085H55.1306V41.305H49.6612V38.8523H54.0753V36.5488H49.6612V34.5801H55.1306Z" fill="white"/>
<path d="M57.3617 32.2693V34.5801H60.8697V43.6085H63.246V34.5801H66.7358V32.2693H57.3617Z" fill="white"/>
<path d="M22.8181 22.5822C22.8326 22.1019 23.2329 21.7271 23.7133 21.7453C24.1936 21.7598 24.5684 22.1601 24.5502 22.6405C24.5357 23.1208 24.1354 23.4956 23.6551 23.4774C23.1747 23.4592 22.7999 23.0626 22.8181 22.5822Z" fill="white"/>
<path d="M25.2996 20.6177C25.3178 20.1046 25.7435 19.7043 26.2566 19.7225C26.7697 19.7407 27.17 20.1665 27.1518 20.6796C27.1336 21.1927 26.7079 21.593 26.1948 21.5748C25.6817 21.5566 25.2814 21.1308 25.2996 20.6177Z" fill="white"/>
<path d="M31.0237 17.9902C31.0419 17.4116 31.5259 16.9604 32.1045 16.9786C32.6831 16.9968 33.1343 17.4807 33.1161 18.0593C33.0979 18.6379 32.6139 19.0892 32.0353 19.071C31.4567 19.0528 31.0055 18.5688 31.0237 17.9902Z" fill="white"/>
<path d="M37.2713 17.306C37.2932 16.6619 37.8317 16.1561 38.4759 16.1779C39.12 16.1998 39.6258 16.7383 39.6039 17.3824C39.5821 18.0265 39.0435 18.5324 38.3994 18.5105C37.7553 18.4887 37.2495 17.9501 37.2713 17.306Z" fill="white"/>
<path d="M40.397 17.7099C40.4188 17.0331 40.9865 16.5018 41.6634 16.5236C42.3402 16.5454 42.8715 17.1131 42.8497 17.79C42.8279 18.4668 42.2602 18.9981 41.5833 18.9763C40.9065 18.9545 40.3752 18.3868 40.397 17.7099Z" fill="white"/>
<path d="M43.4216 18.6084C43.4434 17.8988 44.0402 17.3421 44.7499 17.3639C45.4595 17.3857 46.0162 17.9825 45.9944 18.6921C45.9726 19.4018 45.3758 19.9585 44.6662 19.9367C43.9565 19.9149 43.3998 19.3181 43.4216 18.6084Z" fill="white"/>
<path d="M46.2638 19.9848C46.2893 19.2424 46.9079 18.6602 47.6539 18.682C48.3963 18.7075 48.9785 19.3261 48.9567 20.0721C48.9312 20.8145 48.3126 21.3967 47.5666 21.3749C46.8206 21.353 46.242 20.7308 46.2638 19.9848Z" fill="white"/>
<path d="M15.7432 26.0948C16.1552 26.0948 16.4892 25.7608 16.4892 25.3488C16.4892 24.9368 16.1552 24.6028 15.7432 24.6028C15.3312 24.6028 14.9972 24.9368 14.9972 25.3488C14.9972 25.7608 15.3312 26.0948 15.7432 26.0948Z" fill="white"/>
<path d="M17.1522 22.0836C17.1667 21.6396 17.5379 21.2867 17.9855 21.3012C18.4331 21.3158 18.7825 21.687 18.7679 22.1346C18.7533 22.5785 18.3822 22.9315 17.9346 22.9169C17.487 22.9024 17.1376 22.5312 17.1522 22.0836Z" fill="white"/>
<path d="M22.8289 16.8372C22.8471 16.3241 23.2729 15.9238 23.786 15.942C24.2991 15.9602 24.6994 16.386 24.6812 16.8991C24.663 17.4122 24.2372 17.8125 23.7241 17.7943C23.211 17.7761 22.8107 17.3503 22.8289 16.8372Z" fill="white"/>
<path d="M26.2093 14.9479C26.2275 14.402 26.6824 13.9763 27.2283 13.9945C27.7741 14.0127 28.1999 14.4675 28.1817 15.0134C28.1635 15.5592 27.7086 15.985 27.1628 15.9668C26.6169 15.9486 26.1911 15.4937 26.2093 14.9479Z" fill="white"/>
<path d="M29.8414 13.6277C29.8596 13.0491 30.3436 12.5978 30.9222 12.616C31.5008 12.6342 31.952 13.1182 31.9338 13.6968C31.9157 14.2754 31.4317 14.7266 30.8531 14.7084C30.2745 14.6902 29.8232 14.2063 29.8414 13.6277Z" fill="white"/>
<path d="M33.637 12.9031C33.6552 12.2918 34.1683 11.8151 34.7797 11.8333C35.391 11.8515 35.8678 12.3646 35.8496 12.9759C35.8314 13.5873 35.3183 14.064 34.7069 14.0458C34.0956 14.0276 33.6188 13.5145 33.637 12.9031Z" fill="white"/>
<path d="M37.4933 12.7909C37.5152 12.1468 38.0537 11.641 38.6978 11.6628C39.3419 11.6846 39.8478 12.2232 39.8259 12.8673C39.8041 13.5114 39.2655 14.0172 38.6214 13.9954C37.9773 13.9736 37.4715 13.435 37.4933 12.7909Z" fill="white"/>
<path d="M41.2126 13.2634C41.2345 12.5865 41.8021 12.0552 42.479 12.0771C43.1559 12.0989 43.6872 12.6666 43.6653 13.3434C43.6435 14.0203 43.0758 14.5516 42.3989 14.5298C41.7221 14.5079 41.1908 13.9402 41.2126 13.2634Z" fill="white"/>
<path d="M45.034 14.3689C45.0558 13.6593 45.6526 13.1026 46.3622 13.1244C47.0719 13.1462 47.6286 13.743 47.6068 14.4526C47.585 15.1622 46.9882 15.719 46.2786 15.6972C45.5689 15.6753 45.0122 15.0785 45.034 14.3689Z" fill="white"/>
<path d="M48.5125 16.0653C48.538 15.323 49.1566 14.7407 49.9026 14.7626C50.6486 14.7844 51.2272 15.4067 51.2054 16.1527C51.1799 16.895 50.5613 17.4773 49.8153 17.4554C49.0729 17.43 48.4907 16.8113 48.5125 16.0653Z" fill="white"/>
<path d="M51.686 18.2778C51.7115 17.5027 52.3592 16.895 53.138 16.9205C53.9131 16.9459 54.5208 17.5937 54.4953 18.3724C54.4698 19.1475 53.8221 19.7552 53.0433 19.7298C52.2646 19.7043 51.6605 19.0566 51.686 18.2778Z" fill="white"/>
<path d="M54.4769 20.9673C54.5024 20.1595 55.1792 19.5226 55.9907 19.5517C56.7986 19.5772 57.4354 20.2541 57.4063 21.0656C57.3808 21.8734 56.704 22.5103 55.8925 22.4811C55.0846 22.4557 54.4478 21.7788 54.4769 20.9673Z" fill="white"/>
<path d="M9.16357 49.8176C9.18176 49.2571 9.6512 48.8168 10.2116 48.835C10.772 48.8532 11.2123 49.3226 11.1941 49.8831C11.1759 50.4435 10.7065 50.8838 10.1461 50.8656C9.58569 50.8474 9.14537 50.378 9.16357 49.8176Z" fill="white"/>
<path d="M7.49762 45.564C7.51581 44.9708 8.01436 44.505 8.60752 44.5232C9.20067 44.5414 9.66647 45.04 9.64827 45.6331C9.63008 46.2263 9.13153 46.6921 8.53837 46.6739C7.94522 46.6557 7.47942 46.1571 7.49762 45.564Z" fill="white"/>
<path d="M6.57714 40.9527C6.59898 40.3268 7.12299 39.8319 7.7489 39.8537C8.37481 39.8756 8.86972 40.3996 8.84789 41.0255C8.82605 41.6514 8.30203 42.1463 7.67612 42.1245C7.05021 42.1026 6.55531 41.5786 6.57714 40.9527Z" fill="white"/>
<path d="M6.38384 36.2619C6.40568 35.6032 6.95881 35.0828 7.61747 35.1047C8.27613 35.1265 8.79651 35.6796 8.77467 36.3383C8.75284 36.997 8.19971 37.5173 7.54105 37.4955C6.88239 37.4737 6.36201 36.9205 6.38384 36.2619Z" fill="white"/>
<path d="M6.91897 31.6116C6.94081 30.9165 7.52305 30.3743 8.21446 30.3961C8.90951 30.418 9.45173 31.0002 9.42989 31.6916C9.40806 32.383 8.82582 32.9289 8.1344 32.9071C7.43935 32.8852 6.89714 32.303 6.91897 31.6116Z" fill="white"/>
<path d="M8.17459 27.1061C8.19642 26.3782 8.80778 25.8106 9.53194 25.8324C10.2597 25.8542 10.8274 26.4656 10.8056 27.1897C10.7838 27.9175 10.1724 28.4852 9.44824 28.4634C8.72044 28.4416 8.15276 27.8302 8.17459 27.1061Z" fill="white"/>
<path d="M10.1253 22.8662C10.1508 22.1056 10.784 21.5124 11.5446 21.5343C12.3051 21.5561 12.8983 22.1929 12.8764 22.9535C12.851 23.714 12.2178 24.3072 11.4572 24.2854C10.6967 24.2599 10.1035 23.6267 10.129 22.8662H10.1253Z" fill="white"/>
<path d="M14.1457 20.4759C14.9375 20.4759 15.5795 19.834 15.5795 19.0422C15.5795 18.2503 14.9375 17.6084 14.1457 17.6084C13.3538 17.6084 12.7119 18.2503 12.7119 19.0422C12.7119 19.834 13.3538 20.4759 14.1457 20.4759Z" fill="white"/>
<path d="M15.9286 15.5852C15.9541 14.7919 16.6164 14.1733 17.4097 14.1988C18.203 14.2242 18.8216 14.8865 18.7961 15.6798C18.7707 16.4731 18.1084 17.0918 17.315 17.0663C16.5217 17.0408 15.9031 16.3785 15.9286 15.5852Z" fill="white"/>
<path d="M19.5787 12.7132C19.6042 11.8872 20.2956 11.2394 21.1216 11.2685C21.9477 11.2976 22.5954 11.9854 22.5663 12.8115C22.5409 13.6375 21.8494 14.2853 21.0234 14.2562C20.1973 14.2307 19.5496 13.5393 19.5787 12.7132Z" fill="white"/>
<path d="M23.629 10.4464C23.6581 9.58764 24.375 8.91442 25.2338 8.94354C26.0926 8.97265 26.7659 9.68953 26.7367 10.5483C26.7076 11.4071 25.9907 12.0804 25.1319 12.0513C24.2731 12.0221 23.5999 11.3053 23.629 10.4464Z" fill="white"/>
<path d="M29.6034 10.5378C30.4957 10.5378 31.2191 9.81446 31.2191 8.92212C31.2191 8.02978 30.4957 7.3064 29.6034 7.3064C28.7111 7.3064 27.9877 8.02978 27.9877 8.92212C27.9877 9.81446 28.7111 10.5378 29.6034 10.5378Z" fill="white"/>
<path d="M32.5413 7.99814C32.5704 7.07383 33.3455 6.34967 34.2698 6.37878C35.1941 6.40789 35.9183 7.183 35.8892 8.10731C35.8601 9.03162 35.085 9.75578 34.1606 9.72667C33.2363 9.69756 32.5122 8.92245 32.5413 7.99814Z" fill="white"/>
<path d="M37.1952 7.86298C37.2279 6.90592 38.0285 6.15628 38.9856 6.18539C39.9426 6.21814 40.6923 7.01872 40.6631 7.97578C40.634 8.93285 39.8298 9.68248 38.8727 9.65337C37.9157 9.62426 37.166 8.82004 37.1952 7.86298Z" fill="white"/>
<path d="M41.765 8.45287C41.7977 7.46306 42.6274 6.68431 43.6172 6.71706C44.607 6.74981 45.3858 7.57951 45.353 8.56932C45.3203 9.55913 44.4906 10.3379 43.5008 10.3051C42.511 10.2724 41.7322 9.44268 41.765 8.45287Z" fill="white"/>
<path d="M19.7865 19.2346C19.801 18.7542 20.2013 18.3794 20.6817 18.3976C21.162 18.4158 21.5369 18.8125 21.5187 19.2928C21.5005 19.7732 21.1038 20.148 20.6235 20.1298C20.1431 20.1152 19.7683 19.7149 19.7865 19.2346Z" fill="white"/>
<path d="M34.1533 17.3795C34.1715 16.7681 34.6846 16.2914 35.296 16.3096C35.9073 16.3278 36.384 16.8409 36.3659 17.4522C36.3477 18.0636 35.8346 18.5403 35.2232 18.5221C34.6118 18.5039 34.1351 17.9908 34.1533 17.3795Z" fill="white"/>
<path d="M28.0655 19.0419C28.0837 18.496 28.5386 18.0703 29.0844 18.0885C29.6303 18.1066 30.056 18.5615 30.0378 19.1074C30.0197 19.6532 29.5648 20.079 29.0189 20.0608C28.4731 20.0426 28.0473 19.5877 28.0655 19.0419Z" fill="white"/>
<path d="M17.1318 53.2833V49.0256H18.6965C19.1332 49.0256 19.4789 49.1239 19.73 49.3204C19.9811 49.5169 20.1048 49.8226 20.1048 50.2301C20.1048 50.5649 20.0175 50.8306 19.8428 51.0271C19.6681 51.2236 19.4171 51.3473 19.0895 51.3946L20.1994 53.2796H19.5262L18.4454 51.431H17.714V53.2796H17.1281L17.1318 53.2833ZM17.7176 50.8815H18.6892C18.8166 50.8815 18.9294 50.8706 19.024 50.8524C19.1187 50.8342 19.206 50.7978 19.2824 50.7542C19.3588 50.7105 19.4171 50.6414 19.4571 50.5577C19.4971 50.4703 19.5189 50.3648 19.5189 50.2411C19.5189 50.0154 19.4498 49.8481 19.3115 49.7425C19.1732 49.637 18.9658 49.5824 18.6892 49.5824H17.7176V50.8815Z" fill="white" stroke="white" stroke-width="0.305556" stroke-miterlimit="10"/>
<path d="M21.2289 53.2833V49.0256H23.7144V49.5788H21.8185V50.7869H23.3942V51.34H21.8185V52.7302H23.7144V53.2833H21.2289Z" fill="white" stroke="white" stroke-width="0.305556" stroke-miterlimit="10"/>
<path d="M24.4825 51.1548C24.4825 50.8564 24.5408 50.5689 24.6572 50.2996C24.7737 50.0267 24.9301 49.7938 25.1267 49.5973C25.3232 49.4008 25.5597 49.2479 25.8326 49.1315C26.1055 49.015 26.3967 48.9604 26.706 48.9604C27.0153 48.9604 27.3101 49.0187 27.5793 49.1351C27.8523 49.2516 28.0924 49.4153 28.2962 49.63L27.8777 50.0012C27.7249 49.8411 27.5466 49.7174 27.3464 49.63C27.1463 49.5427 26.9352 49.499 26.7133 49.499C26.4913 49.499 26.2729 49.5463 26.0692 49.6373C25.8654 49.7283 25.6907 49.8484 25.5451 50.0012C25.3996 50.154 25.2831 50.3287 25.1994 50.5325C25.1121 50.7363 25.0684 50.9473 25.0684 51.162C25.0684 51.3767 25.1121 51.5951 25.1994 51.7989C25.2868 52.0027 25.4032 52.181 25.5524 52.3302C25.698 52.4794 25.8726 52.5958 26.0728 52.6868C26.2729 52.7741 26.4804 52.8214 26.6951 52.8214C26.9098 52.8214 27.1208 52.7778 27.321 52.6904C27.5211 52.6031 27.6958 52.4867 27.8486 52.3375L28.2344 52.7195C27.7977 53.1453 27.2846 53.3564 26.6987 53.3564C26.3021 53.3564 25.9345 53.2618 25.5961 53.0689C25.2577 52.876 24.9884 52.6104 24.7846 52.2719C24.5844 51.9335 24.4825 51.5623 24.4825 51.1548Z" fill="white" stroke="white" stroke-width="0.305556" stroke-miterlimit="10"/>
<path d="M28.9329 51.1594C28.9329 50.861 28.9912 50.5735 29.104 50.3042C29.2168 50.0313 29.3696 49.7984 29.5661 49.6019C29.7626 49.4054 29.9955 49.2489 30.2721 49.1324C30.5487 49.016 30.8434 48.9578 31.1527 48.9578C31.462 48.9578 31.7495 49.016 32.0261 49.1288C32.299 49.2452 32.5356 49.3981 32.7357 49.5946C32.9358 49.7911 33.0887 50.024 33.2051 50.2933C33.3216 50.5662 33.3798 50.8501 33.3798 51.1557C33.3798 51.4614 33.3216 51.7452 33.2051 52.0182C33.0887 52.2911 32.9322 52.5276 32.7321 52.7205C32.5319 52.9134 32.299 53.0699 32.0225 53.1863C31.7459 53.3028 31.4584 53.3573 31.1564 53.3573C30.8543 53.3573 30.5668 53.2991 30.2939 53.1863C30.021 53.0735 29.7845 52.9207 29.5843 52.7241C29.3842 52.5276 29.2277 52.2947 29.1076 52.0218C28.9912 51.7489 28.9293 51.4614 28.9293 51.1557L28.9329 51.1594ZM29.5188 51.163C29.5188 51.465 29.5916 51.7453 29.7372 51.9963C29.8827 52.2474 30.0792 52.4512 30.3303 52.5968C30.5814 52.7423 30.858 52.8151 31.1564 52.8151C31.4548 52.8151 31.7313 52.7423 31.9824 52.5931C32.2335 52.4439 32.43 52.2438 32.5719 51.9891C32.7139 51.7343 32.7866 51.4578 32.7866 51.1521C32.7866 50.8464 32.7139 50.5735 32.5719 50.3188C32.43 50.064 32.2335 49.8602 31.9824 49.711C31.7313 49.5618 31.4511 49.4854 31.1491 49.4854C30.8471 49.4854 30.5668 49.5618 30.3158 49.7147C30.0647 49.8675 29.8682 50.0713 29.7299 50.326C29.588 50.5808 29.5188 50.8573 29.5188 51.1594V51.163Z" fill="white" stroke="white" stroke-width="0.305556" stroke-miterlimit="10"/>
<path d="M34.435 52.0249C34.3186 51.7557 34.264 51.4682 34.264 51.1661C34.264 50.8641 34.3222 50.5766 34.4386 50.3C34.5551 50.0271 34.7116 49.7906 34.9081 49.5941C35.1046 49.3976 35.3411 49.2411 35.6141 49.1246C35.887 49.0082 36.1781 48.9536 36.4838 48.9536C36.7895 48.9536 37.0988 49.0155 37.3826 49.1356C37.6665 49.2557 37.9139 49.4267 38.1286 49.645L37.7611 50.0526C37.6046 49.8706 37.4154 49.7287 37.1897 49.6341C36.9641 49.5395 36.7349 49.4922 36.4947 49.4922C36.189 49.4922 35.9125 49.5686 35.6577 49.7178C35.4066 49.867 35.2065 50.0708 35.0646 50.3292C34.9226 50.5875 34.8499 50.8677 34.8499 51.1698C34.8499 51.4718 34.919 51.7484 35.0609 51.9995C35.2028 52.2506 35.3993 52.4507 35.6504 52.5963C35.9015 52.7418 36.1817 52.8146 36.4947 52.8146C36.6803 52.8146 36.8513 52.7855 37.0114 52.7309C37.1715 52.6763 37.3135 52.5926 37.4372 52.4871C37.5609 52.3779 37.6628 52.236 37.7392 52.0613C37.8157 51.8867 37.8593 51.6865 37.8702 51.4609H36.3564V50.9078H38.4416V51.2753C38.4416 51.6792 38.3615 52.0359 38.2014 52.3488C38.0413 52.6618 37.812 52.9092 37.5173 53.0875C37.2189 53.2658 36.8731 53.3532 36.4838 53.3532C36.1781 53.3532 35.887 53.295 35.6104 53.1821C35.3338 53.0693 35.0973 52.9129 34.9008 52.72C34.7043 52.5235 34.5478 52.2942 34.4314 52.0213L34.435 52.0249Z" fill="white" stroke="white" stroke-width="0.305556" stroke-miterlimit="10"/>
<path d="M39.6938 53.2833V49.0256H40.4508L42.8743 52.3007V49.0256H43.4602V53.2833H42.8489L40.2797 49.8007V53.2833H39.6938Z" fill="white" stroke="white" stroke-width="0.305556" stroke-miterlimit="10"/>
<path d="M44.8323 53.2833V49.0256H45.4182V53.2833H44.8323Z" fill="white" stroke="white" stroke-width="0.305556" stroke-miterlimit="10"/>
<path d="M46.536 53.2833V52.7302L49.0942 49.5788H46.5978V49.0256H49.8329V49.5788L47.282 52.7302H49.8438V53.2833H46.536Z" fill="white" stroke="white" stroke-width="0.305556" stroke-miterlimit="10"/>
<path d="M50.9708 53.2833V49.0256H53.4563V49.5788H51.5603V50.7869H53.136V51.34H51.5603V52.7302H53.4563V53.2833H50.9708Z" fill="white" stroke="white" stroke-width="0.305556" stroke-miterlimit="10"/>
<path d="M54.6422 53.2833V49.0256H55.814C56.1379 49.0256 56.4436 49.0766 56.7201 49.1748C57.0003 49.2731 57.2405 49.415 57.4406 49.5933C57.6444 49.7753 57.8009 49.9973 57.9174 50.2665C58.0338 50.5358 58.0884 50.8306 58.0884 51.1581C58.0884 51.4856 58.0302 51.7767 57.9174 52.046C57.8046 52.3153 57.6444 52.5373 57.4406 52.7192C57.2369 52.8975 56.9967 53.0395 56.7165 53.1377C56.4363 53.236 56.1342 53.2869 55.8067 53.2869H54.6386L54.6422 53.2833ZM55.2281 52.7302H55.774C56.0214 52.7302 56.2471 52.701 56.4545 52.6392C56.6619 52.5773 56.8438 52.4863 57.0003 52.3626C57.1568 52.2389 57.2805 52.0751 57.3715 51.8713C57.4625 51.6676 57.5061 51.431 57.5061 51.1654C57.5061 50.8997 57.4588 50.6414 57.3642 50.4339C57.2696 50.2265 57.135 50.0591 56.9676 49.939C56.7965 49.8189 56.6073 49.728 56.3999 49.6697C56.1888 49.6115 55.9596 49.5824 55.7085 49.5824H55.2318V52.7338L55.2281 52.7302Z" fill="white" stroke="white" stroke-width="0.305556" stroke-miterlimit="10"/>
<path d="M16.9691 57.7932C16.9691 57.4948 17.0273 57.2073 17.1438 56.938C17.2602 56.6651 17.4167 56.4322 17.6132 56.2357C17.8097 56.0392 18.0463 55.8864 18.3192 55.7699C18.5921 55.6535 18.8832 55.5989 19.1926 55.5989C19.5019 55.5989 19.7966 55.6571 20.0659 55.7735C20.3388 55.89 20.579 56.0538 20.7828 56.2685L20.3643 56.6396C20.2115 56.4795 20.0332 56.3558 19.833 56.2685C19.6329 56.1811 19.4218 56.1374 19.1998 56.1374C18.9779 56.1374 18.7595 56.1848 18.5557 56.2757C18.3519 56.3667 18.1773 56.4868 18.0317 56.6396C17.8861 56.7925 17.7697 56.9671 17.686 57.1709C17.5987 57.3747 17.555 57.5858 17.555 57.8005C17.555 58.0152 17.5987 58.2335 17.686 58.4373C17.7733 58.6411 17.8898 58.8194 18.039 58.9686C18.1845 59.1178 18.3592 59.2343 18.5594 59.3252C18.7595 59.4126 18.9669 59.4599 19.1816 59.4599C19.3963 59.4599 19.6074 59.4162 19.8075 59.3289C20.0077 59.2415 20.1824 59.1251 20.3352 58.9759L20.7209 59.358C20.2843 59.7837 19.7712 59.9948 19.1853 59.9948C18.7886 59.9948 18.4211 59.9002 18.0827 59.7073C17.7442 59.5145 17.4749 59.2488 17.2712 58.9104C17.071 58.572 16.9691 58.2008 16.9691 57.7932Z" fill="white" stroke="white" stroke-width="0.305556" stroke-miterlimit="10"/>
<path d="M21.2305 59.9176V55.6599H23.716V56.213H21.82V57.4212H23.3957V57.9743H21.82V59.3644H23.716V59.9176H21.2305Z" fill="white" stroke="white" stroke-width="0.305556" stroke-miterlimit="10"/>
<path d="M24.3599 59.9176V55.6599H25.9247C26.3614 55.6599 26.7071 55.7582 26.9582 55.9547C27.2092 56.1512 27.333 56.4569 27.333 56.8644C27.333 57.1992 27.2456 57.4649 27.071 57.6614C26.8963 57.8579 26.6452 57.9816 26.3177 58.0289L27.4276 59.9139H26.7544L25.6736 58.0653H24.9421V59.9139H24.3563L24.3599 59.9176ZM24.9458 57.5158H25.9174C26.0448 57.5158 26.1576 57.5049 26.2522 57.4867C26.3468 57.4685 26.4341 57.4321 26.5106 57.3884C26.587 57.3448 26.6452 57.2756 26.6852 57.1919C26.7253 57.1046 26.7471 56.9991 26.7471 56.8753C26.7471 56.6497 26.678 56.4823 26.5397 56.3768C26.4014 56.2713 26.194 56.2167 25.9174 56.2167H24.9458V57.5158Z" fill="white" stroke="white" stroke-width="0.305556" stroke-miterlimit="10"/>
<path d="M27.5305 56.2169V55.6638H30.8384V56.2169H29.481V59.9215H28.8951V56.2169H27.5342H27.5305Z" fill="white" stroke="white" stroke-width="0.305556" stroke-miterlimit="10"/>
<path d="M31.2885 59.9176V55.6599H31.8744V59.9176H31.2885Z" fill="white" stroke="white" stroke-width="0.305556" stroke-miterlimit="10"/>
<path d="M32.7047 59.9176V55.6599H35.2047V56.213H33.2906V57.4212H34.8772V57.9743H33.2906V59.9176H32.7047Z" fill="white" stroke="white" stroke-width="0.305556" stroke-miterlimit="10"/>
<path d="M35.7253 59.9176V55.6599H36.3112V59.9176H35.7253Z" fill="white" stroke="white" stroke-width="0.305556" stroke-miterlimit="10"/>
<path d="M36.8393 57.7932C36.8393 57.4948 36.8975 57.2073 37.0139 56.938C37.1304 56.6651 37.2869 56.4322 37.4834 56.2357C37.6799 56.0392 37.9164 55.8864 38.1893 55.7699C38.4623 55.6535 38.7534 55.5989 39.0627 55.5989C39.372 55.5989 39.6668 55.6571 39.9361 55.7735C40.209 55.89 40.4492 56.0538 40.6529 56.2685L40.2345 56.6396C40.0816 56.4795 39.9033 56.3558 39.7032 56.2685C39.503 56.1811 39.292 56.1374 39.07 56.1374C38.848 56.1374 38.6297 56.1848 38.4259 56.2757C38.2221 56.3667 38.0474 56.4868 37.9019 56.6396C37.7563 56.7925 37.6398 56.9671 37.5562 57.1709C37.4688 57.3747 37.4251 57.5858 37.4251 57.8005C37.4251 58.0152 37.4688 58.2335 37.5562 58.4373C37.6435 58.6411 37.7599 58.8194 37.9091 58.9686C38.0547 59.1178 38.2294 59.2343 38.4295 59.3252C38.6297 59.4126 38.8371 59.4599 39.0518 59.4599C39.2665 59.4599 39.4775 59.4162 39.6777 59.3289C39.8778 59.2415 40.0525 59.1251 40.2054 58.9759L40.5911 59.358C40.1544 59.7837 39.6413 59.9948 39.0554 59.9948C38.6588 59.9948 38.2912 59.9002 37.9528 59.7073C37.6144 59.5145 37.3451 59.2488 37.1413 58.9104C36.9412 58.572 36.8393 58.2008 36.8393 57.7932Z" fill="white" stroke="white" stroke-width="0.305556" stroke-miterlimit="10"/>
<path d="M40.7112 59.9176L42.3852 55.6599H43.0293L44.7032 59.9176H44.0591L43.6807 58.9241H41.7265L41.3444 59.9176H40.7112ZM41.934 58.371H43.466L42.7091 56.3732L41.9376 58.371H41.934Z" fill="white" stroke="white" stroke-width="0.305556" stroke-miterlimit="10"/>
<path d="M44.3275 56.2169V55.6638H47.6354V56.2169H46.278V59.9215H45.6921V56.2169H44.3312H44.3275Z" fill="white" stroke="white" stroke-width="0.305556" stroke-miterlimit="10"/>
<path d="M48.0825 59.9176V55.6599H48.6684V59.9176H48.0825Z" fill="white" stroke="white" stroke-width="0.305556" stroke-miterlimit="10"/>
<path d="M49.1961 57.7963C49.1961 57.4979 49.2544 57.2104 49.3672 56.9412C49.48 56.6682 49.6328 56.4353 49.8293 56.2388C50.0258 56.0423 50.2587 55.8858 50.5353 55.7694C50.8119 55.6529 51.1066 55.5947 51.4159 55.5947C51.7253 55.5947 52.0127 55.653 52.2893 55.7658C52.5622 55.8822 52.7988 56.035 52.9989 56.2316C53.1991 56.4281 53.3519 56.661 53.4683 56.9302C53.5848 57.2032 53.643 57.487 53.643 57.7927C53.643 58.0984 53.5848 58.3822 53.4683 58.6551C53.3519 58.9281 53.1954 59.1646 52.9953 59.3575C52.7951 59.5503 52.5622 59.7068 52.2857 59.8233C52.0091 59.9397 51.7216 59.9943 51.4196 59.9943C51.1175 59.9943 50.8301 59.9361 50.5571 59.8233C50.2842 59.7104 50.0477 59.5576 49.8475 59.3611C49.6474 59.1646 49.4909 58.9317 49.3708 58.6588C49.2544 58.3858 49.1925 58.0984 49.1925 57.7927L49.1961 57.7963ZM49.782 57.8C49.782 58.102 49.8548 58.3822 50.0004 58.6333C50.1459 58.8844 50.3424 59.0882 50.5935 59.2337C50.8446 59.3793 51.1212 59.4521 51.4196 59.4521C51.718 59.4521 51.9945 59.3793 52.2456 59.2301C52.4967 59.0809 52.6932 58.8808 52.8352 58.626C52.9771 58.3713 53.0499 58.0947 53.0499 57.7891C53.0499 57.4834 52.9771 57.2104 52.8352 56.9557C52.6932 56.701 52.4967 56.4972 52.2456 56.348C51.9945 56.1988 51.7143 56.1224 51.4123 56.1224C51.1103 56.1224 50.8301 56.1988 50.579 56.3516C50.3279 56.5045 50.1314 56.7083 49.9931 56.963C49.8512 57.2177 49.782 57.4943 49.782 57.7963V57.8Z" fill="white" stroke="white" stroke-width="0.305556" stroke-miterlimit="10"/>
<path d="M54.1674 59.9176V55.6599H54.9244L57.3479 58.935V55.6599H57.9338V59.9176H57.3225L54.7533 56.435V59.9176H54.1674Z" fill="white" stroke="white" stroke-width="0.305556" stroke-miterlimit="10"/>
</g>
<defs>
<clipPath id="clip0_487_34715">
<rect width="73.3334" height="73.3334" fill="white" transform="translate(0.888733 0.667236)"/>
</clipPath>
</defs>
</svg>
