<svg width="74" height="132" viewBox="0 0 74 132" fill="none" xmlns="http://www.w3.org/2000/svg">
<g clip-path="url(#clip0_487_34677)">
<path d="M73.3334 73.5361H0V0H73.3334V73.5361Z" fill="#005B79"/>
<path d="M73.3336 109.999H0.000183105V104.184H73.3336V109.999Z" fill="#005B79"/>
<path d="M56.3953 36.421C56.3953 47.6168 47.3424 56.6969 36.1755 56.6969C25.0087 56.6969 15.9558 47.6168 15.9558 36.421C15.9558 25.2252 25.0118 16.145 36.1755 16.145C47.3393 16.145 56.3953 25.2252 56.3953 36.421Z" fill="white"/>
<path d="M37.2693 20.752H35.5735L33.0005 51.8332L34.596 52.0911L35.5038 40.2254H38.3391L40.0749 51.6935L41.5176 51.2465L37.2714 20.752H37.2693ZM35.7241 38.717L36.6074 27.85L38.171 38.717H35.7241Z" fill="#005B79"/>
<path d="M21.6948 44.6341C22.1836 45.4006 22.7267 45.9955 23.3312 46.6706L23.3558 26.0669C22.7492 26.7379 22.2031 27.3944 21.7071 28.1569L21.6948 44.6341Z" fill="#005B79"/>
<path d="M29.5113 22.1441C29.5113 22.1441 27.753 22.9702 25.8225 24.943V48.3169C26.3164 48.7403 26.8328 49.1431 27.38 49.5068V40.2078H28.8975L30.286 51.046C30.8085 51.2597 31.3557 51.4447 31.9039 51.6029L30.5483 40.1636C30.5483 40.1636 32.0002 40.1143 32.1109 38.5956L32.1273 23.895C32.1273 23.895 31.8127 21.6406 29.5103 22.1461L29.5113 22.1441ZM30.4643 38.2154C30.2644 38.8042 27.4015 38.5484 27.4015 38.5484V25.4517C27.4015 25.4517 28.7633 24.4283 29.5574 23.8909C30.5513 23.2137 30.4653 25.09 30.4653 25.09C30.4653 25.09 30.8526 37.0451 30.4653 38.2154H30.4643Z" fill="#005B79"/>
<path d="M49.6233 28.787L49.1161 27.7451L46.6159 36.2673L44.002 23.0247L42.8851 22.1575V50.7378C43.4507 50.483 43.8493 50.1953 44.3749 49.8695V32.7511L46.5062 41.8375L49.2329 32.9741L49.2349 45.0269C49.7924 44.1535 50.278 43.2338 50.6582 42.2546V30.8852C50.3733 30.1526 50.0147 29.458 49.6233 28.786V28.787Z" fill="#005B79"/>
<path d="M16.3777 17.6448C24.157 9.83981 35.5072 7.88754 45.1206 11.5886C42.4637 10.7656 39.5966 10.3515 36.8403 10.4553C30.0888 10.2518 23.3331 12.7138 18.22 17.8503C8.30023 27.811 8.30228 44.0334 18.22 53.9983C28.145 63.9569 44.1964 63.8542 54.1193 53.8914C58.8256 49.1659 61.3842 42.9062 61.5881 36.7463C61.8924 33.561 61.4835 30.4826 60.6679 27.6035L60.7704 27.5028C64.1426 37.0525 61.9979 48.2442 54.4246 55.8447C43.9945 66.3223 26.9164 66.4189 16.3828 55.8447C5.94862 45.3692 5.94657 28.1162 16.3777 17.6438V17.6448Z" fill="white"/>
<path d="M8.39247 82.5283C7.94982 82.3557 7.44056 82.2488 6.9231 82.2488C5.83081 82.2488 5.04284 82.9403 5.04284 84.1836C5.04284 85.3611 5.68325 86.0527 6.80834 86.0527C7.07168 86.0527 7.3012 86.0198 7.51536 85.954V84.0182H8.58306V86.6702C8.03282 86.8921 7.35141 87.0165 6.6864 87.0165C4.9291 87.0165 3.88599 85.9787 3.88599 84.2823C3.88599 82.5858 5.06845 81.2932 6.9897 81.2932C7.53995 81.2932 8.082 81.3919 8.55847 81.5316L8.39452 82.5283H8.39247Z" fill="#121212"/>
<path d="M9.70636 86.9343V81.3755H12.7199V82.2735H10.7741V83.6401H12.6215V84.5135H10.7741V86.0209H12.7199V86.9343H9.70636Z" fill="#121212"/>
<path d="M14.7815 87.0258C14.3871 87.0258 13.9926 86.9847 13.6483 86.8943L13.7138 85.8976C14.0264 86.0045 14.469 86.0949 14.8717 86.0949C15.4138 86.0949 15.8329 85.873 15.8329 85.3623C15.8329 84.3009 13.5089 84.7858 13.5089 82.9579C13.5089 81.9694 14.2887 81.2861 15.6197 81.2861C15.9323 81.2861 16.2929 81.3272 16.6219 81.3858L16.5645 82.3249C16.253 82.2335 15.9077 82.176 15.5705 82.176C14.9547 82.176 14.6432 82.4565 14.6432 82.851C14.6432 83.8477 16.9754 83.4768 16.9754 85.2143C16.9754 86.2603 16.1454 87.0258 14.7826 87.0258H14.7815Z" fill="#121212"/>
<path d="M19.6672 82.29V86.9343H18.5995V82.29H17.1619V81.3755H21.1038V82.29H19.6672Z" fill="#121212"/>
<path d="M21.7206 86.9343V81.3755H22.7883V86.9343H21.7206Z" fill="#121212"/>
<path d="M27.7238 84.1601C27.7238 85.4938 26.9522 86.0538 26.2288 86.0538C25.2349 86.0538 24.7748 85.2883 24.7748 84.1108C24.7748 82.8593 25.4818 82.2499 26.2452 82.2499C27.1981 82.2499 27.7238 82.925 27.7238 84.1601ZM28.8653 84.0779C28.8653 82.176 27.8221 81.2861 26.3435 81.2861C24.865 81.2861 23.6333 82.3897 23.6333 84.2269C23.6333 85.948 24.4633 87.0269 26.155 87.0269C27.6582 87.0269 28.8653 85.9151 28.8653 84.0779Z" fill="#121212"/>
<path d="M32.9216 86.9343L31.2955 84.1261C31.0495 83.7059 30.86 83.2939 30.696 82.9322C30.7288 83.41 30.7452 84.2823 30.7452 84.9502V86.9343H29.7103V81.3755H31.0987L32.6429 84.0275C32.898 84.456 33.1194 84.9173 33.3243 85.3376C33.2833 84.7776 33.2669 83.7891 33.2669 83.1058V81.3755H34.3018V86.9343H32.9216Z" fill="#121212"/>
<path d="M7.61254 95.2619C7.61254 96.5802 6.85736 97.1731 5.81425 97.1731C5.60112 97.1731 5.37877 97.1556 5.23122 97.132V93.3846C5.40336 93.3682 5.63391 93.36 5.87983 93.36C7.14427 93.36 7.61254 94.0679 7.61254 95.2619ZM8.76222 95.1797C8.76222 93.2284 7.66992 92.4619 5.95361 92.4619C5.2722 92.4619 4.59797 92.4855 4.16351 92.503V98.0454C4.63179 98.0619 5.13285 98.0865 5.70769 98.0865C7.51418 98.0865 8.76222 97.0898 8.76222 95.1787V95.1797Z" fill="#121212"/>
<path d="M9.64194 98.054V92.4951H12.6565V93.3932H10.7096V94.7587H12.5571V95.6331H10.7096V97.1395H12.6565V98.054H9.64194Z" fill="#121212"/>
<path d="M15.4811 98.054V92.4951H16.5488V97.1148H18.3471V98.054H15.4811Z" fill="#121212"/>
<path d="M21.7845 96.0684H20.2404L20.7414 94.6514C20.848 94.3298 20.9382 94.0092 21.0038 93.7205H21.0119C21.0775 94.0339 21.1605 94.3062 21.2661 94.6103L21.7835 96.0684H21.7845ZM23.632 98.0525L21.6534 92.4937H20.4453L18.5077 98.0525H19.5836L19.9699 96.9161H22.0643L22.4506 98.0525H23.633H23.632Z" fill="#121212"/>
<path d="M28.3068 98.1273C26.3692 98.1273 25.7452 96.8347 25.7452 95.4517C25.7452 93.6884 26.6653 92.4534 28.521 92.4534C28.9155 92.4534 29.3336 92.5027 29.6953 92.6013L29.5805 93.5734C29.2188 93.4655 28.8417 93.409 28.4636 93.409C27.4287 93.409 26.9194 94.1909 26.9194 95.2698C26.9194 96.4812 27.4205 97.1553 28.5374 97.1553C28.8745 97.1553 29.3254 97.0566 29.6133 96.9251L29.7363 97.8807C29.3254 98.0297 28.8243 98.1283 28.3068 98.1283V98.1273Z" fill="#121212"/>
<path d="M33.3172 96.0684H31.7731L32.2741 94.6514C32.3807 94.3298 32.4709 94.0092 32.5364 93.7205H32.5457C32.6112 94.0339 32.6932 94.3062 32.8008 94.6103L33.3183 96.0684H33.3172ZM35.1647 98.0525L33.1861 92.4937H31.978L30.0403 98.0525H31.1162L31.5025 96.9161H33.597L33.9833 98.0525H35.1657H35.1647Z" fill="#121212"/>
<path d="M35.7477 98.054V92.4951H36.8154V97.1148H38.6137V98.054H35.7477Z" fill="#121212"/>
<path d="M39.2688 98.054V92.4951H40.3365V98.054H39.2688Z" fill="#121212"/>
<path d="M45.0904 95.2619C45.0904 96.5802 44.3352 97.1731 43.2921 97.1731C43.0789 97.1731 42.8566 97.1556 42.7101 97.132V93.3846C42.8822 93.3682 43.1117 93.36 43.3587 93.36C44.6231 93.36 45.0914 94.0679 45.0914 95.2619H45.0904ZM46.24 95.1797C46.24 93.2284 45.1477 92.4619 43.4314 92.4619C42.75 92.4619 42.0758 92.4855 41.6413 92.503V98.0454C42.1096 98.0619 42.6096 98.0865 43.1855 98.0865C44.992 98.0865 46.24 97.0898 46.24 95.1787V95.1797Z" fill="#121212"/>
<path d="M49.5731 96.0684H48.0289L48.53 94.6514C48.6365 94.3298 48.7267 94.0092 48.7923 93.7205H48.8005C48.8661 94.0339 48.948 94.3062 49.0556 94.6103L49.5731 96.0684ZM51.4206 98.0525L49.4419 92.4937H48.2349L46.2962 98.0525H47.3731L47.7594 96.9161H49.8538L50.2402 98.0525H51.4216H51.4206Z" fill="#121212"/>
<path d="M55.4536 95.2619C55.4536 96.5802 54.6984 97.1731 53.6553 97.1731C53.4422 97.1731 53.2198 97.1556 53.0723 97.132V93.3846C53.2444 93.3682 53.4739 93.36 53.7209 93.36C54.9853 93.36 55.4536 94.0679 55.4536 95.2619ZM56.6033 95.1797C56.6033 93.2284 55.511 92.4619 53.7946 92.4619C53.1132 92.4619 52.439 92.4855 52.0045 92.503V98.0454C52.4728 98.0619 52.9729 98.0865 53.5487 98.0865C55.3552 98.0865 56.6033 97.0898 56.6033 95.1787V95.1797Z" fill="#121212"/>
<path d="M0.977208 114.979H2.54597C2.80214 114.979 3.01732 115.006 3.22533 115.113C3.43334 115.221 3.60753 115.461 3.60753 115.762C3.60753 116.063 3.43436 116.338 3.17717 116.445C2.90666 116.558 2.6843 116.558 2.38613 116.558H0.977208V114.978V114.979ZM0.318346 119.241H0.977208V117.127H1.73341C2.28161 117.127 2.51011 117.173 3.21816 118.251L3.87087 119.241H4.69675L3.82988 117.937C3.44153 117.354 3.14233 117.18 2.89334 117.067V117.053C3.73971 116.946 4.28791 116.531 4.28791 115.762C4.28791 115.261 4.0174 114.765 3.51121 114.579C3.18537 114.457 2.86567 114.451 2.51831 114.451H0.317322V119.242L0.318346 119.241Z" fill="#121212"/>
<path d="M5.4122 114.451H6.07106V119.242H5.4122V114.451Z" fill="#121212"/>
<path d="M6.92551 117.214H8.79245V117.803H6.92551V117.214Z" fill="#121212"/>
<path d="M11.9012 116.023C11.9012 116.586 11.5815 117.101 10.9298 117.101C10.3888 117.101 9.93692 116.7 9.93692 116.07C9.93692 115.441 10.3601 114.913 10.9431 114.913C11.5262 114.913 11.9002 115.415 11.9002 116.023H11.9012ZM9.40307 118.132C9.5496 119.269 10.5271 119.322 10.7976 119.322C12.5744 119.322 12.5744 117.275 12.5744 116.745C12.5744 115.735 12.3664 115.307 12.1164 115.006C11.811 114.631 11.3602 114.429 10.8745 114.429C9.95844 114.429 9.3129 115.098 9.3129 116.049C9.3129 117.047 10.0209 117.616 10.7843 117.616C11.3807 117.616 11.7905 117.254 11.9576 116.986H11.9719C11.9791 117.447 11.8889 118.84 10.813 118.84C10.1326 118.84 10.022 118.27 9.98713 118.082L9.40409 118.13L9.40307 118.132Z" fill="#121212"/>
<path d="M13.8089 116.88C13.8089 115.931 13.9472 114.914 14.7946 114.914C15.7035 114.914 15.7947 116.044 15.7947 116.88C15.7947 117.717 15.7045 118.842 14.8018 118.842C13.899 118.842 13.8089 117.677 13.8089 116.88ZM13.1848 116.88C13.1848 117.449 13.192 119.324 14.8018 119.324C16.4115 119.324 16.4187 117.396 16.4187 116.88C16.4187 116.364 16.4187 114.432 14.8018 114.432C13.1848 114.432 13.1848 116.365 13.1848 116.88Z" fill="#121212"/>
<path d="M17.6689 116.88C17.6689 115.931 17.8073 114.914 18.6547 114.914C19.5636 114.914 19.6537 116.044 19.6537 116.88C19.6537 117.717 19.5636 118.842 18.6618 118.842C17.7601 118.842 17.6689 117.677 17.6689 116.88ZM17.0449 116.88C17.0449 117.449 17.0521 119.324 18.6618 119.324C20.2716 119.324 20.2788 117.396 20.2788 116.88C20.2788 116.364 20.2788 114.432 18.6618 114.432C17.0449 114.432 17.0449 116.365 17.0449 116.88Z" fill="#121212"/>
<path d="M21.5261 116.88C21.5261 115.931 21.6644 114.914 22.5118 114.914C23.4217 114.914 23.5119 116.044 23.5119 116.88C23.5119 117.717 23.4217 118.842 22.519 118.842C21.6162 118.842 21.5271 117.677 21.5271 116.88H21.5261ZM20.902 116.88C20.902 117.449 20.9092 119.324 22.519 119.324C24.1287 119.324 24.1359 117.396 24.1359 116.88C24.1359 116.364 24.1359 114.432 22.519 114.432C20.902 114.432 20.902 116.365 20.902 116.88Z" fill="#121212"/>
<path d="M24.6689 117.214H26.5359V117.803H24.6689V117.214Z" fill="#121212"/>
<path d="M27.8607 118.965L28.4175 118.913C28.4647 119.175 28.5548 119.365 28.6878 119.483C28.8209 119.601 28.9914 119.66 29.1995 119.66C29.3776 119.66 29.5332 119.619 29.6662 119.538C29.8013 119.456 29.9118 119.348 29.9977 119.213C30.0835 119.075 30.1554 118.891 30.2133 118.659C30.2712 118.427 30.3002 118.191 30.3002 117.951C30.3002 117.925 30.2991 117.887 30.297 117.835C30.1811 118.02 30.0223 118.17 29.8207 118.286C29.6211 118.4 29.4044 118.456 29.1706 118.456C28.7801 118.456 28.4497 118.315 28.1794 118.032C27.909 117.748 27.7739 117.375 27.7739 116.912C27.7739 116.433 27.9144 116.048 28.1954 115.756C28.4786 115.465 28.8327 115.319 29.2575 115.319C29.5643 115.319 29.8443 115.401 30.0974 115.566C30.3527 115.732 30.5458 115.968 30.6767 116.274C30.8097 116.579 30.8762 117.021 30.8762 117.6C30.8762 118.203 30.8108 118.684 30.6799 119.042C30.549 119.398 30.3538 119.67 30.0942 119.856C29.8367 120.043 29.5342 120.136 29.1867 120.136C28.8176 120.136 28.5162 120.034 28.2823 119.831C28.0485 119.625 27.9079 119.336 27.8607 118.965ZM30.2326 116.883C30.2326 116.55 30.1436 116.286 29.9655 116.091C29.7895 115.896 29.5771 115.798 29.3283 115.798C29.0708 115.798 28.8466 115.903 28.6557 116.114C28.4647 116.324 28.3692 116.596 28.3692 116.931C28.3692 117.231 28.4593 117.476 28.6396 117.665C28.8219 117.851 29.0461 117.945 29.3122 117.945C29.5804 117.945 29.8003 117.851 29.9719 117.665C30.1457 117.476 30.2326 117.215 30.2326 116.883ZM32.4 117.497C32.1597 117.409 31.9816 117.284 31.8658 117.121C31.7499 116.958 31.692 116.763 31.692 116.535C31.692 116.192 31.8154 115.903 32.0621 115.669C32.3088 115.436 32.6371 115.319 33.0469 115.319C33.4588 115.319 33.7903 115.439 34.0413 115.679C34.2923 115.917 34.4178 116.208 34.4178 116.551C34.4178 116.77 34.3599 116.961 34.2441 117.124C34.1303 117.285 33.9566 117.409 33.7227 117.497C34.0123 117.592 34.2323 117.744 34.3824 117.954C34.5348 118.165 34.6109 118.416 34.6109 118.707C34.6109 119.111 34.4683 119.45 34.1829 119.724C33.8976 119.999 33.5221 120.136 33.0565 120.136C32.591 120.136 32.2155 119.999 31.9301 119.724C31.6448 119.448 31.5021 119.103 31.5021 118.691C31.5021 118.385 31.5794 118.128 31.7338 117.922C31.8905 117.714 32.1125 117.573 32.4 117.497ZM32.2842 116.516C32.2842 116.739 32.356 116.921 32.4998 117.063C32.6435 117.205 32.8302 117.275 33.0597 117.275C33.2829 117.275 33.4652 117.206 33.6068 117.066C33.7506 116.925 33.8225 116.752 33.8225 116.548C33.8225 116.336 33.7485 116.158 33.6004 116.014C33.4545 115.868 33.2722 115.795 33.0533 115.795C32.8323 115.795 32.6489 115.866 32.503 116.007C32.3571 116.149 32.2842 116.318 32.2842 116.516ZM32.0975 118.695C32.0975 118.86 32.1361 119.02 32.2134 119.174C32.2927 119.329 32.4097 119.449 32.5641 119.535C32.7186 119.618 32.8849 119.66 33.063 119.66C33.3397 119.66 33.5682 119.571 33.7485 119.393C33.9287 119.215 34.0188 118.989 34.0188 118.714C34.0188 118.435 33.9255 118.204 33.7388 118.022C33.5543 117.84 33.3226 117.748 33.0437 117.748C32.7712 117.748 32.5448 117.839 32.3646 118.019C32.1865 118.199 32.0975 118.424 32.0975 118.695ZM35.2819 115.956V115.399H38.336V115.85C38.0356 116.169 37.7374 116.594 37.4413 117.124C37.1474 117.654 36.92 118.199 36.759 118.759C36.6432 119.154 36.5692 119.586 36.537 120.056H35.9416C35.9481 119.685 36.021 119.236 36.1605 118.711C36.2999 118.185 36.4994 117.679 36.759 117.192C37.0208 116.703 37.2986 116.291 37.5926 115.956H35.2819ZM38.978 117.729C38.978 117.171 39.0348 116.723 39.1485 116.384C39.2644 116.043 39.4349 115.78 39.6602 115.595C39.8876 115.411 40.173 115.319 40.5163 115.319C40.7694 115.319 40.9915 115.37 41.1825 115.473C41.3734 115.574 41.5311 115.721 41.6555 115.914C41.78 116.105 41.8776 116.339 41.9484 116.616C42.0192 116.89 42.0546 117.261 42.0546 117.729C42.0546 118.283 41.9977 118.73 41.884 119.071C41.7703 119.41 41.5998 119.673 41.3723 119.86C41.1471 120.044 40.8617 120.136 40.5163 120.136C40.0614 120.136 39.7042 119.973 39.4446 119.647C39.1335 119.255 38.978 118.615 38.978 117.729ZM39.5733 117.729C39.5733 118.504 39.6634 119.02 39.8437 119.277C40.026 119.532 40.2502 119.66 40.5163 119.66C40.7823 119.66 41.0054 119.531 41.1857 119.274C41.368 119.016 41.4592 118.501 41.4592 117.729C41.4592 116.952 41.368 116.436 41.1857 116.181C41.0054 115.926 40.7802 115.798 40.5098 115.798C40.2438 115.798 40.0314 115.911 39.8726 116.136C39.6731 116.424 39.5733 116.955 39.5733 117.729Z" fill="#121212"/>
<path d="M0.614571 130.445V125.729H1.23861V130.445H0.614571ZM2.41746 130.445V125.729H4.50831C4.92863 125.729 5.24815 125.772 5.46689 125.858C5.68562 125.941 5.86039 126.09 5.99121 126.305C6.12202 126.519 6.18742 126.756 6.18742 127.016C6.18742 127.35 6.07913 127.632 5.86254 127.862C5.64595 128.091 5.31141 128.237 4.85893 128.299C5.02405 128.379 5.14951 128.457 5.23528 128.534C5.41756 128.701 5.59019 128.91 5.75317 129.161L6.57343 130.445H5.78855L5.16452 129.464C4.98224 129.181 4.83213 128.964 4.71418 128.814C4.59623 128.664 4.49008 128.559 4.39573 128.499C4.30352 128.439 4.20916 128.397 4.11266 128.373C4.04189 128.358 3.92609 128.351 3.76526 128.351H3.0415V130.445H2.41746ZM3.0415 127.81H4.38286C4.66807 127.81 4.8911 127.781 5.05193 127.724C5.21277 127.663 5.335 127.569 5.41864 127.44C5.50227 127.31 5.54409 127.168 5.54409 127.016C5.54409 126.793 5.4626 126.609 5.29962 126.466C5.13878 126.322 4.88359 126.25 4.53405 126.25H3.0415V127.81ZM6.71651 130.445L8.5275 125.729H9.19979L11.1298 130.445H10.4189L9.86886 129.017H7.89703L7.37914 130.445H6.71651ZM8.07717 128.508H9.67586L9.18371 127.202C9.0336 126.806 8.92208 126.48 8.84917 126.225C8.78913 126.527 8.70442 126.827 8.59505 127.125L8.07717 128.508ZM11.675 130.445V125.729H12.6142L13.7304 129.068C13.8334 129.379 13.9084 129.612 13.9556 129.766C14.0092 129.595 14.0929 129.343 14.2065 129.01L15.3356 125.729H16.1751V130.445H15.5736V126.498L14.2033 130.445H13.6404L12.2765 126.43V130.445H11.675ZM16.9487 129.029V128.447H18.7275V129.029H16.9487ZM19.6136 130.445V125.729H20.2377V130.445H19.6136ZM21.1946 128.93L21.7832 128.878C21.8111 129.114 21.8754 129.308 21.9762 129.461C22.0792 129.611 22.2379 129.733 22.4523 129.827C22.6667 129.919 22.908 129.966 23.1761 129.966C23.4141 129.966 23.6243 129.93 23.8065 129.859C23.9888 129.789 24.1239 129.692 24.2118 129.57C24.3019 129.446 24.3469 129.31 24.3469 129.165C24.3469 129.017 24.304 128.888 24.2183 128.779C24.1325 128.667 23.991 128.574 23.7937 128.499C23.6671 128.449 23.3873 128.373 22.9541 128.27C22.5209 128.165 22.2175 128.067 22.0438 127.974C21.8186 127.856 21.6503 127.711 21.5388 127.537C21.4294 127.361 21.3747 127.165 21.3747 126.948C21.3747 126.71 21.4423 126.488 21.5774 126.282C21.7125 126.074 21.9098 125.917 22.1692 125.81C22.4287 125.702 22.7171 125.649 23.0345 125.649C23.3841 125.649 23.6918 125.706 23.9577 125.819C24.2258 125.931 24.4316 126.096 24.5753 126.315C24.719 126.533 24.7962 126.781 24.8069 127.058L24.2086 127.103C24.1765 126.805 24.0671 126.579 23.8805 126.427C23.6961 126.275 23.4227 126.199 23.0603 126.199C22.6828 126.199 22.4073 126.268 22.2336 126.408C22.062 126.545 21.9762 126.711 21.9762 126.906C21.9762 127.076 22.0374 127.215 22.1596 127.325C22.2797 127.434 22.5928 127.547 23.0989 127.662C23.6071 127.776 23.9556 127.876 24.1443 127.962C24.4188 128.088 24.6214 128.249 24.7522 128.444C24.883 128.637 24.9485 128.86 24.9485 129.113C24.9485 129.364 24.8766 129.601 24.7329 129.824C24.5893 130.045 24.3823 130.218 24.1121 130.342C23.8441 130.464 23.5417 130.525 23.205 130.525C22.7783 130.525 22.4201 130.463 22.1306 130.339C21.8433 130.214 21.617 130.028 21.4519 129.779C21.2889 129.528 21.2032 129.245 21.1946 128.93ZM25.677 128.148C25.677 127.365 25.8871 126.753 26.3074 126.311C26.7278 125.867 27.2703 125.646 27.9351 125.646C28.3704 125.646 28.7629 125.75 29.1124 125.958C29.4619 126.166 29.7279 126.456 29.9101 126.829C30.0946 127.2 30.1868 127.622 30.1868 128.093C30.1868 128.572 30.0903 128.999 29.8973 129.377C29.7043 129.754 29.4308 130.041 29.077 130.236C28.7232 130.429 28.3415 130.525 27.9319 130.525C27.488 130.525 27.0912 130.418 26.7417 130.204C26.3921 129.989 26.1273 129.696 25.9472 129.325C25.767 128.954 25.677 128.562 25.677 128.148ZM26.3203 128.158C26.3203 128.726 26.4726 129.174 26.7771 129.502C27.0837 129.828 27.4676 129.991 27.9287 129.991C28.3983 129.991 28.7843 129.826 29.0867 129.496C29.3912 129.166 29.5434 128.697 29.5434 128.09C29.5434 127.706 29.478 127.372 29.3472 127.087C29.2185 126.799 29.0288 126.577 28.7779 126.421C28.5291 126.262 28.2493 126.183 27.9383 126.183C27.4965 126.183 27.1159 126.335 26.7964 126.639C26.479 126.942 26.3203 127.448 26.3203 128.158ZM32.8115 129.354L33.368 129.303C33.4151 129.565 33.5052 129.754 33.6382 129.872C33.7711 129.99 33.9416 130.049 34.1496 130.049C34.3276 130.049 34.4831 130.008 34.616 129.927C34.7511 129.845 34.8616 129.737 34.9473 129.602C35.0331 129.465 35.105 129.28 35.1629 129.049C35.2208 128.817 35.2497 128.581 35.2497 128.341C35.2497 128.315 35.2486 128.277 35.2465 128.225C35.1307 128.41 34.972 128.56 34.7704 128.676C34.571 128.789 34.3544 128.846 34.1207 128.846C33.7304 128.846 33.4001 128.705 33.1299 128.422C32.8597 128.138 32.7246 127.765 32.7246 127.302C32.7246 126.824 32.8651 126.439 33.146 126.147C33.4291 125.856 33.7829 125.71 34.2075 125.71C34.5142 125.71 34.794 125.792 35.0471 125.958C35.3023 126.123 35.4953 126.359 35.6261 126.665C35.759 126.97 35.8255 127.411 35.8255 127.99C35.8255 128.593 35.7601 129.073 35.6293 129.432C35.4985 129.788 35.3033 130.059 35.0438 130.245C34.7865 130.432 34.4841 130.525 34.1367 130.525C33.7679 130.525 33.4666 130.423 33.2329 130.22C32.9991 130.014 32.8586 129.725 32.8115 129.354ZM35.1822 127.273C35.1822 126.941 35.0932 126.677 34.9152 126.482C34.7393 126.287 34.527 126.189 34.2783 126.189C34.0209 126.189 33.7968 126.294 33.606 126.504C33.4151 126.715 33.3197 126.987 33.3197 127.321C33.3197 127.622 33.4098 127.866 33.5899 128.055C33.7722 128.241 33.9963 128.335 34.2622 128.335C34.5302 128.335 34.7501 128.241 34.9216 128.055C35.0953 127.866 35.1822 127.606 35.1822 127.273ZM36.4575 128.119C36.4575 127.562 36.5143 127.113 36.628 126.775C36.7438 126.434 36.9143 126.171 37.1395 125.986C37.3668 125.802 37.652 125.71 37.9951 125.71C38.2481 125.71 38.4701 125.761 38.661 125.864C38.8518 125.965 39.0094 126.112 39.1338 126.305C39.2582 126.496 39.3558 126.73 39.4265 127.006C39.4973 127.281 39.5327 127.652 39.5327 128.119C39.5327 128.672 39.4758 129.12 39.3622 129.461C39.2485 129.799 39.0781 130.062 38.8507 130.249C38.6256 130.433 38.3404 130.525 37.9951 130.525C37.5405 130.525 37.1834 130.362 36.9239 130.036C36.613 129.644 36.4575 129.005 36.4575 128.119ZM37.0526 128.119C37.0526 128.893 37.1427 129.409 37.3228 129.666C37.5051 129.922 37.7292 130.049 37.9951 130.049C38.261 130.049 38.484 129.921 38.6642 129.663C38.8464 129.406 38.9376 128.891 38.9376 128.119C38.9376 127.343 38.8464 126.827 38.6642 126.572C38.484 126.317 38.2589 126.189 37.9887 126.189C37.7228 126.189 37.5105 126.302 37.3518 126.527C37.1523 126.814 37.0526 127.345 37.0526 128.119ZM40.1904 128.119C40.1904 127.562 40.2473 127.113 40.3609 126.775C40.4767 126.434 40.6472 126.171 40.8724 125.986C41.0997 125.802 41.3849 125.71 41.728 125.71C41.9811 125.71 42.203 125.761 42.3939 125.864C42.5847 125.965 42.7423 126.112 42.8667 126.305C42.9911 126.496 43.0887 126.73 43.1594 127.006C43.2302 127.281 43.2656 127.652 43.2656 128.119C43.2656 128.672 43.2088 129.12 43.0951 129.461C42.9814 129.799 42.811 130.062 42.5836 130.249C42.3585 130.433 42.0733 130.525 41.728 130.525C41.2734 130.525 40.9163 130.362 40.6568 130.036C40.3459 129.644 40.1904 129.005 40.1904 128.119ZM40.7855 128.119C40.7855 128.893 40.8756 129.409 41.0557 129.666C41.238 129.922 41.4621 130.049 41.728 130.049C41.9939 130.049 42.2169 129.921 42.3971 129.663C42.5794 129.406 42.6705 128.891 42.6705 128.119C42.6705 127.343 42.5794 126.827 42.3971 126.572C42.2169 126.317 41.9918 126.189 41.7216 126.189C41.4557 126.189 41.2434 126.302 41.0847 126.527C40.8852 126.814 40.7855 127.345 40.7855 128.119ZM46.1042 130.445H45.5252V126.755C45.3859 126.888 45.2025 127.021 44.9752 127.154C44.75 127.287 44.5474 127.387 44.3672 127.453V126.894C44.691 126.741 44.9741 126.557 45.2164 126.34C45.4588 126.124 45.6303 125.914 45.7311 125.71H46.1042V130.445ZM47.9779 127.688V127.029H48.6373V127.688H47.9779ZM47.9779 130.445V129.785H48.6373V130.445H47.9779ZM52.5986 129.888V130.445H49.4816C49.4774 130.305 49.4999 130.171 49.5492 130.043C49.6285 129.83 49.7551 129.621 49.9288 129.415C50.1046 129.21 50.3577 128.972 50.6879 128.701C51.2004 128.281 51.5468 127.949 51.7269 127.704C51.907 127.458 51.9971 127.225 51.9971 127.006C51.9971 126.777 51.9145 126.584 51.7494 126.427C51.5864 126.268 51.3731 126.189 51.1093 126.189C50.8305 126.189 50.6075 126.273 50.4402 126.44C50.273 126.607 50.1882 126.839 50.1861 127.135L49.591 127.074C49.6318 126.63 49.7851 126.292 50.051 126.06C50.3169 125.827 50.674 125.71 51.1222 125.71C51.5746 125.71 51.9328 125.835 52.1965 126.086C52.4603 126.337 52.5922 126.648 52.5922 127.019C52.5922 127.208 52.5536 127.393 52.4764 127.576C52.3992 127.758 52.2705 127.95 52.0904 128.151C51.9124 128.353 51.6154 128.63 51.1994 128.981C50.852 129.273 50.6289 129.471 50.5303 129.576C50.4316 129.679 50.3502 129.783 50.2858 129.888H52.5986ZM53.2885 128.119C53.2885 127.562 53.3454 127.113 53.459 126.775C53.5748 126.434 53.7453 126.171 53.9705 125.986C54.1978 125.802 54.483 125.71 54.8261 125.71C55.0792 125.71 55.3011 125.761 55.492 125.864C55.6828 125.965 55.8404 126.112 55.9648 126.305C56.0892 126.496 56.1868 126.73 56.2575 127.006C56.3283 127.281 56.3637 127.652 56.3637 128.119C56.3637 128.672 56.3069 129.12 56.1932 129.461C56.0796 129.799 55.9091 130.062 55.6818 130.249C55.4566 130.433 55.1714 130.525 54.8261 130.525C54.3715 130.525 54.0144 130.362 53.755 130.036C53.444 129.644 53.2885 129.005 53.2885 128.119ZM53.8836 128.119C53.8836 128.893 53.9737 129.409 54.1538 129.666C54.3361 129.922 54.5602 130.049 54.8261 130.049C55.092 130.049 55.3151 129.921 55.4952 129.663C55.6775 129.406 55.7686 128.891 55.7686 128.119C55.7686 127.343 55.6775 126.827 55.4952 126.572C55.3151 126.317 55.0899 126.189 54.8197 126.189C54.5538 126.189 54.3415 126.302 54.1828 126.527C53.9833 126.814 53.8836 127.345 53.8836 128.119ZM59.2024 130.445H58.6234V126.755C58.484 126.888 58.3006 127.021 58.0733 127.154C57.8481 127.287 57.6455 127.387 57.4653 127.453V126.894C57.7892 126.741 58.0722 126.557 58.3146 126.34C58.5569 126.124 58.7284 125.914 58.8292 125.71H59.2024V130.445ZM60.7543 129.21L61.3623 129.158C61.4073 129.454 61.5113 129.677 61.6743 129.827C61.8394 129.975 62.0378 130.049 62.2694 130.049C62.5482 130.049 62.7841 129.944 62.9771 129.734C63.1701 129.524 63.2666 129.245 63.2666 128.898C63.2666 128.567 63.1733 128.307 62.9867 128.116C62.8023 127.925 62.56 127.83 62.2598 127.83C62.0732 127.83 61.9049 127.873 61.7547 127.958C61.6046 128.042 61.4867 128.151 61.4009 128.286L60.8573 128.216L61.3141 125.793H63.659V126.347H61.7773L61.5231 127.614C61.8062 127.417 62.1032 127.318 62.4142 127.318C62.8259 127.318 63.1733 127.461 63.4564 127.746C63.7394 128.031 63.881 128.398 63.881 128.846C63.881 129.273 63.7566 129.642 63.5078 129.953C63.2055 130.334 62.7927 130.525 62.2694 130.525C61.8405 130.525 61.4899 130.405 61.2176 130.165C60.9474 129.925 60.7929 129.606 60.7543 129.21Z" fill="#121212"/>
</g>
<defs>
<clipPath id="clip0_487_34677">
<rect width="73.3334" height="132" fill="white"/>
</clipPath>
</defs>
</svg>
