<svg width="56" height="56" viewBox="0 0 56 56" fill="none" xmlns="http://www.w3.org/2000/svg">
<circle cx="28" cy="28" r="28" fill="#F7F7F7"/>
<path d="M28 55.5214C12.5865 55.5214 0 43.2896 0 28.2992C0 13.3087 12.5865 1.0769 28 1.0769C43.4135 1.0769 56 13.3087 56 28.2992C56 43.2896 43.4147 55.5214 28 55.5214ZM28 4.61332C14.4955 4.61332 3.5352 15.2189 3.5352 28.3004C3.5352 41.3818 14.4943 51.9874 28 51.9874C41.5057 51.9874 52.4648 41.3818 52.4648 28.3004C52.4648 15.2189 41.4338 4.6121 28 4.6121" fill="white"/>
<path d="M54.1617 28.2989C54.1617 42.5104 42.4248 53.7535 27.9293 53.7535C13.4337 53.7535 1.76758 42.5104 1.76758 28.2989C1.76758 14.0874 13.5057 2.84424 28 2.84424C42.4943 2.84424 54.1617 14.0862 54.1617 28.2989Z" fill="white"/>
<mask id="mask0_3726_119279" style="mask-type:luminance" maskUnits="userSpaceOnUse" x="2" y="2" width="53" height="52">
<path d="M27.9298 53.7536C37.5456 53.8243 46.4555 48.6629 51.122 40.2479C45.395 42.2276 39.3851 43.4296 33.3046 43.9245C17.6071 45.0557 7.7085 41.8741 3.04204 36.2884C6.43583 46.5405 16.3344 53.7536 27.9311 53.7536M2.89941 20.6629C8.41433 15.0772 19.727 12.6026 24.8896 11.8956C26.4451 11.6835 27.7177 11.542 28.2127 11.4713L30.1217 14.0874C25.1017 14.0874 5.72757 17.4105 6.43461 28.0161C7.00025 35.5814 17.5351 39.8943 30.4045 39.1166C38.7476 38.6217 43.6261 37.6318 47.9403 36.0763L51.1927 40.1772C53.1724 36.5006 54.1622 32.4704 54.1622 28.2989C54.1622 14.0874 42.4254 2.84424 27.9298 2.84424C16.193 2.84424 6.2225 10.2682 2.89941 20.6629Z" fill="white"/>
</mask>
<g mask="url(#mask0_3726_119279)">
<path d="M54.161 2.84424H2.89941V53.823H54.161V2.84424Z" fill="url(#paint0_radial_3726_119279)"/>
<path d="M34.8583 32.824C35.9188 32.824 39.949 29.1474 39.949 23.0669H38.1106C38.1106 28.0162 35.0704 30.7029 34.8583 30.7029C34.6462 30.7029 31.6059 28.0162 31.6059 23.0669H29.7676C29.7676 29.1474 33.7977 32.824 34.8583 32.824Z" fill="white"/>
<path d="M45.1825 23.1377C41.718 23.1377 40.0918 25.6123 40.0918 27.9456C40.0918 30.2788 41.718 32.612 45.1825 32.612C46.3845 32.6827 47.5864 32.2585 48.5056 31.4808V32.612H50.2732V27.9456C50.2732 25.2588 48.1521 23.1377 45.4653 23.1377H45.1825ZM45.1825 30.7737C42.7078 30.7737 42.0008 29.1475 42.0008 27.9456C42.0008 26.7436 42.7078 25.0467 45.1825 25.0467C47.445 25.0467 48.3642 26.6022 48.3642 27.9456C48.3642 29.2889 47.5157 30.7737 45.1825 30.7737Z" fill="white"/>
<path d="M29.5556 27.8041C29.4142 25.1173 27.2224 23.0669 24.5356 23.2083C21.8489 23.1376 19.5863 25.188 19.5156 27.8748V27.9455C19.5863 30.6322 21.8489 32.7533 24.5356 32.6826C26.4446 32.6826 28.2122 31.6221 29.1314 29.9252H27.2224C26.586 30.7029 25.6669 31.1272 24.6063 31.1272C23.1215 31.1272 21.7782 30.1373 21.3539 28.6525H29.4849C29.4849 28.5818 29.5556 28.0869 29.5556 27.8041ZM24.5356 24.7638C26.0204 24.6931 27.2931 25.683 27.6466 27.097H21.3539C21.7782 25.683 23.0508 24.6931 24.5356 24.7638Z" fill="white"/>
<path d="M21.071 30.2787H20.9296C19.8691 30.5615 18.8085 30.7736 17.748 30.7029C15.6268 30.7029 11.3139 30.0666 11.3139 27.592C11.3139 24.3396 18.3136 23.5618 18.3136 23.5618L17.253 22.0063C15.1319 22.1478 9.12207 23.6325 9.12207 27.6627C9.12207 28.5111 9.40489 29.3596 9.97052 29.9959C10.6069 30.7029 11.3846 31.1979 12.233 31.5514C14.0006 32.2584 15.9097 32.5412 17.8187 32.5412C19.3034 32.5412 20.8589 32.3291 22.273 31.9049C22.3437 31.8342 21.7074 30.2787 21.071 30.2787Z" fill="white"/>
</g>
<defs>
<radialGradient id="paint0_radial_3726_119279" cx="0" cy="0" r="1" gradientUnits="userSpaceOnUse" gradientTransform="translate(36.6242 16.8813) scale(37.4609)">
<stop stop-color="#009ADF"/>
<stop offset="0.21" stop-color="#008ECA"/>
<stop offset="0.45" stop-color="#15599F"/>
<stop offset="0.66" stop-color="#25317E"/>
<stop offset="0.77" stop-color="#2B2171"/>
<stop offset="1" stop-color="#2B2171"/>
</radialGradient>
</defs>
</svg>
