<svg width="56" height="56" viewBox="0 0 56 56" fill="none" xmlns="http://www.w3.org/2000/svg">
<circle cx="28" cy="28" r="26" fill="#F3FFD9"/>
<path fill-rule="evenodd" clip-rule="evenodd" d="M28.0169 41.2816C29.5537 41.2816 30.8004 41.667 30.8004 42.1408C30.8004 42.6146 29.5537 43 28.0169 43C26.4802 43 25.2335 42.6146 25.2335 42.1408C25.2335 41.667 26.4802 41.2816 28.0169 41.2816Z" fill="#3E4047"/>
<path fill-rule="evenodd" clip-rule="evenodd" d="M33.4499 18.0073L33.5083 18.0193C33.6973 18.2747 33.8702 18.543 34.0265 18.8223V18.8544L34.036 18.8685C34.062 18.9167 34.0885 18.9648 34.1132 19.013C34.7594 20.2694 35.0522 21.6981 34.9557 23.1275C34.8591 24.5569 34.3777 25.9261 33.5689 27.0709L35.0114 28.6086C36.0757 27.1989 36.7444 25.4971 36.9402 23.6997C37.1355 21.9023 36.8503 20.0825 36.1174 18.4504C35.3841 16.8184 34.2331 15.4406 32.7969 14.4762C31.3603 13.5118 29.6975 13 28 13C26.3025 13 24.6395 13.5118 23.2032 14.4762C21.7668 15.4406 20.6157 16.8184 19.8826 18.4504C19.1495 20.0825 18.8643 21.9023 19.06 23.6997C19.2558 25.4971 19.9244 27.1989 20.9887 28.6086L22.4312 27.0709C21.5321 25.8096 21.0349 24.275 21.0121 22.6911C20.9893 21.1072 21.4421 19.557 22.3045 18.2669C23.1669 16.9768 24.3936 16.0144 25.8055 15.5202C27.2174 15.026 28.7406 15.026 30.1525 15.52C30.7133 15.7036 31.2476 15.9691 31.7402 16.309C30.7236 16.4084 29.7406 16.7478 28.8625 17.3027C28.5794 17.2518 28.2927 17.2263 28.0056 17.2264C26.8856 17.2269 25.7977 17.6254 24.914 18.3588C24.0303 19.0922 23.4012 20.1188 23.1262 21.2761C22.8511 22.4334 22.9458 23.6554 23.3954 24.7489C23.845 25.8424 24.6237 26.7449 25.6084 27.3138C26.5931 27.8825 27.7276 28.0853 28.8324 27.8897C29.9373 27.6942 30.9495 27.1116 31.7088 26.2341C32.4682 25.3567 32.9317 24.2344 33.026 23.0447C33.1198 21.855 32.8391 20.6659 32.228 19.6654L32.1206 19.4887C31.1618 19.288 29.5932 20.5808 29.1638 21.5363C29.7759 20.7334 30.7702 19.9886 31.7344 20.4704C31.6091 21.3497 31.1067 22.0248 30.2279 22.4959C28.629 23.5197 28.3032 24.4532 27.9906 26.3241C27.5111 25.4614 27.2599 24.4763 27.2636 23.4735C27.2636 19.7939 30.4162 17.4171 33.4216 17.9912H33.4481L33.4499 18.0073Z" fill="#6C9807"/>
<path fill-rule="evenodd" clip-rule="evenodd" d="M23.5781 28.7853C24.4442 29.8482 25.2284 30.9841 25.9227 32.1819C26.6882 33.4948 27.3872 34.8504 28.0169 36.243C28.6397 34.8604 29.3312 33.5141 30.0884 32.21C30.789 31.0023 31.5799 29.857 32.4538 28.7853L33.7135 30.1283C32.9325 31.0981 32.2243 32.1318 31.5952 33.2197C30.5483 35.0356 29.6245 36.9287 28.8304 38.8847L28.0169 40.8259L27.2052 38.8847C26.4029 36.9225 25.4721 35.0228 24.4199 33.1996C23.7946 32.1216 23.0919 31.0968 22.3182 30.1343L23.5781 28.7853Z" fill="#3E4047"/>
</svg>
