<svg width="56" height="56" viewBox="0 0 56 56" fill="none" xmlns="http://www.w3.org/2000/svg">
<circle cx="28" cy="28" r="26" fill="#4D96F4"/>
<path fill-rule="evenodd" clip-rule="evenodd" d="M12.1188 27.8638C12.1188 28.659 12.483 28.7636 13.3183 28.7636C15.4815 28.7636 16.0384 26.9012 16.0384 25.3108C16.0384 22.9043 14.8175 21.9627 13.3826 21.9627C12.2903 21.9627 12.1188 22.151 12.1188 22.7369V27.8638ZM7 35.4809V34.6857C8.52067 34.623 8.69212 34.5182 8.69212 33.451V23.0299C8.69212 21.9627 8.52067 21.858 7 21.7952V21H13.6395C15.3744 21 16.7667 21.1674 17.816 21.7952C18.8655 22.423 19.6366 23.5739 19.6366 25.248C19.6366 26.7966 19.0583 27.9266 17.9875 28.6799C17.0022 29.3705 15.4172 29.7262 13.4039 29.7262H12.1188V33.451C12.1188 34.5182 12.2903 34.623 14.1751 34.7277V35.4809H7Z" fill="white"/>
<path fill-rule="evenodd" clip-rule="evenodd" d="M35.8441 24.8337V25.6544L35.2397 25.7192C34.8081 25.7625 34.7218 25.9352 34.8512 26.4103L36.4917 32.3499H36.5565L38.5638 24.8337H40.8302L43.0536 32.3499H43.1398C43.6795 30.3196 44.3919 27.5767 44.5861 26.4968C44.6509 26.0864 44.6078 25.8488 44.2191 25.784L43.291 25.6544V24.8337H47.7592V25.6544C46.6583 25.7409 46.5071 25.892 46.1834 26.7343C45.8597 27.5119 45.4063 28.8726 44.9531 30.3629L43.3989 35.4168H41.0246L38.866 28.7862H38.7797L36.8155 35.4168H34.4411L32.6278 29.6933C32.1962 28.3326 32.0667 27.9007 31.5919 26.5832C31.3328 25.8488 31.0953 25.7409 30.2319 25.6544V24.8337H35.8441Z" fill="white"/>
<path fill-rule="evenodd" clip-rule="evenodd" d="M45.5276 34.3754C45.5276 33.4803 46.2259 32.8338 47.2639 32.8338C48.3206 32.8338 49 33.4803 49 34.3754C48.9624 35.2872 48.3206 35.917 47.2639 35.917C46.2259 35.917 45.5276 35.2872 45.5276 34.3754Z" fill="white"/>
<path fill-rule="evenodd" clip-rule="evenodd" d="M25.2418 35.0081C26.6634 35.0081 27.2524 33.3478 27.2524 30.4584C27.2524 27.5691 26.6634 25.9089 25.2418 25.9089C23.7998 25.9089 23.2108 27.5691 23.2108 30.4584C23.2108 33.3478 23.7998 35.0081 25.2418 35.0081ZM30.4816 30.4584C30.4816 33.9085 28.9178 36 25.2418 36C21.5455 36 19.9817 33.9085 19.9817 30.4584C19.9817 27.0085 21.5455 24.9169 25.2418 24.9169C28.9178 24.9169 30.4816 27.0085 30.4816 30.4584Z" fill="white"/>
</svg>
