<svg width="56" height="56" viewBox="0 0 56 56" fill="none" xmlns="http://www.w3.org/2000/svg">
<circle cx="28" cy="28" r="26" fill="#B61989"/>
<g clip-path="url(#clip0_3726_116125)">
<path d="M31.2217 28.8525C31.1093 28.6891 31.1269 28.4706 31.2658 28.3293L33.2716 26.2916C33.8336 25.7154 33.4259 24.7441 32.6214 24.7441C32.3701 24.7441 32.1298 24.8478 31.9579 25.0333L28.4687 28.7421V23.0177C28.4687 22.457 28.0147 22 27.4526 22C26.8928 22 26.4365 22.4548 26.4365 23.0177V34.0007C26.4365 34.1155 26.5291 34.206 26.6415 34.206H28.2616C28.3762 34.206 28.4665 34.1132 28.4665 34.0007V31.3184C28.4665 31.2654 28.4864 31.2146 28.5238 31.1749L29.5995 30.049L32.4318 34.1177C32.4693 34.1728 32.5332 34.206 32.5993 34.206H34.5301C34.6955 34.206 34.7946 34.0183 34.6999 33.8836L31.2173 28.8525H31.2217Z" fill="white"/>
<path d="M15.5724 27.8369H13.9501C13.8369 27.8369 13.7451 27.9288 13.7451 28.0422V34.0028C13.7451 34.1162 13.8369 34.2081 13.9501 34.2081H15.5724C15.6856 34.2081 15.7773 34.1162 15.7773 34.0028V28.0422C15.7773 27.9288 15.6856 27.8369 15.5724 27.8369Z" fill="white"/>
<path d="M21.9153 24.7131C21.0601 24.7131 20.5113 25.0465 20.2777 25.2054C19.4533 25.7662 19.2153 27.6051 17.4497 27.8259C17.4123 27.8347 17.3726 27.8391 17.3329 27.8391C17.2205 27.8391 17.1279 27.9032 17.1279 28.0157V34.0028C17.1279 34.1176 17.2205 34.2081 17.3329 34.2081H18.953C19.0676 34.2081 19.1579 34.1154 19.1579 34.0028V28.8745C19.1579 28.157 19.3475 27.5985 19.7266 27.2011C20.1057 26.8015 20.4474 26.6029 21.0557 26.6029C21.6641 26.6029 22.2019 26.7971 22.5413 27.1835C22.8808 27.572 23.0505 28.1239 23.0505 28.8414V34.0028C23.0505 34.1176 23.143 34.2081 23.2555 34.2081H24.8755C24.9901 34.2081 25.0805 34.1154 25.0805 34.0028V28.2431C25.0805 27.1658 24.7984 26.307 24.2319 25.669C23.6654 25.031 22.9513 24.7131 21.9131 24.7131H21.9153Z" fill="white"/>
<path d="M43.0845 31.7799L42.0154 31.122C41.9251 31.0668 41.8082 31.0889 41.7443 31.1728C41.4732 31.5216 41.1889 31.8064 40.8869 32.0249C40.5431 32.2744 40.1155 32.4444 39.6019 32.5349C38.9296 32.6541 38.3213 32.557 37.7791 32.2479C37.314 31.9808 36.9569 31.5635 36.7123 30.994C36.7123 30.994 36.4852 30.4884 36.3971 29.9056C36.3486 29.5833 36.3354 29.3051 36.3398 29.08C36.3398 28.9563 36.3508 28.8371 36.364 28.7201C36.3794 28.57 36.3993 28.4861 36.3993 28.4861C36.4698 28.1152 36.6043 27.6494 36.8026 27.3492C37.1421 26.837 37.6292 26.5235 38.2684 26.4109C38.61 26.3513 38.9252 26.3602 39.2162 26.4374C39.5049 26.5169 39.7672 26.6427 39.9964 26.8193C40.2279 26.996 40.4262 27.2211 40.5916 27.4905C40.6952 27.6627 40.7855 27.9739 40.8605 28.1682L37.9113 28.6892C37.3691 28.7841 37.0473 29.3647 37.2479 29.8769C37.3978 30.2654 37.8033 30.4862 38.2133 30.4134L42.6855 29.623C43.0051 29.5656 43.2211 29.261 43.166 28.9409C43.166 28.9409 43.166 28.9409 43.166 28.9387C43.0514 28.2874 42.8508 27.5567 42.5665 27.0004C42.2799 26.444 41.9185 25.976 41.482 25.5941C41.0456 25.2122 40.532 24.9384 39.9457 24.7707C39.3572 24.6029 38.7048 24.583 37.9885 24.7111C37.3382 24.8259 36.7674 25.0532 36.2758 25.3932C35.7843 25.7332 35.3788 26.1526 35.0614 26.6494C34.744 27.1461 34.5258 27.8304 34.4111 28.4375C34.4111 28.4375 34.4111 28.4397 34.4111 28.4419V28.4375C34.2943 29.0468 34.2943 29.676 34.4089 30.3273L34.4155 30.3626C34.539 31.058 34.7704 31.6739 35.1098 32.2082V32.2037C35.1098 32.2037 35.1098 32.206 35.1098 32.2082C35.4515 32.7424 35.8659 33.1773 36.353 33.5151C36.8401 33.8528 37.3867 34.0846 37.9929 34.2149C38.5968 34.3429 39.225 34.3496 39.873 34.2348C40.704 34.0868 41.3939 33.8065 41.9361 33.3937C42.4254 33.0228 42.831 32.579 43.1572 32.0669C43.2189 31.9697 43.188 31.8417 43.0911 31.7799H43.0845Z" fill="white"/>
<path d="M12.2304 22.0927C12.1092 22.064 11.4237 22 11.0534 22C10.1629 22 9.56122 22.2428 9.0741 22.7307C8.57596 23.2296 8.3269 23.9891 8.3269 25.009V26.0974H7.87725C7.39234 26.0974 7 26.4726 7 26.9583C7 27.444 7.39234 27.837 7.87725 27.837H8.3291V34.0007C8.3291 34.1155 8.42167 34.206 8.53409 34.206H10.1541C10.2687 34.206 10.3591 34.1132 10.3591 34.0007V27.837H11.8866C12.3671 27.837 12.755 27.4484 12.755 26.9672C12.755 26.4859 12.3671 26.0974 11.8866 26.0974H10.3239V25.1812C10.3239 24.254 10.725 23.7904 11.5317 23.7904C11.761 23.7904 11.8205 23.8103 12.01 23.8522H12.0166C12.3208 23.9184 12.6051 23.6866 12.6051 23.3776V22.5629C12.6051 22.3378 12.4509 22.1413 12.2326 22.0905L12.2304 22.0927Z" fill="white"/>
<path d="M18.4063 25.2607C18.6923 24.5691 18.3644 23.7762 17.6738 23.4897C16.9833 23.2032 16.1916 23.5317 15.9056 24.2233C15.6196 24.9149 15.9475 25.7078 16.638 25.9943C17.3286 26.2808 18.1202 25.9524 18.4063 25.2607Z" fill="white"/>
<path d="M15.1244 24.742C15.1244 24.1856 15.3933 23.6955 15.8054 23.3865H15.1199C14.3727 23.3865 13.7666 23.9936 13.7666 24.742C13.7666 25.4903 14.3727 26.0974 15.1199 26.0974H15.8054C15.3933 25.7884 15.1244 25.2961 15.1244 24.742Z" fill="white"/>
<path d="M48.716 32.1065C48.3876 32.2323 48.0459 32.2942 47.6977 32.2942C47.3494 32.2942 47.0607 32.2036 46.8645 32.0248C46.6683 31.846 46.5691 31.5524 46.5691 31.1462V26.4969L48.1231 26.5036C48.6168 26.5036 49.0135 26.0951 49.0003 25.5984C48.9849 25.1172 48.5683 24.7463 48.0878 24.7463H46.5713V23.0177C46.5713 22.457 46.1173 22 45.5552 22C44.9954 22 44.5391 22.4548 44.5391 23.0177V24.7463H44.3165C43.8404 24.7463 43.426 25.1128 43.4106 25.5896C43.3952 26.0819 43.7875 26.4881 44.2768 26.4881H44.5391V31.4773C44.5391 31.9873 44.603 32.4134 44.7309 32.7556C44.8587 33.0977 45.0439 33.3737 45.2819 33.5812C45.5222 33.7887 45.8043 33.941 46.1305 34.0338C46.4567 34.1265 46.8116 34.1728 47.1951 34.1728C47.5786 34.1728 47.9357 34.1331 48.2377 34.0514C48.4978 33.9808 48.6565 33.8859 48.8901 33.7644C48.9584 33.7291 49.0003 33.6585 49.0003 33.5812V32.2986C49.0003 32.1529 48.8548 32.0557 48.7182 32.1065H48.716Z" fill="white"/>
</g>
<defs>
<clipPath id="clip0_3726_116125">
<rect width="42" height="12.3141" fill="white" transform="translate(7 22)"/>
</clipPath>
</defs>
</svg>
