<svg width="56" height="56" viewBox="0 0 56 56" fill="none" xmlns="http://www.w3.org/2000/svg">
<circle cx="28" cy="28" r="26" fill="#0030A6"/>
<path d="M34.3114 25.517L33.9226 25.5184C31.8656 25.5237 29.9323 27.0093 29.8494 29.9148C29.7732 32.5594 31.1709 34.4063 33.5338 34.4063C35.4779 34.4063 36.1591 33.0733 36.1591 33.0733C36.2733 33.962 36.76 34.239 37.7389 34.239V25.517H34.3114ZM36.0707 30.6549C36.0707 31.8621 35.3651 33.0091 33.841 33.0091C32.4733 33.0091 31.4917 32.1084 31.5583 29.9309C31.6182 27.8444 32.6365 26.9276 33.9879 26.9276C34.0925 26.9276 34.1918 26.925 34.2856 26.9183H36.0707V30.6549Z" fill="white"/>
<path d="M20.5444 25.4513L20.5512 31.506C20.5512 32.3853 19.8102 32.8323 18.8314 32.8323C17.8022 32.8323 17.1197 32.3853 17.1197 31.506L17.1142 26.9743C17.1102 25.6828 16.2876 25.4486 15.5671 25.4486V31.8767C15.5671 33.4974 17.0503 34.2951 18.7838 34.2951C20.5172 34.2951 22.1065 33.4974 22.1065 31.8767L22.1011 27.1684C22.1011 25.8996 21.6212 25.4499 20.5444 25.4499V25.4513Z" fill="white"/>
<path d="M24.3343 28.7864V34.18H25.8829V28.7342C25.8829 27.5779 26.511 26.8806 27.7074 26.8806H28.1669C29.5224 26.8806 29.7413 26.1927 29.7413 25.4473H27.5755C25.6531 25.4473 24.333 26.542 24.333 28.7851L24.3343 28.7864Z" fill="white"/>
<path d="M11.5708 29.3579L9.67289 28.8453C9.15354 28.7061 8.67905 28.4813 8.67905 27.8536C8.67905 27.2259 9.0774 26.882 9.92033 26.882H11.6048C12.3512 26.882 13.2377 26.6451 13.2377 25.4499L10.0672 25.4526C8.1162 25.4553 7 26.4243 7 27.8135C7 29.1077 7.83205 29.8411 9.32076 30.2279L10.9726 30.6561C11.6538 30.8368 11.8971 31.2557 11.8971 31.6893C11.8971 32.3411 11.4797 32.7346 10.4546 32.7466L7.2923 32.768V34.1787H10.5063C12.4586 34.1787 13.5762 33.1481 13.5762 31.787C13.5762 30.4259 13.0283 29.7487 11.5708 29.3566V29.3579Z" fill="white"/>
<path fill-rule="evenodd" clip-rule="evenodd" d="M44.775 35.8215C44.7905 35.8215 44.8015 35.8346 44.7971 35.8596C44.617 36.2817 44.4125 36.6004 44.0125 36.7984C43.313 37.1433 42.945 36.9464 42.8963 36.9224C42.8831 36.9159 42.872 36.8996 42.8731 36.8844C42.8753 36.8691 42.8875 36.855 42.9041 36.8539C43.2091 36.7614 44.1274 36.4264 44.754 35.8259C44.7584 35.8215 44.7684 35.8204 44.775 35.8215ZM44.859 34.5705C44.3761 34.8533 43.3859 35.2678 42.5206 35.5082C41.4917 35.7965 40.6651 35.9357 40.1104 35.8563C39.6263 35.7856 39.3832 35.5637 39.3103 35.481C39.3003 35.4691 39.2871 35.4582 39.2915 35.444C39.2937 35.4277 39.3092 35.4125 39.3291 35.4103L39.518 35.3973C39.9269 35.369 40.6651 35.3516 41.5249 35.2297C42.5195 35.0861 44.1141 34.8076 44.8457 34.5259C44.8612 34.5291 44.8722 34.5411 44.8579 34.5705H44.859ZM44.9319 34.9947C44.9452 34.9969 44.9573 35.0078 44.9518 35.0339C44.8126 35.2167 44.5805 35.4234 44.2799 35.6333C43.9826 35.8411 43.6334 36.0413 43.2698 36.2142C42.8842 36.3948 42.546 36.546 42.1913 36.6374C41.7945 36.7397 41.4475 36.7756 41.1602 36.7419C40.9292 36.7157 40.7381 36.6472 40.5922 36.533C40.5844 36.5254 40.5811 36.5134 40.5822 36.5036C40.5845 36.4862 40.5988 36.4742 40.6187 36.4688C41.5094 36.3274 42.3305 36.1109 43.0919 35.8531C43.8423 35.5985 44.4711 35.3037 44.933 34.9937L44.9319 34.9947ZM48.8606 31.4657C48.876 31.469 48.8849 31.481 48.876 31.5103C48.5213 31.804 46.8935 33.1378 46.0171 33.8449L45.9862 33.871C45.732 34.0592 45.5607 34.1038 45.5331 33.6893C45.5254 33.5892 45.5121 33.5076 45.5121 33.5076C45.4966 33.4206 45.5231 33.4228 45.5574 33.4021C45.8425 33.2291 46.3895 32.9289 46.825 32.6733C47.6007 32.2174 48.5091 31.6746 48.8595 31.4668L48.8606 31.4657ZM47.6626 33.2444C47.6792 33.2466 47.688 33.2596 47.6803 33.2857C47.3289 33.685 46.0304 35.0894 45.4436 35.7062C45.3828 35.7693 45.3508 35.7399 45.3751 35.6779C45.3751 35.6779 45.4867 35.4038 45.5342 35.1917C45.564 35.0622 45.595 34.9588 45.6657 34.9001C46.4282 34.2691 47.1587 33.6425 47.6416 33.252L47.6626 33.2444ZM49.2672 30.7728C49.2783 30.7706 49.2982 30.7684 49.3004 30.7793C49.3026 30.7858 49.3181 30.8 49.2927 30.8163C49.1269 30.9218 45.4911 32.3991 45.4557 32.4122C45.2557 32.4796 45.0336 32.5144 44.8711 32.2435C44.8037 32.1304 44.7441 32.039 44.7175 31.9966C44.7065 31.9792 44.6667 31.9368 44.7728 31.9107C44.7728 31.9107 45.7983 31.6398 46.7089 31.4135C47.7621 31.1535 48.9523 30.8565 49.2661 30.7728H49.2672ZM49.6496 30.2604C49.664 30.2615 49.675 30.2756 49.6739 30.2887C49.6739 30.2984 49.664 30.3082 49.6518 30.3093C49.3755 30.3518 44.3197 31.0317 44.2832 31.0371C44.2556 31.0415 44.2247 31.0436 44.1937 31.0447C44.1672 31.0447 44.1374 31.0447 44.1097 31.0404C43.8688 31.0153 43.6356 30.9 43.4257 30.6814C43.3174 30.5693 43.2223 30.3909 43.1958 30.3191C43.1892 30.3093 43.1892 30.2963 43.1969 30.2865C43.2046 30.2734 43.219 30.268 43.2301 30.2658C43.2301 30.2658 44.9286 30.2625 45.9972 30.2647C46.794 30.2658 47.6449 30.2669 48.3367 30.2669C48.9379 30.2669 49.4153 30.2669 49.6507 30.2615L49.6496 30.2604ZM49.9778 29.8198C49.9911 29.822 50.001 29.8328 49.9999 29.847C49.9999 29.859 49.9867 29.8666 49.9701 29.8666C49.2297 29.8133 42.5792 29.3553 42.5792 29.3553C42.5173 29.3498 42.4675 29.3444 42.4079 29.3259C41.8807 29.1605 41.5735 28.7613 41.4509 28.3588C41.4464 28.3425 41.4431 28.3283 41.4509 28.3142C41.4586 28.3022 41.4763 28.2935 41.4917 28.2979C41.4917 28.2979 49.3313 29.7012 49.9767 29.8198H49.9778ZM48.6009 28.5492C48.6075 28.5807 48.5931 28.5905 48.5677 28.5862C48.2815 28.4415 47.6372 28.139 46.9907 27.8214C46.4426 27.5527 42.6952 25.8143 42.441 25.6848L41.9935 25.4586C41.9272 25.4259 41.8675 25.3889 41.8078 25.353C41.6299 25.2475 41.5393 25.1703 41.442 25.0495C41.3624 24.9516 41.3017 24.8265 41.2519 24.709C41.1458 24.4436 41.1503 24.0955 41.1569 24.0324C41.1569 24.0237 41.1624 24.0106 41.1757 24.0052C41.1856 23.9986 41.1978 23.9976 41.2232 24.0063L41.9404 24.4381L43.3118 25.2627C45.2259 26.4376 47.9046 28.1151 48.602 28.547L48.6009 28.5492ZM49.4142 29.3085C49.4264 29.3128 49.433 29.3237 49.4319 29.3335C49.4286 29.3466 49.4175 29.3574 49.3954 29.3542C49.1855 29.2944 48.7412 29.1725 48.1798 29.0213C46.8946 28.6743 42.0388 27.3939 41.9581 27.371L41.936 27.3634C41.6442 27.2742 41.4055 27.1317 41.2221 26.9359C41.1668 26.8804 41.1193 26.8184 41.074 26.7498C40.9116 26.5051 40.8718 26.1483 40.8629 26.083C40.8629 26.0754 40.8663 26.0623 40.8751 26.0536C40.8839 26.0438 40.8983 26.0406 40.9237 26.046L41.7172 26.3517C43.6014 27.0718 48.6009 28.9843 49.4142 29.3107V29.3085Z" fill="#00ABC3"/>
</svg>
