<svg width="56" height="56" viewBox="0 0 56 56" fill="none" xmlns="http://www.w3.org/2000/svg">
<circle cx="28" cy="28" r="28" fill="white"/>
<g clip-path="url(#clip0_3780_117341)">
<path d="M29.6311 44.0215H23.5342V47.9145H29.6311V44.0215Z" fill="#8C878F"/>
<path d="M29.6311 7.78613H23.5342V11.6792H29.6311V7.78613Z" fill="#8C878F"/>
<path d="M25.8479 0.398017C25.479 0.0865733 24.9882 -0.0541754 24.5035 0.0176962C18.3761 0.928071 12.8218 3.68315 8.43816 7.98946C4.05449 12.2958 1.25297 17.749 0.326239 23.7683C-2.0485 39.1967 8.79788 53.6489 24.5035 55.9788C24.5858 55.9907 24.6711 55.9967 24.7535 55.9967C25.1528 55.9967 25.54 55.856 25.8479 55.5984C26.2167 55.287 26.4301 54.8288 26.4301 54.3497V1.64679C26.4301 1.16764 26.2167 0.712456 25.8479 0.398017ZM10.8281 43.7187C5.8104 38.0348 3.57589 30.1259 5.53604 22.2799C6.37436 18.9259 7.91078 15.8654 9.98677 13.2481L11.761 14.991C9.75814 17.5454 8.32537 20.5131 7.5724 23.7353C7.45961 24.2235 7.5785 24.7386 7.89554 25.1309C8.21258 25.5232 8.69728 25.7507 9.20637 25.7507H23.0768V30.2427H9.20637C8.69728 30.2427 8.21258 30.4703 7.89554 30.8626C7.5785 31.2549 7.45961 31.767 7.5724 32.2581C8.42292 35.9056 10.1514 39.2267 12.5871 41.9878L10.8281 43.7157V43.7187ZM23.0799 51.1813C19.5132 50.271 16.3306 48.6239 13.6602 46.4438L15.4313 44.7039C16.0715 45.216 16.7391 45.7011 17.4372 46.1503C17.9524 46.4797 18.6108 46.5067 19.1504 46.2192C19.69 45.9317 20.0284 45.3747 20.0284 44.7698V35.6361H16.6751V41.4128C14.2881 39.2596 12.4895 36.5644 11.4287 33.5398H23.0768V51.1813H23.0799ZM23.0799 22.4596H11.4317C12.4956 19.435 14.2942 16.7428 16.6781 14.5867V20.3634H20.0314V11.2297C20.0314 10.6248 19.693 10.0707 19.1535 9.78026C18.6139 9.48978 17.9554 9.51973 17.4402 9.84914C16.3733 10.5319 15.3795 11.2986 14.4527 12.1281L12.6755 10.3822C15.5685 7.76187 19.1199 5.82732 23.0799 4.81513V22.4566V22.4596Z" fill="#009BDA"/>
<path d="M30.1526 55.6017C30.5214 55.9132 31.0122 56.0539 31.4969 55.982C37.6243 55.0717 43.1786 52.3166 47.5623 48.0103C51.9459 43.704 54.7505 38.2477 55.6772 32.2284C58.0489 16.8 47.2025 2.3508 31.4969 0.0179679C31.4146 0.0059893 31.3293 0 31.247 0C30.8476 0 30.4605 0.140749 30.1526 0.398289C29.7837 0.709733 29.5703 1.16791 29.5703 1.64706V54.3529C29.5703 54.8321 29.7837 55.2873 30.1526 55.6017ZM45.1723 12.2811C50.19 17.9649 52.4245 25.8738 50.4644 33.7198C49.6261 37.0738 48.0896 40.1343 46.0136 42.7517L44.2394 41.0088C46.2423 38.4543 47.6751 35.4866 48.428 32.2644C48.5408 31.7763 48.4219 31.2612 48.1049 30.8689C47.7878 30.4766 47.3031 30.249 46.794 30.249H32.9236V25.757H46.794C47.3031 25.757 47.7878 25.5294 48.1049 25.1371C48.4219 24.7448 48.5408 24.2327 48.428 23.7416C47.5775 20.0941 45.849 16.773 43.4133 14.012L45.1723 12.2841V12.2811ZM32.9206 4.8184C36.4872 5.72877 39.6698 7.37583 42.3403 9.55594L40.5691 11.2958C39.9289 10.7837 39.2613 10.2986 38.5632 9.84941C38.048 9.52 37.3896 9.49305 36.85 9.78053C36.3104 10.068 35.9721 10.625 35.9721 11.2299V20.3636H39.3253V14.587C41.7123 16.7401 43.5109 19.4353 44.5717 22.4599H32.9236V4.8184H32.9206ZM32.9206 33.5401H44.5687C43.5048 36.5647 41.7062 39.2569 39.3223 41.413V35.6364H35.969V44.7701C35.969 45.375 36.3074 45.929 36.847 46.2195C37.3865 46.5099 38.045 46.48 38.5602 46.1506C39.6271 45.4678 40.6209 44.7012 41.5477 43.8717L43.3249 45.6175C40.4319 48.2379 36.8805 50.1724 32.9206 51.1846V33.5431V33.5401Z" fill="#FA1313"/>
</g>
<defs>
<clipPath id="clip0_3780_117341">
<rect width="56" height="56" fill="white"/>
</clipPath>
</defs>
</svg>
