<svg width="300" height="300" viewBox="0 0 300 300" fill="none" xmlns="http://www.w3.org/2000/svg">
<circle cx="150" cy="150" r="150" fill="#004899"/>
<path fill-rule="evenodd" clip-rule="evenodd" d="M58.1602 207.631L67.6977 187.013H74.237L83.7548 207.631H77.6192L75.9182 203.397H65.9967L64.0707 207.631H58.1602ZM67.4528 199.853H74.3032L70.9475 191.717L67.4528 199.853ZM87.4282 207.631V187.013H93.0011V203.868H106.417V207.631H87.4282ZM108.297 207.631L117.835 187.013H124.374L133.911 207.631H127.756L126.055 203.397H116.134L114.208 207.631H108.297ZM117.59 199.853H124.44L121.084 191.717L117.59 199.853ZM137.565 207.631V187.013H151.266C154.694 187.013 159.705 188.517 159.705 192.797C159.705 195.394 157.957 197.19 155.581 197.839C158.024 198.422 158.917 199.946 158.917 202.39C158.917 202.973 158.851 203.603 158.851 204.186C158.851 205.219 158.897 206.849 160.148 207.075V207.638H153.973C153.483 206.379 153.344 205.034 153.344 203.696C153.344 203.179 153.298 202.735 153.298 202.51C153.298 199.8 150.948 199.621 149.068 199.621H142.999V207.644H137.565V207.631ZM143.006 196.176H150.101C152.788 196.176 154.132 195.215 154.132 193.261C154.132 191.061 151.67 190.571 150.233 190.571H142.999V196.176H143.006ZM164.43 207.631V187.013H172.717L177.575 203.285H177.668L182.506 187.013H190.654V207.631H185.365V190.458L185.299 190.505L180.282 207.631H174.709L169.785 190.458L169.719 190.505V207.631H164.43ZM193.897 207.631L203.435 187.013H209.974L219.512 207.631H213.356L211.655 203.397H201.734L199.808 207.631H193.897ZM203.19 199.853H210.067L206.684 191.717L203.19 199.853ZM221.821 201.357H227.262C227.308 204.027 230.485 204.65 232.59 204.65C236.489 204.65 238.52 203.775 238.52 202.139C238.52 201.377 238.004 200.529 237.488 200.436C236.952 200.343 235.251 199.515 233.616 199.449C232.855 199.429 231.352 198.998 231.041 198.998C228.268 198.952 225.733 197.673 224.416 197.024C223.092 196.348 222.245 194.626 222.245 192.79C222.245 187.702 228.579 186.563 232.431 186.563C236.641 186.563 242.862 187.861 243.134 193.195H237.739C237.495 191.088 235.502 190.121 232.1 190.121C229.188 190.121 227.441 191.041 227.441 192.472C227.441 197.468 243.968 193.254 243.968 201.503C243.968 203.338 243.114 205.001 242.022 205.736C239.646 207.393 236.601 208.201 233.623 208.201C225.965 208.214 222 205.862 221.821 201.357Z" fill="white"/>
<path fill-rule="evenodd" clip-rule="evenodd" d="M168.89 155.363H132.176L136.087 161.545H172.868V153.84L168.89 146.552V155.363Z" fill="#FCEA10"/>
<path fill-rule="evenodd" clip-rule="evenodd" d="M104.216 144.308L93.5336 161.541H80.8389L77.9531 155.326H90.2838L100.781 138.743L104.216 144.308Z" fill="#FCEA10"/>
<path fill-rule="evenodd" clip-rule="evenodd" d="M101.046 119.887L91.6406 104.304L99.7618 107.544L104.282 115.362L101.046 119.887Z" fill="#FCEA10"/>
<path fill-rule="evenodd" clip-rule="evenodd" d="M60.3938 149.48C50.9555 115.241 75.6169 102.315 92.5476 102.441L203.021 102.474C221.904 103.336 228.318 110.405 232.203 114.877C224.214 102.07 215.941 96.4587 202.326 96.4587H92.5476C58.9774 95.3126 43.7808 127.054 60.3938 149.48Z" fill="#FCEA10"/>
<path fill-rule="evenodd" clip-rule="evenodd" d="M175.1 129.002C176.205 128.075 176.834 127.909 178.019 127.684C176.205 126.988 174.881 126.28 173.531 124.497L175.1 129.002Z" fill="#FCEA10"/>
<path fill-rule="evenodd" clip-rule="evenodd" d="M184.82 123.781C185.284 117.997 190.91 116.281 197.171 119.568C197.634 106.297 173.119 111.505 184.82 123.781Z" fill="#FCEA10"/>
<path fill-rule="evenodd" clip-rule="evenodd" d="M205.601 110.784C213.212 116.965 211.875 125.405 206.891 131.964C205.177 129.619 203.542 128.115 201.047 127.042C207.315 123.835 209.181 118.104 205.601 110.784Z" fill="#FCEA10"/>
<path fill-rule="evenodd" clip-rule="evenodd" d="M182.886 146.24C168.967 134.726 196.898 124.629 199.128 141.053C194.819 137.349 182.522 138.191 182.886 146.24Z" fill="#FCEA10"/>
<path fill-rule="evenodd" clip-rule="evenodd" d="M170.531 147.247C178.586 176.742 224.97 159.868 208.88 136.163C212.739 160.55 178.355 161.093 170.531 147.247Z" fill="#FCEA10"/>
<path fill-rule="evenodd" clip-rule="evenodd" d="M53.5781 156.318C63.7445 168.76 76.6907 172.696 89.9613 172.696H203.201C227.201 172.696 253.265 149.792 242.073 112.068C262.227 152.535 232.337 179.732 206.947 179.732H93.2309C80.1854 180.196 63.632 175.253 53.5781 156.318Z" fill="#FCEA10"/>
<path fill-rule="evenodd" clip-rule="evenodd" d="M110.777 155.366L114.027 161.514H131.593L119.891 141.055H136.775L142.984 132.23L141.051 128.977H147.206C147.451 119.609 154.004 117.708 158.597 121.213C159.835 110.606 143.904 108.77 143.308 122.485H132.877L135.505 126.751H138.973L133.526 135.159H115.185L115.893 133.608L113.716 130.037L126.391 110.129L122.492 104.265L106.898 129.309L121.824 155.333L110.777 155.366Z" fill="#FCEA10"/>
<path fill-rule="evenodd" clip-rule="evenodd" d="M146.473 146.226H156.871C165.521 139.78 174.993 135.864 173.331 122.601C172.868 118.963 170.823 115.114 166.613 111.086C177.011 130.763 151.807 139.621 146.473 146.226Z" fill="#FCEA10"/>
</svg>
