<svg width="777" height="384" viewBox="0 0 777 384" fill="none" xmlns="http://www.w3.org/2000/svg">
<circle cx="378" cy="192" r="192" fill="#412555"/>
<g clip-path="url(#clip0_1996_3401)">
<path d="M477.265 210.44C499.789 204.916 522.679 201.001 545.762 198.724C564.274 196.856 582.87 195.923 601.477 195.93C648.578 195.808 695.488 201.898 740.99 214.04C787.091 226.475 827.174 232.785 860.114 232.785C905.689 232.785 926.03 220.74 933.601 214.357H959.936V196.381H930.078L925.724 196.271L923.082 199.639C922.409 200.335 914.263 208.328 891.28 212.405C881.115 214.099 870.823 214.916 860.517 214.845C828.96 214.845 790.357 208.743 745.797 196.735C698.741 184.162 650.227 177.847 601.513 177.953C582.314 177.95 563.126 178.916 544.025 180.846C521.563 183.057 499.273 186.75 477.301 191.902L477.265 210.44Z" fill="white"/>
<path d="M477.265 205.803C499.665 200.374 522.419 196.516 545.359 194.258C591.606 189.559 663.308 188.424 742.214 209.708C881.14 247.173 923.584 217.701 931.95 209.854H955.484V200.872H930.03H927.877L926.52 202.593C926.446 202.691 918.239 212.246 892.002 216.871C867.539 221.204 822.025 221.972 744.562 201.08C697.885 188.638 649.767 182.393 601.453 182.506C582.392 182.496 563.344 183.449 544.38 185.361C521.759 187.579 499.316 191.326 477.204 196.577L477.265 205.803Z" fill="white"/>
<path d="M742.213 209.708C881.14 247.173 923.583 217.701 931.95 209.854H955.483V207.047H931.95C923.583 214.894 881.14 244.366 742.213 206.889C663.307 185.63 591.606 186.74 545.358 191.451C522.417 193.703 499.663 197.561 477.265 202.996V205.802C499.665 200.373 522.418 196.516 545.358 194.258C591.606 189.559 663.307 188.424 742.213 209.708Z" fill="#BCBEC0"/>
<path d="M289.008 210.44C266.484 204.916 243.594 201.001 220.511 198.724C201.999 196.856 183.403 195.923 164.797 195.93C117.72 195.813 70.834 201.902 25.3563 214.04C-20.7569 226.475 -60.8398 232.785 -93.7795 232.785C-139.354 232.785 -159.696 220.74 -167.267 214.357H-193.602V196.381H-163.695L-159.341 196.271L-156.699 199.639C-156.026 200.335 -147.892 208.329 -124.897 212.405C-114.732 214.099 -104.44 214.916 -94.1342 214.845C-62.5767 214.845 -23.9738 208.743 20.586 196.735C67.6062 184.172 116.083 177.857 164.76 177.953C183.959 177.95 203.147 178.915 222.248 180.846C244.71 183.057 267 186.75 288.972 191.902L289.008 210.44Z" fill="white"/>
<path d="M289.009 205.803C266.609 200.374 243.855 196.516 220.915 194.258C174.668 189.559 102.966 188.424 24.0724 209.708C-114.866 247.173 -157.31 217.701 -165.664 209.854H-189.21V200.872H-163.756H-161.603L-160.246 202.593C-160.172 202.691 -151.965 212.246 -125.728 216.871C-101.265 221.204 -55.7632 221.972 21.7117 201.08C68.3891 188.638 116.507 182.393 164.821 182.506C183.882 182.496 202.93 183.449 221.894 185.361C244.515 187.579 266.958 191.326 289.07 196.577L289.009 205.803Z" fill="white"/>
<path d="M24.0724 209.708C-114.866 247.173 -157.31 217.701 -165.664 209.854H-189.21V207.047H-165.664C-157.31 214.894 -114.866 244.366 24.0724 206.889C102.966 185.63 174.668 186.74 220.915 191.451C243.856 193.703 266.61 197.561 289.009 202.996V205.802C266.609 200.373 243.855 196.516 220.915 194.258C174.668 189.559 102.966 188.424 24.0724 209.708Z" fill="#BCBEC0"/>
<path d="M427.665 214.589C427.667 213.971 427.546 213.359 427.31 212.787C427.074 212.216 426.728 211.696 426.29 211.259C425.853 210.821 425.333 210.474 424.761 210.237C424.189 210 423.576 209.878 422.956 209.878H383.619C383 209.878 382.387 210 381.814 210.237C381.242 210.474 380.723 210.821 380.285 211.259C379.848 211.696 379.501 212.216 379.265 212.787C379.029 213.359 378.909 213.971 378.91 214.589C378.91 215.835 379.406 217.03 380.289 217.911C381.173 218.792 382.37 219.287 383.619 219.287H422.956C424.205 219.287 425.403 218.792 426.286 217.911C427.169 217.03 427.665 215.835 427.665 214.589Z" fill="#BCBEC0"/>
<path d="M383.62 214.589H422.957C423.781 214.587 424.591 214.368 425.303 213.954C426.016 213.541 426.607 212.948 427.018 212.234C427.44 212.946 427.665 213.757 427.67 214.584C427.675 215.411 427.461 216.225 427.048 216.942C426.635 217.659 426.039 218.254 425.32 218.666C424.601 219.078 423.786 219.293 422.957 219.288H383.62C382.791 219.293 381.975 219.078 381.257 218.666C380.538 218.254 379.942 217.659 379.529 216.942C379.116 216.225 378.901 215.411 378.906 214.584C378.912 213.757 379.137 212.946 379.559 212.234C379.968 212.948 380.559 213.542 381.272 213.956C381.985 214.37 382.795 214.588 383.62 214.589Z" fill="#F1F2F2"/>
<path d="M429.941 214.589C429.938 216.435 429.201 218.204 427.891 219.509C426.582 220.813 424.807 221.545 422.957 221.545H383.62C382.679 221.585 381.74 221.434 380.859 221.101C379.978 220.769 379.174 220.263 378.494 219.612C377.814 218.962 377.273 218.181 376.904 217.317C376.534 216.453 376.344 215.523 376.344 214.583C376.344 213.643 376.534 212.714 376.904 211.849C377.273 210.985 377.814 210.204 378.494 209.554C379.174 208.903 379.978 208.397 380.859 208.065C381.74 207.732 382.679 207.582 383.62 207.621H422.957C423.874 207.621 424.782 207.801 425.63 208.151C426.477 208.501 427.247 209.015 427.896 209.662C428.544 210.309 429.059 211.077 429.41 211.923C429.761 212.768 429.941 213.674 429.941 214.589ZM422.957 217.03C423.606 217.03 424.228 216.773 424.687 216.315C425.146 215.857 425.403 215.237 425.403 214.589C425.403 213.942 425.146 213.321 424.687 212.863C424.228 212.406 423.606 212.148 422.957 212.148H383.62C382.971 212.148 382.349 212.406 381.89 212.863C381.432 213.321 381.174 213.942 381.174 214.589C381.174 215.237 381.432 215.857 381.89 216.315C382.349 216.773 382.971 217.03 383.62 217.03H422.957Z" fill="white"/>
<path d="M427.665 172.56C427.665 171.313 427.169 170.118 426.286 169.237C425.403 168.356 424.205 167.861 422.956 167.861H383.619C382.37 167.861 381.173 168.356 380.289 169.237C379.406 170.118 378.91 171.313 378.91 172.56C378.91 173.806 379.406 175.001 380.289 175.882C381.173 176.763 382.37 177.258 383.619 177.258H422.956C424.205 177.258 425.403 176.763 426.286 175.882C427.169 175.001 427.665 173.806 427.665 172.56Z" fill="#BCBEC0"/>
<path d="M383.62 172.559H422.957C423.781 172.557 424.591 172.338 425.303 171.925C426.016 171.511 426.607 170.918 427.018 170.204C427.44 170.916 427.665 171.727 427.67 172.554C427.675 173.381 427.461 174.195 427.048 174.912C426.635 175.629 426.039 176.224 425.32 176.636C424.601 177.048 423.786 177.263 422.957 177.258H383.62C382.791 177.263 381.975 177.048 381.257 176.636C380.538 176.224 379.942 175.629 379.529 174.912C379.116 174.195 378.901 173.381 378.906 172.554C378.912 171.727 379.137 170.916 379.559 170.204C379.968 170.919 380.559 171.513 381.272 171.926C381.985 172.34 382.795 172.558 383.62 172.559Z" fill="#F1F2F2"/>
<path d="M429.941 172.56C429.938 174.406 429.201 176.175 427.891 177.479C426.582 178.783 424.807 179.516 422.957 179.516H383.62C382.679 179.555 381.74 179.404 380.859 179.072C379.978 178.74 379.174 178.233 378.494 177.583C377.814 176.933 377.273 176.152 376.904 175.287C376.534 174.423 376.344 173.493 376.344 172.554C376.344 171.614 376.534 170.684 376.904 169.82C377.273 168.955 377.814 168.175 378.494 167.524C379.174 166.874 379.978 166.367 380.859 166.035C381.74 165.703 382.679 165.552 383.62 165.591H422.957C423.874 165.591 424.782 165.772 425.63 166.122C426.477 166.472 427.247 166.985 427.896 167.632C428.544 168.279 429.059 169.048 429.41 169.893C429.761 170.738 429.941 171.645 429.941 172.56ZM422.957 175C423.606 175 424.228 174.743 424.687 174.285C425.146 173.828 425.403 173.207 425.403 172.56C425.403 171.912 425.146 171.291 424.687 170.834C424.228 170.376 423.606 170.119 422.957 170.119H383.62C382.971 170.119 382.349 170.376 381.89 170.834C381.432 171.291 381.174 171.912 381.174 172.56C381.174 173.207 381.432 173.828 381.89 174.285C382.349 174.743 382.971 175 383.62 175H422.957Z" fill="white"/>
<path d="M509.886 203.496H471.907V183.64H509.886C512.265 183.644 514.546 184.589 516.227 186.268C517.908 187.948 518.852 190.224 518.852 192.598V194.55C518.852 196.923 517.908 199.198 516.226 200.876C514.545 202.553 512.264 203.496 509.886 203.496Z" fill="#F1F2F2"/>
<path d="M509.886 203.496H471.907V197.394H505.52C507.898 197.394 510.178 196.452 511.859 194.774C513.541 193.096 514.485 190.821 514.485 188.449V186.496C514.483 185.927 514.43 185.359 514.326 184.8C515.702 185.581 516.846 186.712 517.641 188.077C518.436 189.443 518.854 190.994 518.852 192.574V194.526C518.855 195.703 518.626 196.869 518.177 197.957C517.728 199.045 517.068 200.034 516.235 200.867C515.402 201.7 514.412 202.362 513.323 202.813C512.234 203.264 511.066 203.496 509.886 203.496Z" fill="#BCBEC0"/>
<path d="M521.127 192.598V194.551C521.124 197.524 519.939 200.375 517.831 202.477C515.724 204.58 512.867 205.763 509.886 205.766H471.907C471.315 205.75 470.751 205.504 470.338 205.08C469.924 204.656 469.693 204.088 469.693 203.496V183.641C469.693 183.042 469.932 182.467 470.356 182.044C470.78 181.621 471.356 181.383 471.956 181.383H509.935C512.907 181.399 515.752 182.587 517.849 184.688C519.945 186.79 521.124 189.633 521.127 192.598ZM474.182 201.238H509.886C511.663 201.235 513.366 200.529 514.623 199.276C515.879 198.022 516.586 196.323 516.589 194.551V192.598C516.586 190.825 515.879 189.126 514.623 187.873C513.366 186.619 511.663 185.914 509.886 185.91H474.182V201.238Z" fill="white"/>
<path d="M455.395 234.445H416.67C415.436 234.443 414.215 234.198 413.077 233.725C411.938 233.251 410.905 232.558 410.035 231.685C409.166 230.812 408.478 229.776 408.011 228.637C407.543 227.498 407.306 226.278 407.313 225.048V162.101C407.313 159.622 408.3 157.244 410.057 155.491C411.814 153.738 414.197 152.753 416.682 152.753H455.407L455.395 234.445Z" fill="#F1F2F2"/>
<path d="M457.034 152.753H443.433V234.396H457.034V152.753Z" fill="#BCBEC0"/>
<path d="M457.67 152.753V234.444C457.67 234.742 457.611 235.037 457.496 235.311C457.382 235.586 457.214 235.835 457.003 236.045C456.791 236.255 456.54 236.421 456.264 236.534C455.988 236.647 455.693 236.704 455.395 236.702H416.669C413.585 236.699 410.628 235.475 408.448 233.299C406.267 231.124 405.04 228.173 405.037 225.096V162.101C405.037 159.023 406.263 156.071 408.444 153.894C410.626 151.718 413.584 150.495 416.669 150.495H455.395C455.693 150.494 455.988 150.551 456.264 150.663C456.54 150.776 456.791 150.942 457.003 151.152C457.214 151.362 457.382 151.611 457.496 151.886C457.611 152.161 457.67 152.455 457.67 152.753ZM453.132 232.077V155.011H416.669C414.786 155.014 412.98 155.762 411.648 157.091C410.316 158.42 409.566 160.221 409.563 162.101V225.048C409.566 226.926 410.316 228.726 411.649 230.053C412.981 231.38 414.787 232.126 416.669 232.126L453.132 232.077Z" fill="white"/>
<path d="M463.895 157.146C463.948 155.286 463.259 153.481 461.98 152.126C460.7 150.772 458.935 149.979 457.07 149.922C455.203 149.976 453.435 150.767 452.153 152.122C450.871 153.477 450.18 155.284 450.233 157.146V229.99C450.205 230.913 450.36 231.833 450.689 232.696C451.017 233.56 451.513 234.35 452.148 235.022C452.783 235.694 453.545 236.235 454.389 236.613C455.234 236.992 456.145 237.2 457.07 237.227C458.937 237.17 460.704 236.375 461.984 235.018C463.264 233.661 463.951 231.853 463.895 229.99V157.146Z" fill="#F1F2F2"/>
<path d="M457.07 237.227C455.861 237.221 454.676 236.883 453.646 236.251C454.704 235.585 455.574 234.66 456.174 233.565C456.773 232.469 457.082 231.238 457.07 229.99V157.146C457.08 155.9 456.77 154.672 456.171 153.579C455.571 152.485 454.702 151.563 453.646 150.898C454.674 150.26 455.86 149.922 457.07 149.922C458.935 149.979 460.7 150.772 461.98 152.126C463.259 153.481 463.948 155.286 463.896 157.146V229.99C463.952 231.853 463.264 233.661 461.984 235.018C460.704 236.375 458.937 237.17 457.07 237.227Z" fill="#BCBEC0"/>
<path d="M466.158 157.146V229.99C466.203 231.21 466.001 232.426 465.564 233.566C465.128 234.706 464.465 235.746 463.616 236.624C462.767 237.503 461.749 238.202 460.624 238.679C459.498 239.157 458.287 239.403 457.064 239.403C455.841 239.403 454.63 239.157 453.505 238.679C452.379 238.202 451.361 237.503 450.512 236.624C449.664 235.746 449.001 234.706 448.564 233.566C448.127 232.426 447.925 231.21 447.97 229.99V157.146C447.925 155.927 448.127 154.711 448.564 153.571C449.001 152.431 449.664 151.391 450.512 150.512C451.361 149.633 452.379 148.935 453.505 148.457C454.63 147.98 455.841 147.734 457.064 147.734C458.287 147.734 459.498 147.98 460.624 148.457C461.749 148.935 462.767 149.633 463.616 150.512C464.465 151.391 465.128 152.431 465.564 153.571C466.001 154.711 466.203 155.927 466.158 157.146ZM461.633 229.99V157.146C461.679 156.52 461.595 155.892 461.386 155.3C461.178 154.708 460.849 154.165 460.421 153.706C459.993 153.246 459.474 152.879 458.898 152.629C458.321 152.378 457.699 152.249 457.07 152.249C456.441 152.249 455.819 152.378 455.243 152.629C454.666 152.879 454.148 153.246 453.719 153.706C453.291 154.165 452.963 154.708 452.754 155.3C452.546 155.892 452.462 156.52 452.508 157.146V229.99C452.442 230.628 452.51 231.272 452.709 231.881C452.909 232.49 453.234 233.051 453.664 233.527C454.094 234.003 454.619 234.383 455.206 234.644C455.793 234.904 456.428 235.039 457.07 235.039C457.713 235.039 458.348 234.904 458.934 234.644C459.521 234.383 460.047 234.003 460.477 233.527C460.907 233.051 461.232 232.49 461.431 231.881C461.63 231.272 461.699 230.628 461.633 229.99Z" fill="white"/>
<path d="M477.375 218.714H463.92V168.422H477.375C478.352 168.422 479.32 168.615 480.223 168.99C481.125 169.365 481.944 169.914 482.633 170.606C483.322 171.298 483.867 172.119 484.237 173.022C484.606 173.924 484.793 174.891 484.787 175.867V211.367C484.774 213.32 483.987 215.189 482.599 216.565C481.21 217.941 479.332 218.714 477.375 218.714Z" fill="#F1F2F2"/>
<path d="M477.375 218.714H471.137C472.111 218.715 473.076 218.525 473.977 218.154C474.878 217.783 475.696 217.239 476.386 216.552C477.076 215.865 477.623 215.049 477.996 214.151C478.369 213.253 478.561 212.291 478.561 211.318V175.867C478.558 173.904 477.774 172.023 476.382 170.637C474.99 169.25 473.104 168.471 471.137 168.471H477.375C479.341 168.471 481.226 169.25 482.616 170.637C484.006 172.024 484.787 173.905 484.787 175.867V211.367C484.774 213.32 483.988 215.189 482.599 216.565C481.21 217.941 479.332 218.714 477.375 218.714Z" fill="#BCBEC0"/>
<path d="M487.05 175.867V211.367C487.047 213.928 486.027 216.382 484.213 218.194C482.4 220.005 479.941 221.026 477.375 221.033H463.92C463.622 221.033 463.327 220.974 463.051 220.86C462.776 220.745 462.526 220.578 462.316 220.367C462.105 220.156 461.939 219.906 461.826 219.631C461.713 219.355 461.656 219.06 461.657 218.763V168.422C461.657 168.126 461.716 167.832 461.83 167.558C461.943 167.285 462.11 167.036 462.32 166.826C462.53 166.616 462.78 166.45 463.054 166.337C463.329 166.223 463.623 166.165 463.92 166.165H477.375C478.649 166.166 479.911 166.419 481.087 166.908C482.263 167.396 483.331 168.112 484.23 169.013C485.129 169.914 485.84 170.983 486.324 172.16C486.808 173.336 487.055 174.595 487.05 175.867ZM466.158 216.505H477.375C478.74 216.502 480.048 215.96 481.013 214.997C481.978 214.034 482.521 212.729 482.524 211.367V175.867C482.521 174.506 481.977 173.203 481.012 172.242C480.046 171.281 478.739 170.741 477.375 170.741H466.158V216.505Z" fill="white"/>
<path d="M423.335 188.644H407.3V198.492H423.335V188.644Z" fill="#BCBEC0"/>
<path d="M423.335 193.574H407.3V198.492H423.335V193.574Z" fill="#F1F2F2"/>
<path d="M425.66 188.644V198.492C425.66 199.091 425.422 199.665 424.997 200.089C424.573 200.512 423.997 200.75 423.397 200.75H407.313C406.713 200.75 406.137 200.512 405.713 200.089C405.288 199.665 405.05 199.091 405.05 198.492V188.644C405.05 188.045 405.288 187.471 405.713 187.048C406.137 186.624 406.713 186.386 407.313 186.386H423.336C423.638 186.378 423.939 186.431 424.221 186.54C424.502 186.65 424.759 186.815 424.976 187.026C425.192 187.236 425.365 187.488 425.482 187.766C425.6 188.044 425.66 188.342 425.66 188.644ZM409.624 196.235H421.122V190.914H409.624V196.235Z" fill="white"/>
<path d="M473.547 176.123C472.943 176.123 472.364 176.362 471.938 176.788C471.511 177.214 471.271 177.791 471.271 178.393V208.817C471.314 209.388 471.571 209.923 471.992 210.313C472.413 210.703 472.966 210.92 473.54 210.92C474.115 210.92 474.668 210.703 475.089 210.313C475.51 209.923 475.767 209.388 475.809 208.817V178.393C475.811 178.095 475.754 177.801 475.641 177.525C475.528 177.25 475.361 177 475.151 176.789C474.941 176.578 474.691 176.41 474.415 176.296C474.14 176.182 473.845 176.123 473.547 176.123Z" fill="white"/>
<path d="M352.27 249.907L334.754 267.394C334.542 267.603 334.373 267.852 334.258 268.127C334.143 268.401 334.084 268.696 334.084 268.993C334.084 269.291 334.143 269.585 334.258 269.86C334.373 270.134 334.542 270.383 334.754 270.592C334.964 270.804 335.213 270.972 335.488 271.087C335.763 271.201 336.058 271.261 336.357 271.261C336.655 271.261 336.95 271.201 337.225 271.087C337.5 270.972 337.749 270.804 337.959 270.592L355.536 253.067C355.95 252.639 356.178 252.066 356.173 251.471C356.167 250.876 355.928 250.307 355.507 249.887C355.085 249.466 354.515 249.227 353.919 249.222C353.322 249.217 352.748 249.445 352.319 249.858L352.27 249.907Z" fill="#00A7E1"/>
<path d="M379.302 259.181C378.702 259.181 378.126 259.419 377.702 259.843C377.277 260.266 377.039 260.84 377.039 261.439V286.237C377.039 286.836 377.277 287.41 377.702 287.833C378.126 288.257 378.702 288.495 379.302 288.495C379.902 288.495 380.478 288.257 380.902 287.833C381.326 287.41 381.565 286.836 381.565 286.237V261.439C381.565 260.84 381.326 260.266 380.902 259.843C380.478 259.419 379.902 259.181 379.302 259.181Z" fill="#F32735"/>
<path d="M405.881 248.967C405.456 248.543 404.88 248.305 404.279 248.305C403.678 248.305 403.101 248.543 402.676 248.967C402.251 249.391 402.013 249.966 402.013 250.566C402.013 251.165 402.251 251.74 402.676 252.164L420.253 269.701C420.459 269.934 420.711 270.122 420.992 270.254C421.274 270.386 421.579 270.459 421.89 270.468C422.201 270.477 422.511 270.423 422.8 270.308C423.089 270.194 423.351 270.021 423.571 269.801C423.79 269.581 423.962 269.319 424.076 269.03C424.19 268.741 424.243 268.432 424.233 268.122C424.222 267.812 424.148 267.507 424.015 267.227C423.881 266.946 423.692 266.696 423.458 266.491L405.881 248.967Z" fill="#FFDA00"/>
<path d="M378.911 127.967C379.208 127.967 379.502 127.909 379.777 127.795C380.051 127.682 380.301 127.516 380.511 127.306C380.721 127.096 380.888 126.847 381.001 126.573C381.115 126.3 381.174 126.006 381.174 125.709V100.899C381.132 100.328 380.874 99.793 380.453 99.4028C380.032 99.0127 379.479 98.7958 378.905 98.7958C378.33 98.7958 377.777 99.0127 377.356 99.4028C376.935 99.793 376.678 100.328 376.636 100.899V125.709C376.636 126.007 376.695 126.302 376.809 126.576C376.924 126.851 377.091 127.1 377.303 127.31C377.514 127.52 377.765 127.686 378.041 127.799C378.317 127.912 378.613 127.969 378.911 127.967Z" fill="#F32735"/>
<path d="M352.27 138.182C352.475 138.415 352.726 138.604 353.007 138.737C353.288 138.87 353.593 138.944 353.904 138.955C354.215 138.965 354.525 138.912 354.814 138.799C355.104 138.685 355.367 138.513 355.587 138.294C355.808 138.075 355.981 137.814 356.096 137.525C356.211 137.237 356.265 136.928 356.256 136.618C356.246 136.307 356.173 136.002 356.041 135.722C355.909 135.441 355.72 135.19 355.487 134.984L337.959 117.448C337.534 117.024 336.958 116.785 336.357 116.785C335.756 116.785 335.179 117.024 334.755 117.448C334.33 117.872 334.091 118.447 334.091 119.046C334.091 119.646 334.33 120.221 334.755 120.645L352.27 138.182Z" fill="#00A7E1"/>
<path d="M404.279 137.901C404.577 137.9 404.872 137.84 405.147 137.725C405.422 137.61 405.672 137.442 405.881 137.23L423.458 119.73C423.883 119.306 424.122 118.731 424.122 118.131C424.122 117.531 423.883 116.956 423.458 116.532C423.033 116.108 422.457 115.87 421.856 115.87C421.255 115.87 420.678 116.108 420.253 116.532L402.677 134.032C402.361 134.35 402.146 134.753 402.06 135.192C401.973 135.63 402.018 136.085 402.189 136.498C402.36 136.911 402.65 137.265 403.022 137.514C403.393 137.764 403.831 137.899 404.279 137.901Z" fill="#FFDA00"/>
<path d="M249.892 203.496H287.81V183.64H249.892C247.519 183.653 245.248 184.603 243.575 186.281C241.902 187.96 240.963 190.231 240.963 192.598V194.55C240.963 196.917 241.902 199.186 243.576 200.863C245.249 202.539 247.52 203.486 249.892 203.496Z" fill="#F1F2F2"/>
<path d="M249.892 203.496H287.81V197.394H254.258C251.88 197.394 249.6 196.452 247.919 194.774C246.237 193.096 245.292 190.821 245.292 188.449V186.496C245.295 185.927 245.348 185.359 245.452 184.8C244.076 185.581 242.932 186.712 242.137 188.077C241.342 189.443 240.924 190.994 240.926 192.574V194.526C240.923 195.703 241.152 196.869 241.601 197.957C242.05 199.045 242.71 200.034 243.543 200.867C244.376 201.7 245.366 202.362 246.455 202.813C247.544 203.264 248.712 203.496 249.892 203.496Z" fill="#BCBEC0"/>
<path d="M249.891 181.383H287.809C288.409 181.383 288.985 181.621 289.409 182.044C289.834 182.467 290.072 183.042 290.072 183.641V203.496C290.072 204.096 289.834 204.671 289.41 205.097C288.986 205.522 288.41 205.763 287.809 205.766H249.891C246.911 205.763 244.054 204.58 241.946 202.477C239.839 200.375 238.654 197.524 238.65 194.551V192.598C238.654 189.625 239.839 186.774 241.946 184.671C244.054 182.569 246.911 181.386 249.891 181.383ZM285.595 185.91H249.891C248.115 185.914 246.411 186.619 245.155 187.873C243.899 189.126 243.192 190.825 243.188 192.598V194.551C243.192 196.323 243.899 198.022 245.155 199.276C246.411 200.529 248.115 201.235 249.891 201.238H285.595V185.91Z" fill="white"/>
<path d="M282.404 218.714H295.858V168.422H282.404C281.426 168.422 280.458 168.615 279.556 168.99C278.653 169.365 277.834 169.914 277.145 170.606C276.456 171.298 275.911 172.119 275.541 173.022C275.172 173.924 274.985 174.891 274.991 175.867V211.367C275.004 213.32 275.791 215.189 277.18 216.565C278.568 217.941 280.446 218.714 282.404 218.714Z" fill="#F1F2F2"/>
<path d="M282.404 218.714H288.666C286.7 218.714 284.815 217.935 283.425 216.548C282.035 215.161 281.254 213.28 281.254 211.318V175.867C281.249 174.892 281.437 173.926 281.807 173.024C282.178 172.121 282.723 171.301 283.411 170.609C284.1 169.918 284.919 169.369 285.82 168.993C286.722 168.618 287.689 168.424 288.666 168.422H282.44C281.46 168.418 280.488 168.607 279.581 168.979C278.674 169.352 277.851 169.9 277.158 170.593C276.465 171.285 275.917 172.108 275.545 173.013C275.173 173.918 274.985 174.888 274.991 175.867V211.367C275.004 213.32 275.791 215.189 277.18 216.565C278.568 217.942 280.446 218.714 282.404 218.714Z" fill="#BCBEC0"/>
<path d="M282.403 166.165H295.858C296.458 166.165 297.034 166.403 297.458 166.826C297.882 167.249 298.121 167.824 298.121 168.422V218.714C298.127 219.012 298.074 219.309 297.965 219.587C297.856 219.865 297.692 220.119 297.484 220.333C297.276 220.548 297.027 220.719 296.752 220.837C296.477 220.955 296.182 221.017 295.882 221.02H282.428C279.86 221.014 277.4 219.994 275.585 218.182C273.769 216.371 272.747 213.917 272.74 211.355V175.867C272.734 173.302 273.748 170.84 275.56 169.021C277.371 167.202 279.833 166.174 282.403 166.165ZM293.62 170.692H282.403C281.04 170.692 279.732 171.232 278.766 172.193C277.801 173.154 277.257 174.457 277.254 175.818V211.319C277.257 212.68 277.801 213.985 278.766 214.948C279.731 215.911 281.038 216.453 282.403 216.456H293.62V170.692Z" fill="white"/>
<path d="M286.22 176.123C286.518 176.123 286.813 176.182 287.089 176.296C287.364 176.41 287.614 176.578 287.824 176.789C288.035 177 288.201 177.25 288.314 177.525C288.427 177.801 288.484 178.095 288.483 178.393V208.817C288.483 209.416 288.244 209.99 287.82 210.413C287.396 210.837 286.82 211.074 286.22 211.074C285.62 211.074 285.044 210.837 284.62 210.413C284.195 209.99 283.957 209.416 283.957 208.817V178.393C283.955 178.095 284.013 177.801 284.126 177.525C284.239 177.25 284.405 177 284.616 176.789C284.826 176.578 285.076 176.41 285.351 176.296C285.626 176.182 285.922 176.123 286.22 176.123Z" fill="white"/>
<path d="M343.977 152.753H305.252C302.767 152.753 300.384 153.738 298.627 155.491C296.87 157.244 295.883 159.622 295.883 162.101V225.048C295.883 227.527 296.87 229.905 298.627 231.658C300.384 233.411 302.767 234.396 305.252 234.396H343.977V152.753Z" fill="#F1F2F2"/>
<path d="M345.616 152.753H332.015V234.384H345.616V152.753Z" fill="#BCBEC0"/>
<path d="M343.978 236.653H305.252C302.168 236.65 299.211 235.426 297.031 233.25C294.85 231.075 293.623 228.125 293.62 225.048V162.101C293.62 159.023 294.846 156.071 297.027 153.894C299.209 151.718 302.167 150.495 305.252 150.495H343.978C344.275 150.495 344.569 150.554 344.844 150.667C345.118 150.78 345.368 150.947 345.578 151.156C345.788 151.366 345.954 151.615 346.068 151.889C346.182 152.163 346.24 152.456 346.24 152.753V234.444C346.228 235.035 345.984 235.596 345.561 236.009C345.138 236.422 344.569 236.653 343.978 236.653ZM305.252 155.01C303.369 155.014 301.563 155.762 300.231 157.091C298.899 158.42 298.149 160.221 298.146 162.101V225.048C298.149 226.926 298.899 228.726 300.232 230.053C301.564 231.38 303.37 232.126 305.252 232.126H341.702V155.01H305.252Z" fill="white"/>
<path d="M352.478 229.99C352.506 230.913 352.351 231.833 352.022 232.696C351.694 233.56 351.198 234.35 350.563 235.022C349.928 235.694 349.166 236.235 348.322 236.613C347.477 236.992 346.566 237.2 345.641 237.227C343.774 237.17 342.007 236.375 340.727 235.018C339.447 233.661 338.76 231.853 338.816 229.99V157.146C338.763 155.286 339.452 153.481 340.731 152.126C342.011 150.772 343.776 149.979 345.641 149.922C347.508 149.976 349.276 150.767 350.558 152.122C351.84 153.477 352.531 155.284 352.478 157.146V229.99Z" fill="#F1F2F2"/>
<path d="M345.641 149.922C344.434 149.923 343.252 150.261 342.229 150.898C343.283 151.564 344.15 152.487 344.747 153.581C345.344 154.674 345.652 155.901 345.641 157.146V229.99C345.654 231.237 345.347 232.467 344.75 233.563C344.152 234.658 343.285 235.583 342.229 236.251C343.255 236.882 344.435 237.22 345.641 237.227C346.566 237.2 347.477 236.992 348.322 236.613C349.166 236.235 349.928 235.694 350.563 235.022C351.198 234.35 351.694 233.56 352.023 232.696C352.351 231.833 352.506 230.913 352.479 229.99V157.146C352.531 155.284 351.841 153.477 350.559 152.122C349.276 150.767 347.508 149.976 345.641 149.922Z" fill="#BCBEC0"/>
<path d="M345.641 239.485C343.175 239.424 340.834 238.39 339.131 236.611C337.427 234.831 336.5 232.45 336.553 229.99V157.146C336.508 155.927 336.71 154.711 337.147 153.571C337.584 152.431 338.247 151.391 339.095 150.512C339.944 149.633 340.962 148.935 342.088 148.457C343.213 147.98 344.424 147.734 345.647 147.734C346.87 147.734 348.081 147.98 349.207 148.457C350.332 148.935 351.35 149.633 352.199 150.512C353.048 151.391 353.71 152.431 354.147 153.571C354.584 154.711 354.786 155.927 354.741 157.146V229.99C354.791 232.452 353.861 234.832 352.155 236.612C350.45 238.391 348.108 239.424 345.641 239.485ZM345.641 152.179C344.378 152.24 343.189 152.795 342.335 153.726C341.48 154.656 341.029 155.885 341.079 157.146V229.99C341.012 230.628 341.081 231.272 341.28 231.881C341.479 232.49 341.804 233.051 342.235 233.527C342.665 234.003 343.19 234.383 343.777 234.644C344.364 234.904 344.999 235.039 345.641 235.039C346.283 235.039 346.918 234.904 347.505 234.644C348.092 234.383 348.618 234.003 349.048 233.527C349.478 233.051 349.803 232.49 350.002 231.881C350.201 231.272 350.27 230.628 350.203 229.99V157.146C350.253 155.885 349.802 154.656 348.947 153.726C348.093 152.795 346.904 152.24 345.641 152.179Z" fill="white"/>
<path d="M325.764 206.376H310.059C309.486 206.418 308.95 206.675 308.559 207.095C308.168 207.515 307.95 208.067 307.95 208.64C307.95 209.213 308.168 209.765 308.559 210.185C308.95 210.605 309.486 210.862 310.059 210.904H325.764C326.337 210.862 326.873 210.605 327.264 210.185C327.655 209.765 327.872 209.213 327.872 208.64C327.872 208.067 327.655 207.515 327.264 207.095C326.873 206.675 326.337 206.418 325.764 206.376Z" fill="white"/>
<path d="M310.059 200.86H325.764C326.364 200.86 326.94 200.622 327.364 200.199C327.789 199.775 328.027 199.201 328.027 198.602C328.027 198.003 327.789 197.429 327.364 197.006C326.94 196.582 326.364 196.344 325.764 196.344H310.059C309.459 196.344 308.883 196.582 308.459 197.006C308.034 197.429 307.796 198.003 307.796 198.602C307.796 199.201 308.034 199.775 308.459 200.199C308.883 200.622 309.459 200.86 310.059 200.86Z" fill="white"/>
<path d="M310.059 190.804H325.764C326.364 190.804 326.94 190.566 327.364 190.143C327.789 189.719 328.027 189.145 328.027 188.546C328.027 187.947 327.789 187.373 327.364 186.95C326.94 186.526 326.364 186.289 325.764 186.289H310.059C309.459 186.289 308.883 186.526 308.459 186.95C308.034 187.373 307.796 187.947 307.796 188.546C307.796 189.145 308.034 189.719 308.459 190.143C308.883 190.566 309.459 190.804 310.059 190.804Z" fill="white"/>
<path d="M310.059 180.748H325.764C326.364 180.748 326.94 180.51 327.364 180.087C327.789 179.664 328.027 179.089 328.027 178.491C328.027 177.892 327.789 177.318 327.364 176.894C326.94 176.471 326.364 176.233 325.764 176.233H310.059C309.459 176.233 308.883 176.471 308.459 176.894C308.034 177.318 307.796 177.892 307.796 178.491C307.796 179.089 308.034 179.664 308.459 180.087C308.883 180.51 309.459 180.748 310.059 180.748Z" fill="white"/>
</g>
<defs>
<clipPath id="clip0_1996_3401">
<rect width="777" height="208" fill="white" transform="translate(0 88)"/>
</clipPath>
</defs>
</svg>
