<svg width="9" height="15" viewBox="0 0 9 15" fill="none" xmlns="http://www.w3.org/2000/svg">
<path d="M0.999969 7.00028C0.999512 6.76662 1.08089 6.54019 1.22997 6.36028L6.22997 0.360276C6.39971 0.156059 6.64362 0.0276347 6.90804 0.00325494C7.17247 -0.0211248 7.43575 0.0605371 7.63997 0.230276C7.84419 0.400014 7.97261 0.643926 7.99699 0.908352C8.02137 1.17278 7.93971 1.43606 7.76997 1.64028L3.28997 7.00028L7.60997 12.3603C7.69303 12.4626 7.75507 12.5803 7.7925 12.7066C7.82993 12.8329 7.84202 12.9654 7.82808 13.0965C7.81414 13.2275 7.77445 13.3545 7.71127 13.4701C7.6481 13.5857 7.5627 13.6878 7.45997 13.7703C7.35715 13.8619 7.23652 13.9312 7.10565 13.974C6.97477 14.0168 6.83647 14.0321 6.69941 14.019C6.56235 14.0058 6.42947 13.9645 6.30912 13.8976C6.18876 13.8307 6.08351 13.7397 5.99997 13.6303L1.16997 7.63028C1.04445 7.44519 0.984598 7.22338 0.999969 7.00028Z" fill="#00A7E1"/>
</svg>
