<svg width="34" height="28" viewBox="0 0 34 28" fill="none" xmlns="http://www.w3.org/2000/svg">
<path d="M25.3333 0.666687H8.66659C4.07159 0.666687 0.333252 4.40502 0.333252 9.00002V19C0.333252 23.595 4.07159 27.3334 8.66659 27.3334H25.3333C29.9283 27.3334 33.6666 23.595 33.6666 19V9.00002C33.6666 4.40502 29.9283 0.666687 25.3333 0.666687ZM8.66659 4.00002H25.3333C27.2966 4.00002 28.9816 5.14665 29.7999 6.79665L19.7733 13.48C18.0883 14.6033 15.9116 14.6033 14.2266 13.48L4.19993 6.79665C5.01826 5.14665 6.70325 4.00002 8.66659 4.00002ZM25.3333 24H8.66659C5.90992 24 3.66659 21.7567 3.66659 19V10.4468L12.3766 16.2534C13.7816 17.1901 15.3899 17.6585 16.9999 17.6585C18.6083 17.6585 20.2183 17.1901 21.6216 16.2534L30.3333 10.4468V19C30.3333 21.7567 28.0899 24 25.3333 24Z" fill="white"/>
</svg>
