<svg width="14" height="14" viewBox="0 0 14 14" fill="none" xmlns="http://www.w3.org/2000/svg">
<path d="M12.9392 0.597394C12.756 0.413834 12.5074 0.310676 12.2481 0.310676C11.9888 0.310676 11.7401 0.413834 11.557 0.597394L6.76338 5.38117L1.9698 0.587591C1.78666 0.404031 1.53801 0.300873 1.2787 0.300873C1.0194 0.300873 0.770753 0.404031 0.587605 0.587591C0.205295 0.969901 0.205295 1.58748 0.587605 1.96979L5.38119 6.76337L0.587605 11.557C0.205295 11.9393 0.205295 12.5568 0.587605 12.9391C0.969916 13.3215 1.58749 13.3215 1.9698 12.9391L6.76338 8.14557L11.557 12.9391C11.9393 13.3215 12.5569 13.3215 12.9392 12.9391C13.3215 12.5568 13.3215 11.9393 12.9392 11.557L8.14558 6.76337L12.9392 1.96979C13.3117 1.59728 13.3117 0.969901 12.9392 0.597394Z" fill="white"/>
</svg>
