<svg width="14" height="14" viewBox="0 0 14 14" fill="none" xmlns="http://www.w3.org/2000/svg">
<path d="M12.7819 0.439099C12.5988 0.255539 12.3501 0.152381 12.0908 0.152381C11.8315 0.152381 11.5829 0.255539 11.3997 0.439099L6.60613 5.22288L1.81255 0.429297C1.6294 0.245736 1.38075 0.142578 1.12145 0.142578C0.862145 0.142578 0.613496 0.245736 0.430348 0.429297C0.0480382 0.811607 0.0480382 1.42918 0.430348 1.81149L5.22393 6.60508L0.430348 11.3987C0.0480382 11.781 0.0480382 12.3985 0.430348 12.7809C0.812658 13.1632 1.43024 13.1632 1.81255 12.7809L6.60613 7.98727L11.3997 12.7809C11.782 13.1632 12.3996 13.1632 12.7819 12.7809C13.1642 12.3985 13.1642 11.781 12.7819 11.3987L7.98833 6.60508L12.7819 1.81149C13.1544 1.43899 13.1544 0.811607 12.7819 0.439099Z" fill="white"/>
</svg>
