<svg width="34" height="34" viewBox="0 0 34 34" fill="none" xmlns="http://www.w3.org/2000/svg">
<path fill-rule="evenodd" clip-rule="evenodd" d="M10.4485 0.565384C12.205 0.484522 12.765 0.466553 17.2394 0.466553C21.7137 0.466553 22.2738 0.486019 24.0288 0.565384C25.7837 0.644748 26.9817 0.924768 28.0299 1.33057C29.1275 1.74536 30.1233 2.39375 30.9469 3.23232C31.7855 4.05441 32.4324 5.04871 32.8457 6.14783C33.253 7.19603 33.5315 8.39398 33.6123 10.146C33.6932 11.9055 33.7112 12.4655 33.7112 16.9384C33.7112 21.4127 33.6917 21.9727 33.6123 23.7292C33.533 25.4812 33.253 26.6792 32.8457 27.7274C32.4324 28.8266 31.7844 29.8226 30.9469 30.6459C30.1233 31.4844 29.1275 32.1313 28.0299 32.5446C26.9817 32.9519 25.7837 33.2305 24.0317 33.3113C22.2738 33.3922 21.7137 33.4101 17.2394 33.4101C12.765 33.4101 12.205 33.3907 10.4485 33.3113C8.6965 33.232 7.49855 32.9519 6.45035 32.5446C5.35111 32.1313 4.35517 31.4833 3.53185 30.6459C2.69385 29.8233 2.04536 28.8278 1.6316 27.7289C1.22579 26.6807 0.94727 25.4827 0.866409 23.7307C0.785547 21.9712 0.767578 21.4112 0.767578 16.9384C0.767578 12.464 0.787045 11.904 0.866409 10.149C0.945773 8.39398 1.22579 7.19603 1.6316 6.14783C2.04597 5.04883 2.69496 4.05338 3.53334 3.23082C4.3555 2.39301 5.35044 1.74453 6.44885 1.33057C7.49706 0.924768 8.69501 0.646245 10.447 0.565384H10.4485ZM23.8955 3.53031C22.1585 3.45094 21.6373 3.43447 17.2394 3.43447C12.8414 3.43447 12.3203 3.45094 10.5833 3.53031C8.97652 3.60368 8.10502 3.87172 7.52401 4.09784C6.75583 4.39732 6.20627 4.75222 5.62975 5.32873C5.08326 5.8604 4.66268 6.50763 4.39886 7.22298C4.17275 7.80399 3.90471 8.6755 3.83133 10.2822C3.75197 12.0193 3.7355 12.5404 3.7355 16.9384C3.7355 21.3363 3.75197 21.8574 3.83133 23.5945C3.90471 25.2012 4.17275 26.0727 4.39886 26.6537C4.66241 27.368 5.08319 28.0164 5.62975 28.548C6.16134 29.0945 6.80973 29.5153 7.52401 29.7789C8.10502 30.005 8.97652 30.273 10.5833 30.3464C12.3203 30.4258 12.8399 30.4422 17.2394 30.4422C21.6388 30.4422 22.1585 30.4258 23.8955 30.3464C25.5022 30.273 26.3737 30.005 26.9547 29.7789C27.7229 29.4794 28.2725 29.1245 28.849 28.548C29.3956 28.0164 29.8163 27.368 30.0799 26.6537C30.306 26.0727 30.574 25.2012 30.6474 23.5945C30.7268 21.8574 30.7433 21.3363 30.7433 16.9384C30.7433 12.5404 30.7268 12.0193 30.6474 10.2822C30.574 8.6755 30.306 7.80399 30.0799 7.22298C29.7804 6.4548 29.4255 5.90524 28.849 5.32873C28.3173 4.78227 27.6701 4.3617 26.9547 4.09784C26.3737 3.87172 25.5022 3.60368 23.8955 3.53031ZM15.1355 22.0162C16.3105 22.5053 17.6188 22.5713 18.837 22.2029C20.0553 21.8346 21.1078 21.0547 21.815 19.9965C22.5221 18.9383 22.8399 17.6674 22.7141 16.4009C22.5883 15.1344 22.0267 13.9509 21.1252 13.0525C20.5506 12.4782 19.8557 12.0385 19.0907 11.7649C18.3257 11.4914 17.5096 11.3909 16.701 11.4706C15.8925 11.5504 15.1117 11.8084 14.4149 12.2261C13.7181 12.6438 13.1225 13.2108 12.6712 13.8864C12.2198 14.5619 11.9238 15.329 11.8045 16.1327C11.6852 16.9363 11.7455 17.7564 11.9812 18.5339C12.2169 19.3114 12.622 20.027 13.1674 20.6291C13.7129 21.2313 14.385 21.705 15.1355 22.0162ZM11.2526 10.9516C12.0388 10.1654 12.9722 9.54177 13.9994 9.11629C15.0266 8.6908 16.1275 8.47181 17.2394 8.47181C18.3512 8.47181 19.4522 8.6908 20.4794 9.11628C21.5066 9.54177 22.4399 10.1654 23.2261 10.9516C24.0123 11.7378 24.636 12.6711 25.0614 13.6983C25.4869 14.7256 25.7059 15.8265 25.7059 16.9384C25.7059 18.0502 25.4869 19.1511 25.0614 20.1784C24.636 21.2056 24.0123 22.1389 23.2261 22.9251C21.6383 24.5129 19.4848 25.4049 17.2394 25.4049C14.9939 25.4049 12.8404 24.5129 11.2526 22.9251C9.66484 21.3373 8.77283 19.1838 8.77283 16.9384C8.77283 14.6929 9.66484 12.5394 11.2526 10.9516ZM27.5837 9.73269C27.7785 9.54891 27.9345 9.3279 28.0423 9.08276C28.1502 8.83762 28.2078 8.57333 28.2117 8.30553C28.2156 8.03773 28.1658 7.77187 28.0651 7.52368C27.9644 7.2755 27.8149 7.05005 27.6255 6.86066C27.4362 6.67128 27.2107 6.52182 26.9625 6.42113C26.7143 6.32045 26.4485 6.27058 26.1807 6.27448C25.9129 6.27839 25.6486 6.33598 25.4034 6.44386C25.1583 6.55174 24.9373 6.70771 24.7535 6.90253C24.3961 7.28143 24.2004 7.78471 24.208 8.30553C24.2156 8.82635 24.4259 9.32371 24.7942 9.69202C25.1625 10.0603 25.6598 10.2706 26.1807 10.2782C26.7015 10.2858 27.2048 10.0901 27.5837 9.73269Z" fill="#180228"/>
</svg>
