<svg width="34" height="34" viewBox="0 0 34 34" fill="none" xmlns="http://www.w3.org/2000/svg">
<path fill-rule="evenodd" clip-rule="evenodd" d="M10.4492 0.565628C12.2057 0.484766 12.7658 0.466797 17.2401 0.466797C21.7144 0.466797 22.2745 0.486264 24.0295 0.565628C25.7845 0.644992 26.9824 0.925012 28.0306 1.33082C29.1283 1.74561 30.124 2.394 30.9476 3.23256C31.7862 4.05465 32.4331 5.04895 32.8464 6.14807C33.2537 7.19628 33.5322 8.39422 33.6131 10.1462C33.6939 11.9057 33.7119 12.4658 33.7119 16.9386C33.7119 21.4129 33.6924 21.973 33.6131 23.7295C33.5337 25.4815 33.2537 26.6794 32.8464 27.7276C32.4331 28.8269 31.7851 29.8228 30.9476 30.6461C30.124 31.4847 29.1283 32.1316 28.0306 32.5449C26.9824 32.9522 25.7845 33.2307 24.0325 33.3116C22.2745 33.3924 21.7144 33.4104 17.2401 33.4104C12.7658 33.4104 12.2057 33.3909 10.4492 33.3116C8.69724 33.2322 7.49929 32.9522 6.45108 32.5449C5.35184 32.1315 4.3559 31.4836 3.53258 30.6461C2.69458 29.8235 2.04609 28.8281 1.63233 27.7291C1.22653 26.6809 0.948003 25.483 0.867141 23.731C0.78628 21.9715 0.768311 21.4114 0.768311 16.9386C0.768311 12.4643 0.787777 11.9042 0.867141 10.1492C0.946505 8.39422 1.22653 7.19628 1.63233 6.14807C2.04671 5.04907 2.69569 4.05363 3.53408 3.23106C4.35623 2.39325 5.35117 1.74477 6.44958 1.33082C7.49779 0.925012 8.69574 0.646489 10.4477 0.565628H10.4492ZM23.8962 3.53055C22.1592 3.45119 21.6381 3.43472 17.2401 3.43472C12.8421 3.43472 12.321 3.45119 10.584 3.53055C8.97726 3.60393 8.10575 3.87197 7.52474 4.09808C6.75656 4.39757 6.207 4.75246 5.63049 5.32897C5.08399 5.86064 4.66341 6.50788 4.39959 7.22323C4.17348 7.80423 3.90544 8.67574 3.83206 10.2825C3.7527 12.0195 3.73623 12.5406 3.73623 16.9386C3.73623 21.3366 3.7527 21.8577 3.83206 23.5947C3.90544 25.2014 4.17348 26.073 4.39959 26.654C4.66314 27.3682 5.08392 28.0166 5.63049 28.5482C6.16208 29.0948 6.81047 29.5156 7.52474 29.7791C8.10575 30.0052 8.97726 30.2733 10.584 30.3466C12.321 30.426 12.8406 30.4425 17.2401 30.4425C21.6396 30.4425 22.1592 30.426 23.8962 30.3466C25.503 30.2733 26.3745 30.0052 26.9555 29.7791C27.7237 29.4796 28.2732 29.1247 28.8497 28.5482C29.3963 28.0166 29.8171 27.3682 30.0806 26.654C30.3067 26.073 30.5748 25.2014 30.6482 23.5947C30.7275 21.8577 30.744 21.3366 30.744 16.9386C30.744 12.5406 30.7275 12.0195 30.6482 10.2825C30.5748 8.67574 30.3067 7.80423 30.0806 7.22323C29.7811 6.45504 29.4262 5.90549 28.8497 5.32897C28.318 4.78251 27.6708 4.36194 26.9555 4.09808C26.3745 3.87197 25.503 3.60393 23.8962 3.53055ZM15.1362 22.0164C16.3112 22.5055 17.6195 22.5715 18.8378 22.2032C20.056 21.8348 21.1086 21.0549 21.8157 19.9967C22.5228 18.9385 22.8406 17.6677 22.7148 16.4012C22.589 15.1347 22.0274 13.9512 21.126 13.0527C20.5513 12.4784 19.8564 12.0387 19.0914 11.7652C18.3264 11.4916 17.5103 11.3911 16.7018 11.4709C15.8933 11.5506 15.1125 11.8086 14.4157 12.2264C13.7188 12.6441 13.1233 13.2111 12.6719 13.8866C12.2205 14.5621 11.9245 15.3293 11.8052 16.1329C11.6859 16.9365 11.7462 17.7566 11.9819 18.5341C12.2176 19.3116 12.6227 20.0272 13.1682 20.6294C13.7136 21.2315 14.3857 21.7052 15.1362 22.0164ZM11.2534 10.9518C12.0395 10.1657 12.9729 9.54201 14.0001 9.11653C15.0273 8.69105 16.1283 8.47205 17.2401 8.47205C18.3519 8.47205 19.4529 8.69104 20.4801 9.11653C21.5073 9.54201 22.4407 10.1657 23.2269 10.9518C24.0131 11.738 24.6367 12.6714 25.0622 13.6986C25.4877 14.7258 25.7067 15.8268 25.7067 16.9386C25.7067 18.0504 25.4877 19.1514 25.0622 20.1786C24.6367 21.2058 24.0131 22.1392 23.2269 22.9253C21.6391 24.5131 19.4856 25.4051 17.2401 25.4051C14.9946 25.4051 12.8411 24.5131 11.2534 22.9253C9.66557 21.3376 8.77357 19.1841 8.77357 16.9386C8.77357 14.6931 9.66557 12.5396 11.2534 10.9518ZM27.5844 9.73293C27.7792 9.54915 27.9352 9.32815 28.0431 9.08301C28.1509 8.83786 28.2085 8.57357 28.2124 8.30577C28.2164 8.03797 28.1665 7.77211 28.0658 7.52393C27.9651 7.27575 27.8156 7.05029 27.6263 6.86091C27.4369 6.67153 27.2114 6.52207 26.9632 6.42138C26.7151 6.32069 26.4492 6.27082 26.1814 6.27473C25.9136 6.27863 25.6493 6.33623 25.4042 6.44411C25.159 6.55199 24.938 6.70795 24.7542 6.90278C24.3968 7.28167 24.2011 7.78495 24.2087 8.30577C24.2163 8.82659 24.4266 9.32395 24.7949 9.69227C25.1632 10.0606 25.6606 10.2709 26.1814 10.2784C26.7022 10.286 27.2055 10.0904 27.5844 9.73293Z" fill="#F32735"/>
</svg>
