<svg width="21" height="20" viewBox="0 0 21 20" fill="none" xmlns="http://www.w3.org/2000/svg">
<path fill-rule="evenodd" clip-rule="evenodd" d="M6.6043 0.888008C7.5818 0.843008 7.89346 0.833008 10.3835 0.833008C12.8735 0.833008 13.1851 0.843841 14.1618 0.888008C15.1385 0.932174 15.8051 1.08801 16.3885 1.31384C16.9993 1.54467 17.5535 1.90551 18.0118 2.37217C18.4785 2.82967 18.8385 3.38301 19.0685 3.99467C19.2951 4.57801 19.4501 5.24467 19.4951 6.21967C19.5401 7.19884 19.5501 7.51051 19.5501 9.99967C19.5501 12.4897 19.5393 12.8013 19.4951 13.7788C19.451 14.7538 19.2951 15.4205 19.0685 16.0038C18.8385 16.6156 18.4779 17.1698 18.0118 17.628C17.5535 18.0947 16.9993 18.4547 16.3885 18.6847C15.8051 18.9113 15.1385 19.0663 14.1635 19.1113C13.1851 19.1563 12.8735 19.1663 10.3835 19.1663C7.89346 19.1663 7.5818 19.1555 6.6043 19.1113C5.6293 19.0672 4.96263 18.9113 4.3793 18.6847C3.76756 18.4546 3.21331 18.0941 2.75513 17.628C2.28878 17.1702 1.92789 16.6162 1.69763 16.0047C1.4718 15.4213 1.3168 14.7547 1.2718 13.7797C1.2268 12.8005 1.2168 12.4888 1.2168 9.99967C1.2168 7.50967 1.22763 7.19801 1.2718 6.22134C1.31596 5.24467 1.4718 4.57801 1.69763 3.99467C1.92823 3.38308 2.2894 2.8291 2.75596 2.37134C3.2135 1.90509 3.76719 1.54421 4.37846 1.31384C4.9618 1.08801 5.62846 0.933008 6.60346 0.888008H6.6043ZM14.0876 2.53801C13.121 2.49384 12.831 2.48467 10.3835 2.48467C7.93596 2.48467 7.64596 2.49384 6.6793 2.53801C5.78513 2.57884 5.30013 2.72801 4.9768 2.85384C4.5493 3.02051 4.24346 3.21801 3.92263 3.53884C3.6185 3.83472 3.38445 4.19491 3.23763 4.59301C3.1118 4.91634 2.96263 5.40134 2.9218 6.29551C2.87763 7.26217 2.86846 7.55217 2.86846 9.99967C2.86846 12.4472 2.87763 12.7372 2.9218 13.7038C2.96263 14.598 3.1118 15.083 3.23763 15.4063C3.3843 15.8038 3.61846 16.1647 3.92263 16.4605C4.21846 16.7647 4.5793 16.9988 4.9768 17.1455C5.30013 17.2713 5.78513 17.4205 6.6793 17.4613C7.64596 17.5055 7.93513 17.5147 10.3835 17.5147C12.8318 17.5147 13.121 17.5055 14.0876 17.4613C14.9818 17.4205 15.4668 17.2713 15.7901 17.1455C16.2176 16.9788 16.5235 16.7813 16.8443 16.4605C17.1485 16.1647 17.3826 15.8038 17.5293 15.4063C17.6551 15.083 17.8043 14.598 17.8451 13.7038C17.8893 12.7372 17.8985 12.4472 17.8985 9.99967C17.8985 7.55217 17.8893 7.26217 17.8451 6.29551C17.8043 5.40134 17.6551 4.91634 17.5293 4.59301C17.3626 4.16551 17.1651 3.85967 16.8443 3.53884C16.5484 3.23473 16.1882 3.00068 15.7901 2.85384C15.4668 2.72801 14.9818 2.57884 14.0876 2.53801ZM9.21263 12.8255C9.86651 13.0977 10.5946 13.1344 11.2726 12.9294C11.9505 12.7244 12.5363 12.2904 12.9298 11.7015C13.3233 11.1126 13.5002 10.4054 13.4302 9.70059C13.3602 8.99579 13.0476 8.33715 12.546 7.83717C12.2262 7.51757 11.8395 7.27285 11.4137 7.12063C10.988 6.96841 10.5338 6.91247 10.0839 6.95685C9.63393 7.00123 9.19942 7.14482 8.81163 7.37728C8.42384 7.60974 8.09242 7.92529 7.84122 8.30122C7.59001 8.67714 7.42529 9.10408 7.35889 9.55131C7.2925 9.99853 7.32609 10.4549 7.45725 10.8876C7.5884 11.3203 7.81386 11.7185 8.1174 12.0536C8.42093 12.3887 8.79498 12.6523 9.21263 12.8255ZM7.0518 6.66801C7.48932 6.23049 8.00873 5.88343 8.58038 5.64664C9.15203 5.40986 9.76472 5.28799 10.3835 5.28799C11.0022 5.28799 11.6149 5.40986 12.1865 5.64664C12.7582 5.88343 13.2776 6.23049 13.7151 6.66801C14.1527 7.10553 14.4997 7.62494 14.7365 8.19659C14.9733 8.76824 15.0952 9.38093 15.0952 9.99967C15.0952 10.6184 14.9733 11.2311 14.7365 11.8028C14.4997 12.3744 14.1527 12.8938 13.7151 13.3313C12.8315 14.215 11.6331 14.7114 10.3835 14.7114C9.13385 14.7114 7.93541 14.215 7.0518 13.3313C6.16818 12.4477 5.67178 11.2493 5.67178 9.99967C5.67178 8.75006 6.16818 7.55162 7.0518 6.66801ZM16.1401 5.98967C16.2486 5.8874 16.3353 5.76441 16.3954 5.62799C16.4554 5.49156 16.4875 5.34448 16.4896 5.19545C16.4918 5.04642 16.4641 4.89846 16.408 4.76035C16.352 4.62223 16.2688 4.49677 16.1634 4.39137C16.058 4.28598 15.9326 4.20281 15.7945 4.14677C15.6563 4.09074 15.5084 4.06299 15.3594 4.06516C15.2103 4.06733 15.0632 4.09939 14.9268 4.15942C14.7904 4.21946 14.6674 4.30625 14.5651 4.41467C14.3662 4.62553 14.2573 4.90561 14.2615 5.19545C14.2658 5.48529 14.3828 5.76207 14.5878 5.96704C14.7927 6.17201 15.0695 6.28903 15.3594 6.29326C15.6492 6.29748 15.9293 6.18858 16.1401 5.98967Z" fill="#F32735"/>
</svg>
