<svg width="35" height="35" viewBox="0 0 35 35" fill="none" xmlns="http://www.w3.org/2000/svg">
<path fill-rule="evenodd" clip-rule="evenodd" d="M13.7507 13.0796H19.167V15.7775C19.9472 14.2259 21.948 12.8317 24.9536 12.8317C30.7155 12.8317 32.0834 15.9205 32.0834 21.5875V32.0832H26.2501V22.8782C26.2501 19.6509 25.4699 17.8309 23.4836 17.8309C20.7288 17.8309 19.584 19.7923 19.584 22.8767V32.0832H13.7507V13.0796ZM3.748 31.8352H9.58133V12.8317H3.748V31.8352ZM10.417 6.63525C10.4172 7.1242 10.3202 7.6083 10.1317 8.05944C9.94317 8.51058 9.66687 8.91975 9.31883 9.26317C8.61358 9.96408 7.65897 10.3564 6.66467 10.354C5.67211 10.3533 4.7197 9.962 4.01341 9.26463C3.66664 8.92004 3.39127 8.51041 3.20308 8.05922C3.0149 7.60802 2.91759 7.12412 2.91675 6.63525C2.91675 5.64796 3.3105 4.70296 4.01487 4.00588C4.72054 3.30757 5.67335 2.91607 6.66612 2.9165C7.66071 2.9165 8.61446 3.3088 9.31883 4.00588C10.0217 4.70296 10.417 5.64796 10.417 6.63525Z" fill="#F32735"/>
</svg>
