<svg width="18" height="18" viewBox="0 0 18 18" fill="none" xmlns="http://www.w3.org/2000/svg">
<g clip-path="url(#clip0_3624_115932)">
<path d="M8.995 17.99C13.9628 17.99 17.99 13.9628 17.99 8.995C17.99 4.0272 13.9628 0 8.995 0C4.0272 0 0 4.0272 0 8.995C0 13.9628 4.0272 17.99 8.995 17.99Z" fill="#F0F0F0"/>
<path d="M1.85913 3.51855C1.15257 4.43784 0.619792 5.49738 0.30957 6.64843H4.98901L1.85913 3.51855Z" fill="#00247D"/>
<path d="M17.6794 6.64839C17.3691 5.49738 16.8363 4.43784 16.1298 3.51855L13 6.64839H17.6794Z" fill="#00247D"/>
<path d="M0.30957 11.3416C0.619828 12.4926 1.15261 13.5521 1.85913 14.4714L4.9889 11.3416H0.30957Z" fill="#00247D"/>
<path d="M14.4707 1.85941C13.5514 1.15285 12.4919 0.620072 11.3408 0.309814V4.98922L14.4707 1.85941Z" fill="#00247D"/>
<path d="M3.51855 16.1305C4.43784 16.8371 5.49738 17.3698 6.64839 17.6801V13.0007L3.51855 16.1305Z" fill="#00247D"/>
<path d="M6.64836 0.309814C5.49735 0.620072 4.4378 1.15285 3.51855 1.85938L6.64836 4.98918V0.309814Z" fill="#00247D"/>
<path d="M11.3408 17.6801C12.4918 17.3698 13.5514 16.8371 14.4706 16.1305L11.3408 13.0007V17.6801Z" fill="#00247D"/>
<path d="M13 11.3416L16.1298 14.4714C16.8363 13.5521 17.3691 12.4926 17.6794 11.3416H13Z" fill="#00247D"/>
<path d="M17.9139 7.82175H10.1683H10.1683V0.0761413C9.78421 0.0261417 9.39264 0 8.995 0C8.59729 0 8.20579 0.0261417 7.82175 0.0761413V7.82168V7.82171H0.0761413C0.0261417 8.20579 0 8.59736 0 8.995C0 9.39271 0.0261417 9.78421 0.0761413 10.1683H7.82168H7.82171V17.9139C8.20579 17.9639 8.59729 17.99 8.995 17.99C9.39264 17.99 9.78421 17.9639 10.1683 17.9139V10.1683V10.1683H17.9139C17.9639 9.78421 17.99 9.39271 17.99 8.995C17.99 8.59736 17.9639 8.20579 17.9139 7.82175Z" fill="#D80027"/>
<path d="M11.3418 11.3416L15.3557 15.3555C15.5403 15.1709 15.7164 14.978 15.8844 14.778L12.448 11.3416H11.3418V11.3416Z" fill="#D80027"/>
<path d="M6.64868 11.3416H6.64861L2.63477 15.3554C2.8193 15.54 3.01224 15.7161 3.21224 15.8841L6.64868 12.4476V11.3416Z" fill="#D80027"/>
<path d="M6.64808 6.6485V6.64843L2.63421 2.63452C2.4496 2.81906 2.27349 3.012 2.10547 3.21199L5.54194 6.64847L6.64808 6.6485Z" fill="#D80027"/>
<path d="M11.3418 6.64861L15.3557 2.63466C15.1712 2.45005 14.9782 2.27395 14.7782 2.10596L11.3418 5.54243V6.64861Z" fill="#D80027"/>
</g>
<defs>
<clipPath id="clip0_3624_115932">
<rect width="17.99" height="17.99" fill="white"/>
</clipPath>
</defs>
</svg>
