<svg width="648" height="167" viewBox="0 0 648 167" fill="none" xmlns="http://www.w3.org/2000/svg">
<path d="M37.944 96.784L36.8971 100.645L36.9224 100.651L36.9478 100.658L37.944 96.784ZM27.208 98.544H31.208V94.544H27.208V98.544ZM0.984 98.544V94.544H-3.016V98.544H0.984ZM50.968 76.72L49.8998 80.5747L49.9186 80.5799L49.9374 80.5849L50.968 76.72ZM36.36 72.672L37.4282 68.8173L37.3637 68.7994L37.2986 68.7837L36.36 72.672ZM45.336 70.208H41.336V74.208H45.336V70.208ZM71.56 70.208V74.208H75.56V70.208H71.56ZM27.56 93.968L26.5031 97.8258L26.5131 97.8286L27.56 93.968ZM36.9478 100.658C38.491 101.055 39.6213 101.359 40.481 101.634C41.3694 101.918 41.7365 102.099 41.8614 102.175C41.9053 102.202 41.6307 102.032 41.4346 101.62C41.2794 101.293 41.336 101.138 41.336 101.536H49.336C49.336 100.614 49.2386 99.4028 48.6599 98.1854C48.0403 96.8816 47.0727 95.9857 46.0386 95.3526C45.0855 94.769 43.9897 94.3564 42.9145 94.0131C41.8107 93.6606 40.477 93.3052 38.9402 92.91L36.9478 100.658ZM41.336 101.536C41.336 101.56 41.3399 101.563 41.3096 101.609C41.2617 101.682 41.1094 101.869 40.7339 102.097C39.9489 102.572 38.5584 102.992 36.712 102.992V110.992C39.6176 110.992 42.5391 110.356 44.8781 108.939C47.2697 107.491 49.336 104.989 49.336 101.536H41.336ZM36.712 102.992C34.3259 102.992 33.0539 102.177 32.3475 101.399C31.5491 100.52 31.208 99.3889 31.208 98.544H23.208C23.208 101.219 24.1869 104.312 26.4245 106.777C28.7541 109.343 32.2341 110.992 36.712 110.992V102.992ZM27.208 94.544H0.984V102.544H27.208V94.544ZM-3.016 98.544C-3.016 109.51 2.32923 117.908 9.97011 123.433C17.5124 128.887 27.2997 131.584 36.712 131.584V123.584C28.7003 123.584 20.6236 121.265 14.6579 116.951C8.79077 112.708 4.984 106.586 4.984 98.544H-3.016ZM36.712 131.584C45.9255 131.584 55.9698 129.551 63.8579 124.862C71.8794 120.094 77.848 112.413 77.848 101.536H69.848C69.848 108.963 65.9606 114.306 59.7701 117.986C53.4462 121.745 44.9225 123.584 36.712 123.584V131.584ZM77.848 101.536C77.848 98.5508 77.3371 92.9156 73.707 87.1854C70.0198 81.3649 63.3981 75.8949 51.9987 72.8551L49.9374 80.5849C59.6579 83.1771 64.4762 87.5631 66.949 91.4666C69.479 95.4604 69.848 99.4172 69.848 101.536H77.848ZM52.0362 72.8653L37.4282 68.8173L35.2918 76.5267L49.8998 80.5747L52.0362 72.8653ZM37.2986 68.7837C35.0526 68.2416 34.3423 67.6815 34.1944 67.5336C34.1542 67.4933 34.1857 67.517 34.2094 67.5828C34.2251 67.6267 34.2 67.5897 34.2 67.392H26.2C26.2 69.2163 26.7012 71.354 28.5376 73.1904C30.1937 74.8465 32.5634 75.8704 35.4214 76.5603L37.2986 68.7837ZM34.2 67.392C34.2 67.2551 34.2242 67.2993 34.1632 67.3962C34.1161 67.4712 34.1095 67.4294 34.2901 67.3267C34.7306 67.076 35.669 66.816 37.064 66.816V58.816C34.939 58.816 32.4454 59.172 30.3339 60.3733C28.0001 61.7012 26.2 64.0737 26.2 67.392H34.2ZM37.064 66.816C39.2691 66.816 40.2162 67.3227 40.5885 67.6536C40.8734 67.9069 41.336 68.5079 41.336 70.208H49.336C49.336 66.9801 48.3906 63.8851 45.9035 61.6744C43.5038 59.5413 40.3149 58.816 37.064 58.816V66.816ZM45.336 74.208H71.56V66.208H45.336V74.208ZM75.56 70.208C75.56 58.1783 70.2317 49.8454 62.3231 44.701C54.6422 39.7047 44.806 37.872 35.656 37.872V45.872C43.93 45.872 52.0458 47.5593 57.9609 51.407C63.6483 55.1066 67.56 60.9417 67.56 70.208H75.56ZM35.656 37.872C25.6278 37.872 16.4207 41.2395 9.65724 46.3611C2.97385 51.4221 -1.784 58.5947 -1.784 66.336H6.216C6.216 61.9333 9.02615 56.8739 14.4868 52.7389C19.8673 48.6645 27.3802 45.872 35.656 45.872V37.872ZM-1.784 66.336C-1.784 69.318 -1.92586 75.4797 1.80944 81.7928C5.6029 88.2043 12.9563 94.1144 26.5031 97.8258L28.6169 90.1102C16.4677 86.7816 11.1491 81.8677 8.69456 77.7191C6.18186 73.4723 6.216 69.338 6.216 66.336H-1.784ZM26.5131 97.8286L36.8971 100.645L38.9909 92.9234L28.6069 90.1074L26.5131 97.8286ZM142.759 14.592H146.759V10.592H142.759V14.592ZM115.127 14.592V10.592H111.127V14.592H115.127ZM115.127 43.984V47.984H119.127V43.984H115.127ZM100.167 43.984V39.984H96.1669V43.984H100.167ZM100.167 64.576H96.1669V68.576H100.167V64.576ZM115.127 64.576H119.127V60.576H115.127V64.576ZM115.127 126H111.127V130H115.127V126ZM142.759 126V130H146.759V126H142.759ZM142.759 64.576V60.576H138.759V64.576H142.759ZM160.007 64.576V68.576H164.007V64.576H160.007ZM160.007 43.984H164.007V39.984H160.007V43.984ZM142.759 43.984H138.759V47.984H142.759V43.984ZM142.759 10.592H115.127V18.592H142.759V10.592ZM111.127 14.592V43.984H119.127V14.592H111.127ZM115.127 39.984H100.167V47.984H115.127V39.984ZM96.1669 43.984V64.576H104.167V43.984H96.1669ZM100.167 68.576H115.127V60.576H100.167V68.576ZM111.127 64.576V126H119.127V64.576H111.127ZM115.127 130H142.759V122H115.127V130ZM146.759 126V64.576H138.759V126H146.759ZM142.759 68.576H160.007V60.576H142.759V68.576ZM164.007 64.576V43.984H156.007V64.576H164.007ZM160.007 39.984H142.759V47.984H160.007V39.984ZM146.759 43.984V14.592H138.759V43.984H146.759ZM266.151 112.272L269.345 114.68L271.853 111.354L268.428 108.983L266.151 112.272ZM246.791 98.368L249.352 95.2951L246.298 92.75L243.734 95.7885L246.791 98.368ZM212.295 92.736V88.736H207.815L208.321 93.1876L212.295 92.736ZM271.079 92.736V96.736H274.784L275.068 93.0428L271.079 92.736ZM212.295 77.072L208.361 76.3507L207.495 81.072H212.295V77.072ZM245.031 77.072V81.072H250.238L248.896 76.0413L245.031 77.072ZM275.607 83.76C275.607 69.7789 270.397 58.2303 261.825 50.1956C253.287 42.1926 241.628 37.872 229.015 37.872V45.872C239.811 45.872 249.448 49.5594 256.354 56.0324C263.226 62.4737 267.607 71.869 267.607 83.76H275.607ZM229.015 37.872C203.695 37.872 181.367 55.9214 181.367 84.464H189.367C189.367 60.9106 207.52 45.872 229.015 45.872V37.872ZM181.367 84.464C181.367 112.756 203.615 131.584 229.015 131.584V123.584C207.6 123.584 189.367 107.916 189.367 84.464H181.367ZM229.015 131.584C242.548 131.584 259.607 127.598 269.345 114.68L262.957 109.864C255.447 119.826 241.531 123.584 229.015 123.584V131.584ZM268.428 108.983C263.755 105.748 252.344 97.7883 249.352 95.2951L244.231 101.441C247.575 104.228 259.396 112.46 263.875 115.561L268.428 108.983ZM243.734 95.7885C240.018 100.192 235.209 101.232 231.127 101.232V109.232C236.549 109.232 244.06 107.808 249.849 100.947L243.734 95.7885ZM231.127 101.232C227.292 101.232 223.553 100.206 220.784 98.4888C218.028 96.7794 216.534 94.6092 216.27 92.2844L208.321 93.1876C208.937 98.6068 212.371 102.685 216.567 105.287C220.75 107.882 225.987 109.232 231.127 109.232V101.232ZM212.295 96.736H271.079V88.736H212.295V96.736ZM275.068 93.0428C275.237 90.842 275.607 86.0669 275.607 83.76H267.607C267.607 85.6771 267.274 90.054 267.091 92.4292L275.068 93.0428ZM216.23 77.7933C216.936 73.941 219.074 71.8505 221.514 70.5988C224.112 69.2653 227.035 68.928 228.663 68.928V60.928C226.244 60.928 221.951 61.3827 217.861 63.4812C213.612 65.6615 209.591 69.643 208.361 76.3507L216.23 77.7933ZM228.663 68.928C230.462 68.928 233.131 69.2634 235.546 70.5627C237.825 71.7883 240.06 73.9546 241.166 78.1026L248.896 76.0413C247.186 69.6294 243.438 65.7237 239.336 63.5173C235.372 61.3846 231.265 60.928 228.663 60.928V68.928ZM245.031 73.072H212.295V81.072H245.031V73.072ZM332.469 118.432L335.384 115.693L328.469 108.332V118.432H332.469ZM330.885 55.776H326.885L334.501 57.4855L330.885 55.776ZM330.885 43.984H334.885V39.984H330.885V43.984ZM304.485 43.984V39.984H300.485V43.984H304.485ZM304.485 166.48H300.485V170.48H304.485V166.48ZM332.469 166.48V170.48H336.469V166.48H332.469ZM329.554 121.171C335.823 127.845 344.3 131.584 355.173 131.584V123.584C346.334 123.584 340.027 120.635 335.384 115.693L329.554 121.171ZM355.173 131.584C377.6 131.584 399.125 113.447 399.125 84.64H391.125C391.125 108.985 373.226 123.584 355.173 123.584V131.584ZM399.125 84.64C399.125 55.623 377.566 37.872 355.173 37.872V45.872C373.26 45.872 391.125 60.153 391.125 84.64H399.125ZM355.173 37.872C345.427 37.872 332.729 42.5162 327.269 54.0665L334.501 57.4855C338.193 49.6758 347.319 45.872 355.173 45.872V37.872ZM334.885 55.776V43.984H326.885V55.776H334.885ZM330.885 39.984H304.485V47.984H330.885V39.984ZM300.485 43.984V166.48H308.485V43.984H300.485ZM304.485 170.48H332.469V162.48H304.485V170.48ZM336.469 166.48V118.432H328.469V166.48H336.469ZM362.613 84.464C362.613 91.5829 356.66 97.536 349.541 97.536V105.536C361.078 105.536 370.613 96.0011 370.613 84.464H362.613ZM349.541 97.536C342.256 97.536 336.469 91.9487 336.469 84.992H328.469C328.469 96.6913 338.17 105.536 349.541 105.536V97.536ZM336.469 84.992C336.469 77.7144 342.578 71.392 349.541 71.392V63.392C337.848 63.392 328.469 73.6136 328.469 84.992H336.469ZM349.541 71.392C356.66 71.392 362.613 77.3451 362.613 84.464H370.613C370.613 72.9269 361.078 63.392 349.541 63.392V71.392ZM429.335 126H425.335V130H429.335V126ZM457.319 126V130H461.319V126H457.319ZM457.319 0.863996H461.319V-3.136H457.319V0.863996ZM429.335 0.863996V-3.136H425.335V0.863996H429.335ZM429.335 130H457.319V122H429.335V130ZM461.319 126V0.863996H453.319V126H461.319ZM457.319 -3.136H429.335V4.864H457.319V-3.136ZM425.335 0.863996V126H433.335V0.863996H425.335ZM496.091 126H492.091V130H496.091V126ZM524.075 126V130H528.075V126H524.075ZM524.075 43.984H528.075V39.984H524.075V43.984ZM496.091 43.984V39.984H492.091V43.984H496.091ZM496.091 130H524.075V122H496.091V130ZM528.075 126V43.984H520.075V126H528.075ZM524.075 39.984H496.091V47.984H524.075V39.984ZM492.091 43.984V126H500.091V43.984H492.091ZM489.099 16.704C489.099 28.1353 498.889 36.72 509.995 36.72V28.72C502.798 28.72 497.099 23.2247 497.099 16.704H489.099ZM509.995 36.72C521.362 36.72 530.715 28.0561 530.715 16.704H522.715C522.715 23.3039 517.285 28.72 509.995 28.72V36.72ZM530.715 16.704C530.715 5.29552 521.302 -3.136 509.995 -3.136V4.864C517.344 4.864 522.715 10.1605 522.715 16.704H530.715ZM509.995 -3.136C498.949 -3.136 489.099 5.21698 489.099 16.704H497.099C497.099 10.239 502.738 4.864 509.995 4.864V-3.136ZM552.639 126L549.409 123.641L544.766 130H552.639V126ZM584.847 126V130H586.965L588.156 128.249L584.847 126ZM600.159 103.472L603.468 101.223L600.159 96.3562L596.851 101.223L600.159 103.472ZM615.471 126L612.163 128.249L613.354 130H615.471V126ZM647.503 126V130H655.326L650.746 123.658L647.503 126ZM615.471 81.648L612.225 79.3116L610.54 81.6522L612.229 83.99L615.471 81.648ZM642.576 43.984L645.822 46.3204L650.382 39.984H642.576V43.984ZM610.543 43.984V39.984H608.369L607.186 41.8094L610.543 43.984ZM600.511 59.472L597.207 61.7253L600.597 66.6978L603.869 61.6466L600.511 59.472ZM589.951 43.984L593.256 41.7306L592.065 39.984H589.951V43.984ZM557.743 43.984V39.984H549.907L554.504 46.3304L557.743 43.984ZM585.023 81.648L588.254 84.0068L589.969 81.6575L588.263 79.3016L585.023 81.648ZM552.639 130H584.847V122H552.639V130ZM588.156 128.249L603.468 105.721L596.851 101.223L581.539 123.751L588.156 128.249ZM596.851 105.721L612.163 128.249L618.78 123.751L603.468 101.223L596.851 105.721ZM615.471 130H647.503V122H615.471V130ZM650.746 123.658L618.714 79.306L612.229 83.99L644.261 128.342L650.746 123.658ZM618.718 83.9844L645.822 46.3204L639.329 41.6476L612.225 79.3116L618.718 83.9844ZM642.576 39.984H610.543V47.984H642.576V39.984ZM607.186 41.8094L597.154 57.2974L603.869 61.6466L613.901 46.1586L607.186 41.8094ZM603.816 57.2187L593.256 41.7306L586.647 46.2373L597.207 61.7253L603.816 57.2187ZM589.951 39.984H557.743V47.984H589.951V39.984ZM554.504 46.3304L581.784 83.9944L588.263 79.3016L560.983 41.6376L554.504 46.3304ZM581.793 79.2892L549.409 123.641L555.87 128.359L588.254 84.0068L581.793 79.2892Z" fill="white"/>
</svg>
