<svg width="35" height="35" viewBox="0 0 35 35" fill="none" xmlns="http://www.w3.org/2000/svg">
<path d="M0.511219 13.1451C2.80572 3.86989 12.1835 -1.78445 21.4552 0.510931C30.727 2.80631 36.3866 12.1814 34.0903 21.455C31.7941 30.7285 22.4189 36.3845 13.1446 34.0892C3.87018 31.7938 -1.78504 22.4143 0.511219 13.1451Z" fill="#E52A18"/>
<path d="M1.00879 11.4902H33.5927C32.6349 8.79947 31.0248 6.38821 28.9067 4.4723C26.7885 2.55639 24.2282 1.19562 21.4552 0.511814C12.7485 -1.64339 3.94898 3.21107 1.00879 11.4911" fill="#E52A18"/>
<path d="M34.2269 20.8552C34.2348 20.8184 34.2427 20.7816 34.2497 20.7448C34.2628 20.6809 34.2751 20.6161 34.2882 20.5521L34.3093 20.4408C34.3215 20.3742 34.3329 20.3077 34.3452 20.2411C34.3504 20.2069 34.3566 20.1736 34.3627 20.1403L34.4021 19.8906L34.41 19.8416C34.4252 19.7417 34.4392 19.6418 34.4521 19.542C34.4521 19.5157 34.4582 19.4894 34.4617 19.4622C34.4713 19.3895 34.4801 19.3159 34.4889 19.2423C34.4889 19.2082 34.4967 19.1731 34.5003 19.1381C34.5073 19.0724 34.5134 19.0067 34.5204 18.941L34.5309 18.8323C34.5362 18.7666 34.5423 18.7 34.5467 18.6334L34.5546 18.5327C34.5607 18.4565 34.5651 18.3802 34.5695 18.304C34.5695 18.2812 34.5695 18.2585 34.5695 18.2348C34.5756 18.1349 34.58 18.0351 34.5835 17.9352C34.5835 17.9194 34.5835 17.9028 34.5835 17.887C34.5835 17.8038 34.5887 17.7214 34.5905 17.6391C34.5905 17.6075 34.5905 17.576 34.5905 17.5445C34.5905 17.477 34.5905 17.4087 34.5905 17.3403V17.2378C34.5905 17.1712 34.5905 17.1047 34.5905 17.0381C34.5905 17.0048 34.5905 16.9724 34.5905 16.9391C34.5905 16.8664 34.5905 16.7928 34.5844 16.72V16.6447C34.5773 16.4467 34.566 16.2496 34.552 16.0525C34.552 16.0262 34.5519 16.0008 34.5458 15.9745C34.5406 15.9026 34.5344 15.8308 34.5283 15.759C34.5283 15.7274 34.5222 15.6959 34.5195 15.6652C34.5134 15.5969 34.5064 15.5294 34.4985 15.462C34.4985 15.4304 34.4924 15.3998 34.4889 15.3682C34.481 15.2964 34.4722 15.2245 34.4626 15.1536C34.4626 15.1282 34.4564 15.1028 34.4538 15.0774C34.4287 14.8817 34.3995 14.6866 34.3662 14.4921C34.3662 14.4746 34.3601 14.4571 34.3575 14.4396C34.3443 14.3607 34.3303 14.2827 34.3163 14.2039C34.311 14.1776 34.3066 14.1504 34.3014 14.1242C34.2882 14.0532 34.2742 13.9831 34.2602 13.913C34.2549 13.8859 34.2497 13.8578 34.2436 13.8254C34.2287 13.7536 34.2138 13.6817 34.198 13.6108L34.1822 13.5389C34.163 13.4513 34.1428 13.3637 34.1218 13.2761V13.2568C34.099 13.1692 34.0762 13.0737 34.0526 12.9826C33.9217 12.475 33.7684 11.976 33.5926 11.4854H1.00874C0.817755 12.0227 0.651886 12.5743 0.511126 13.1403C-0.0480354 15.387 -0.148758 17.7233 0.214993 20.0098C0.214993 20.0194 0.214993 20.0291 0.214993 20.0387C0.228135 20.1202 0.241295 20.2017 0.256189 20.2823C0.256189 20.2989 0.262309 20.3164 0.264937 20.3331L0.306988 20.56L0.320142 20.6274C0.33416 20.6984 0.349054 20.7694 0.363947 20.8403C0.369204 20.8675 0.375332 20.8938 0.380588 20.9209C0.395482 20.9884 0.4095 21.0559 0.42527 21.1224C0.432279 21.154 0.440164 21.1855 0.447172 21.2171C0.462066 21.2801 0.476085 21.3423 0.491854 21.4054C0.503244 21.4527 0.516377 21.5 0.527767 21.5473L0.582972 21.7602C0.602246 21.8303 0.620637 21.8995 0.640787 21.9696L0.667074 22.0572C0.686348 22.1229 0.704739 22.1887 0.724889 22.2544C0.734526 22.285 0.744169 22.3157 0.75293 22.3472C0.77308 22.4121 0.793226 22.4778 0.814253 22.5435C0.82389 22.5733 0.834411 22.603 0.844048 22.6311C0.865074 22.6968 0.886976 22.7625 0.908878 22.8273C0.919392 22.8571 0.929016 22.8869 0.939529 22.9149C0.962308 22.9806 0.985089 23.0463 1.00874 23.1121L1.02453 23.1585C1.03942 23.1988 1.05344 23.24 1.06833 23.2803H33.5208C33.5348 23.24 33.5488 23.1988 33.5637 23.1585C33.6005 23.0569 33.6347 22.9552 33.6697 22.8527C33.6727 22.8426 33.6762 22.8327 33.6802 22.823C33.7246 22.6886 33.7678 22.5543 33.8099 22.4199C33.816 22.4007 33.8222 22.3823 33.8274 22.363C33.8668 22.2368 33.9036 22.1098 33.9396 21.9819C33.9466 21.9547 33.9553 21.9285 33.9623 21.9013C34.0044 21.7494 34.0447 21.5964 34.0832 21.4422C34.1078 21.3423 34.1314 21.2433 34.1542 21.1435L34.1752 21.048C34.1901 20.9796 34.2059 20.9113 34.2199 20.843" fill="#FFD300"/>
</svg>
