<svg width="35" height="35" viewBox="0 0 35 35" fill="none" xmlns="http://www.w3.org/2000/svg">
<path d="M0.522622 13.1567C2.81571 3.8872 12.1877 -1.76279 21.4537 0.531176C30.7197 2.82514 36.3732 12.1945 34.081 21.4623C31.7888 30.73 22.4168 36.3826 13.1482 34.0878C3.87951 31.793 -1.77221 22.4245 0.522622 13.1567Z" fill="#F6F6F6"/>
<path d="M33.2865 10.7362H19.8983V13.383H34.1402C33.9269 12.4793 33.6415 11.5941 33.2865 10.7362ZM29.8718 5.44078H19.8983V8.08934H31.9232C31.3266 7.14225 30.6396 6.25525 29.8718 5.44078ZM4.81686 29.2673H29.7886C30.5675 28.4552 31.2648 27.5687 31.8707 26.6205H2.73828C3.34416 27.5678 4.04026 28.4542 4.81686 29.2673ZM21.4525 0.530643C20.9335 0.402228 20.4146 0.29892 19.8957 0.220703V2.79397H26.6927C25.0838 1.7536 23.3128 0.988674 21.4525 0.530643ZM34.5412 16.028H19.8983V18.6775H34.5342C34.6061 17.7959 34.6093 16.9101 34.5438 16.028H34.5412ZM1.35139 23.9728H33.2532C33.5924 23.1577 33.869 22.318 34.0806 21.4609C34.092 21.4153 34.1016 21.3733 34.113 21.3243H0.486328C0.70315 22.2289 0.992446 23.1146 1.35139 23.9728ZM13.1487 34.0882C14.154 34.3372 15.1795 34.496 16.2131 34.5627H18.4125C21.3042 34.3754 24.1024 33.4644 26.55 31.9133H8.04766C9.61983 32.9087 11.3427 33.6431 13.1495 34.0882" fill="#E52A18"/>
<path d="M18.5873 17.7082L18.2143 17.4359L17.8396 17.7082L17.9823 17.2704L17.6093 16.9981H18.0707L18.2143 16.5603L18.3553 16.9981H18.8176L18.4446 17.2704L18.5873 17.7082ZM16.7486 3.77628L16.8905 4.21406L16.5175 3.94176L16.1436 4.21406L16.2872 3.77628L15.9133 3.50661H16.3739L16.5175 3.06883L16.6602 3.50661H17.1225L16.7486 3.77628ZM16.7486 7.75656L16.8905 8.19434L16.5175 7.92205L16.1436 8.19434L16.2872 7.75656L15.9133 7.48427H16.3739L16.5175 7.04649L16.6602 7.48427H17.1225L16.7486 7.75656ZM16.7145 11.6554L16.8572 12.0932L16.4824 11.8209L16.1095 12.0932L16.2522 11.6554L15.8774 11.384H16.3397L16.4824 10.9462L16.6252 11.384H17.0883L16.7145 11.6554ZM16.823 15.9457L16.4483 15.6734L16.0753 15.9457L16.218 15.5079L15.8433 15.2356H16.3065L16.4483 14.7978L16.591 15.2356H17.0533L16.6794 15.5079L16.823 15.9457ZM14.9844 5.70163L15.128 6.13941L14.755 5.86974L14.3794 6.13941L14.5229 5.70163L14.15 5.42933H14.6114L14.755 4.99156L14.8959 5.42933H15.3573L14.9844 5.70163ZM14.9844 9.55409L15.128 9.99187L14.755 9.71957L14.3794 9.99187L14.5229 9.55409L14.15 9.28179H14.6114L14.755 8.84401L14.8959 9.28179H15.3573L14.9844 9.55409ZM14.9844 13.4941L15.128 13.9319L14.755 13.6605L14.3794 13.9319L14.5229 13.4941L14.15 13.2244H14.6114L14.755 12.7866L14.8959 13.2244H15.3573L14.9844 13.4941ZM15.128 17.6968L14.755 17.4245L14.3794 17.6968L14.5229 17.259L14.15 16.9867H14.6114L14.755 16.5489L14.8959 16.9867H15.3573L14.9844 17.259L15.128 17.6968ZM13.2893 3.7649L13.4329 4.20268L13.0581 3.93038L12.6843 4.20268L12.8279 3.7649L12.4549 3.49523H12.9163L13.0581 3.05745L13.2009 3.49523H13.6631L13.2893 3.7649ZM13.2893 7.74518L13.4329 8.18296L13.0581 7.91066L12.6843 8.18296L12.8279 7.74518L12.4549 7.47288H12.9163L13.0581 7.0351L13.2009 7.47288H13.6631L13.2893 7.74518ZM13.256 11.644L13.3987 12.0818L13.024 11.8095L12.651 12.0818L12.7937 11.644L12.4198 11.3726H12.8857L13.0292 10.9348L13.172 11.3726H13.6343L13.256 11.644ZM13.3637 15.9343L12.9898 15.662L12.616 15.9343L12.7587 15.4965L12.3848 15.2242H12.8463L12.9898 14.7864L13.1326 15.2242H13.594L13.221 15.4965L13.3637 15.9343ZM11.525 1.8378L11.6669 2.27557L11.2939 2.00328L10.9192 2.27557L11.0619 1.8378L10.6889 1.5655H11.1512L11.2939 1.12772L11.4366 1.5655H11.8989L11.525 1.8378ZM11.525 5.69025L11.6669 6.12803L11.2939 5.85836L10.9192 6.12803L11.0619 5.69025L10.6889 5.41795H11.1512L11.2939 4.98017L11.4366 5.41795H11.8989L11.525 5.69025ZM11.525 9.5427L11.6669 9.98048L11.2939 9.70819L10.9192 9.98048L11.0619 9.5427L10.6889 9.27041H11.1512L11.2939 8.83263L11.4366 9.27041H11.8989L11.525 9.5427ZM11.525 13.4827L11.6669 13.9205L11.2939 13.6491L10.9192 13.9205L11.0619 13.4827L10.6889 13.213H11.1512L11.2939 12.7753L11.4366 13.213H11.8989L11.525 13.4827ZM11.6669 17.6854L11.2939 17.4131L10.9192 17.6854L11.0619 17.2476L10.6889 16.9753H11.1512L11.2939 16.5375L11.4366 16.9753H11.8989L11.525 17.2476L11.6669 17.6854ZM9.82821 3.61518L9.97179 4.05296L9.59617 3.78066L9.22318 4.05296L9.36679 3.61518L8.99292 3.3455H9.45347L9.59617 2.90772L9.73978 3.3455H10.2012L9.82821 3.61518ZM9.82821 7.59546L9.97179 8.03324L9.59617 7.76358L9.22318 8.03324L9.36679 7.59546L8.99292 7.32317H9.45347L9.59617 6.88539L9.73978 7.32317H10.2012L9.82821 7.59546ZM9.7923 11.4943L9.93678 11.9321L9.56291 11.6598L9.18817 11.9321L9.33175 11.4943L8.95789 11.222H9.42019L9.56291 10.7842L9.70474 11.222H10.167L9.7923 11.4943ZM9.90262 15.7898L9.52788 15.5175L9.15489 15.7898L9.29762 15.352L8.92287 15.0824H9.38429L9.52788 14.6446L9.6706 15.0824H10.1329L9.75991 15.352L9.90262 15.7898ZM8.06395 5.68237L8.20843 6.12015L7.83456 5.85047L7.45982 6.12015L7.6034 5.68237L7.23041 5.41008H7.69008L7.83456 4.9723L7.97639 5.41008H8.43694L8.06395 5.68237ZM8.06395 9.53483L8.20843 9.97261L7.83456 9.70031L7.45982 9.97261L7.6034 9.53483L7.23041 9.26253H7.69008L7.83456 8.82475L7.97639 9.26253H8.43694L8.06395 9.53483ZM8.06395 13.4748L8.20843 13.9126L7.83456 13.6412L7.45982 13.9126L7.6034 13.4748L7.23041 13.2052H7.69008L7.83456 12.7674L7.97639 13.2052H8.43694L8.06395 13.4748ZM8.20843 17.6775L7.83456 17.4052L7.45982 17.6775L7.6034 17.2397L7.23041 16.9674H7.69008L7.83456 16.5297L7.97639 16.9674H8.43694L8.06395 17.2397L8.20843 17.6775ZM6.36976 7.54906L6.51246 7.98684L6.13947 7.71454L5.76473 7.98684L5.90833 7.54906L5.53447 7.27764H5.99677L6.13947 6.83986L6.28132 7.27764H6.75674L6.36976 7.54906ZM6.3356 11.4488L6.47832 11.8866L6.10533 11.6143L5.73059 11.8866L5.8733 11.4488L5.50031 11.1765H5.96086L6.10533 10.7387L6.24629 11.1765H6.70858L6.3356 11.4488ZM6.44329 15.739L6.06942 15.4667L5.69643 15.739L5.83916 15.3012L5.46442 15.029H5.92759L6.06942 14.5912L6.21303 15.029H6.67445L6.30058 15.3012L6.44329 15.739ZM14.6018 1.54536L14.7453 1.10758L14.8863 1.54536H15.3477L14.9747 1.81766L15.1183 2.25544L14.7453 1.98314L14.3697 2.25544L14.5133 1.81766L14.1403 1.54536H14.6018ZM18.0576 13.2008L18.2012 12.763L18.3421 13.2008H18.8044L18.4314 13.4705L18.5741 13.9082L18.2012 13.6368L17.8264 13.9082L17.9691 13.4705L17.5962 13.2008H18.0576ZM18.0576 9.25552L18.2012 8.81774L18.3421 9.25552H18.8044L18.4314 9.52782L18.5741 9.96559L18.2012 9.6933L17.8264 9.96559L17.9691 9.52782L17.5962 9.25552H18.0576ZM18.0576 5.40306L18.2012 4.96528L18.3421 5.40306H18.8044L18.4314 5.67536L18.5741 6.11314L18.2012 5.84347L17.8264 6.11314L17.9691 5.67536L17.5962 5.40306H18.0576ZM18.0576 1.55061L18.2012 1.11283L18.3421 1.55061H18.8044L18.4314 1.82291L18.5741 2.26069L18.2012 1.98839L17.8264 2.26069L17.9691 1.82291L17.5962 1.55061H18.0576ZM4.60725 9.53307L4.74997 9.97085L4.37611 9.69856L4.00312 9.97085L4.14583 9.53307L3.77108 9.26078H4.2325L4.37611 8.823L4.51794 9.26078H4.98111L4.60725 9.53307ZM4.60725 13.4731L4.74997 13.9109L4.37611 13.6394L4.00312 13.9109L4.14583 13.4731L3.77108 13.2034H4.2325L4.37611 12.7656L4.51794 13.2034H4.98111L4.60725 13.4731ZM4.74997 17.6758L4.37611 17.4035L4.00312 17.6758L4.14583 17.238L3.77108 16.9657H4.2325L4.37611 16.5279L4.51794 16.9657H4.98111L4.60725 17.238L4.74997 17.6758ZM2.87802 11.3787L3.02075 11.8165L2.64688 11.5442L2.27389 11.8165L2.4166 11.3787L2.04186 11.1064H2.50503L2.64688 10.6687L2.79046 11.1064H3.25188L2.87802 11.3787ZM2.98659 15.669L2.61448 15.3967L2.23886 15.669L2.38246 15.2312L2.00947 14.9589H2.47089L2.61448 14.5211L2.75545 14.9589H3.21775L2.84301 15.2312L2.98659 15.669ZM1.29327 17.6731L0.920284 17.4008L0.546419 17.6731L0.688248 17.2354L0.31526 16.9631H0.777557L0.920284 16.5253L1.06387 16.9631H1.52353L1.15142 17.2354L1.29327 17.6731ZM19.8849 0.185618C19.715 0.159351 18.4551 0.0210134 18.2852 0L15.1779 0.114693C11.9812 0.511377 8.95829 1.79118 6.44855 3.81043L6.51246 4.00655L6.3505 3.88836C5.77736 4.35623 5.23485 4.86042 4.72633 5.39782H4.98111L4.60725 5.67011L4.74997 6.10789L4.37611 5.83822L4.22727 5.94592C3.87704 6.34692 3.54637 6.76544 3.23525 7.20146H3.28692L3.17833 7.28027C3.10303 7.38708 3.02863 7.49477 2.95508 7.60334L3.05488 7.91242L2.85 7.76358C1.77075 9.40337 0.978991 11.2152 0.508754 13.1211C0.502626 13.1465 0.497377 13.1719 0.491248 13.1982H0.777557L0.920284 12.7604L1.06387 13.1982H1.52353L1.15142 13.4678L1.29327 13.9056L0.920284 13.6342L0.546419 13.9056L0.688248 13.4678L0.465853 13.3067C0.0496083 15.0604 -0.0889499 16.8685 0.0552215 18.6651H19.8849V0.185618Z" fill="#24356B"/>
</svg>
