<svg width="73" height="22" viewBox="0 0 73 22" fill="none" xmlns="http://www.w3.org/2000/svg">
<path d="M34.5773 5.45895C35.7515 5.45895 36.9016 5.45895 38.0975 5.45895C38.0975 5.79482 38.0975 6.10485 38.0975 6.41039C38.1788 6.41713 38.228 6.43623 38.2486 6.41938C40.8521 4.35249 44.2636 4.77149 46.2526 7.40565C48.4362 10.297 47.7495 14.6791 44.8313 16.6617C43.2314 17.7479 40.2822 18.2051 38.1353 16.1978C38.1353 18.158 38.1353 20.0586 38.1353 21.9985C36.9211 21.9985 35.7709 21.9985 34.5762 21.9985C34.5773 16.4876 34.5773 10.9901 34.5773 5.45895ZM43.9569 11.3485C43.9569 9.57812 42.7862 8.41325 41.0146 8.41999C39.274 8.42673 38.1124 9.58823 38.1078 11.3271C38.1021 13.1165 39.2442 14.2713 41.0215 14.2724C42.8125 14.2747 43.9581 13.1334 43.9569 11.3485Z" fill="white"/>
<path d="M32.57 12.7672C29.7227 12.7672 26.9085 12.7672 24.0933 12.7672C24.1253 14.2399 27.253 15.3059 29.3187 13.6131C30.2273 14.1253 31.1475 14.6431 32.1923 15.2306C31.6647 15.7013 31.2344 16.1742 30.7194 16.5292C28.1983 18.2624 24.075 17.8715 21.9155 15.7237C20.0627 13.8815 19.6335 10.7666 20.9004 8.3526C22.0917 6.08239 24.7605 4.79284 27.4098 5.14555C31.7048 5.71732 33.323 9.78369 32.57 12.7672ZM29.1413 10.1128C28.9033 8.90414 27.8927 8.18747 26.4954 8.20769C25.1587 8.22791 24.1562 8.97716 23.9766 10.1128C25.6989 10.1128 27.4167 10.1128 29.1413 10.1128Z" fill="white"/>
<path d="M66.66 14.0981C65.9356 15.1023 65.2867 16.0212 64.6115 16.9198C64.4948 17.0748 64.2682 17.2411 64.0874 17.2445C62.8709 17.2726 61.6532 17.2591 60.3223 17.2591C60.4699 17.0367 60.5695 16.8749 60.6805 16.721C61.8947 15.0316 63.102 13.3376 64.3346 11.6616C64.5657 11.3482 64.5543 11.1505 64.3266 10.8405C63.1375 9.22517 61.9759 7.58963 60.8075 5.95971C60.7034 5.81481 60.6141 5.65867 60.4676 5.42727C61.8089 5.42727 63.0563 5.41491 64.3037 5.44299C64.4616 5.44636 64.6516 5.63845 64.7626 5.78785C65.3863 6.62921 65.9917 7.48517 66.6589 8.41414C67.2711 7.56155 67.8685 6.77636 68.4098 5.95634C68.6765 5.55195 68.9706 5.39357 69.4707 5.41266C70.5671 5.45535 71.6657 5.42614 72.8547 5.42614C72.6991 5.66765 72.5995 5.8384 72.4839 5.99903C71.3361 7.5975 70.202 9.20608 69.0255 10.7843C68.7452 11.1606 68.7829 11.392 69.0427 11.7448C70.2546 13.3893 71.4368 15.0551 72.6293 16.7143C72.7357 16.8625 72.8353 17.0164 72.9978 17.2535C71.6325 17.2535 70.3496 17.2647 69.069 17.2377C68.934 17.2344 68.7772 17.0288 68.6742 16.8861C68.0127 15.983 67.3616 15.0709 66.66 14.0981Z" fill="white"/>
<path d="M10.0288 7.62461C9.02742 8.15369 8.05925 8.66592 7.04758 9.19949C6.61728 8.50528 6.02562 8.09977 5.16387 8.19525C4.7805 8.23794 4.43259 8.34128 4.3502 8.7614C4.26665 9.18601 4.59052 9.36798 4.9224 9.48031C5.47859 9.66791 6.05538 9.79709 6.61156 9.9858C7.25701 10.2048 7.92878 10.3913 8.52044 10.7126C10.7406 11.9179 10.9558 15.0317 8.95303 16.5515C6.70884 18.2545 2.50883 17.8692 0.75101 15.7888C0.514116 15.508 0.329866 15.1856 0.0849609 14.8306C1.14927 14.2375 2.15063 13.6792 3.15085 13.1221C3.889 14.2735 4.62028 14.6464 5.75554 14.4487C6.1332 14.3836 6.5326 14.2937 6.60584 13.8331C6.68251 13.3445 6.29799 13.185 5.93635 13.0637C5.27145 12.8424 4.58709 12.6728 3.92218 12.4503C3.4381 12.2886 2.95058 12.1133 2.49968 11.8786C0.533571 10.8552 0.0300295 8.44462 1.40333 6.72596C3.41864 4.20526 8.51243 4.70176 10.0288 7.62461Z" fill="white"/>
<path d="M18.8749 14.1347C18.8749 15.1861 18.8749 16.1859 18.8749 17.262C17.2727 17.4103 15.6785 17.5496 14.2388 16.6599C13.2077 16.023 12.9056 14.966 12.8598 13.855C12.7992 12.3857 12.8129 10.9131 12.7957 9.44267C12.7934 9.24272 12.7957 9.04277 12.7957 8.79565C12.1514 8.79565 11.5678 8.79565 10.9326 8.79565C10.9326 7.6656 10.9326 6.5816 10.9326 5.42797C11.5346 5.42797 12.1331 5.42797 12.7957 5.42797C12.7957 4.76971 12.7774 4.17772 12.8072 3.58799C12.8152 3.42062 12.9273 3.15327 13.0532 3.11283C14.1335 2.76573 15.2288 2.46019 16.3903 2.12207C16.3903 3.24763 16.3903 4.30129 16.3903 5.40887C17.2349 5.40887 18.0257 5.40887 18.8577 5.40887C18.8577 6.53555 18.8577 7.60606 18.8577 8.75858C18.0738 8.75858 17.2692 8.75858 16.3892 8.75858C16.3892 9.53815 16.3892 10.2391 16.3892 10.94C16.3892 11.6298 16.38 12.3183 16.3926 13.0081C16.4052 13.6495 16.6352 13.9179 17.2784 14.0471C17.5382 14.0988 17.806 14.1156 18.0715 14.1302C18.3187 14.1448 18.5659 14.1347 18.8749 14.1347Z" fill="white"/>
<path d="M52.6802 17.2428C51.4775 17.2428 50.3376 17.2428 49.1543 17.2428C49.1543 11.4993 49.1543 5.77156 49.1543 0C50.3136 0 51.4797 0 52.6802 0C52.6802 5.73898 52.6802 11.4656 52.6802 17.2428Z" fill="white"/>
<path d="M55.1152 17.2151C55.1152 13.3004 55.1152 9.39911 55.1152 5.46191C56.294 5.46191 57.443 5.46191 58.6343 5.46191C58.6343 9.37103 58.6343 13.27 58.6343 17.2151C57.4785 17.2151 56.3134 17.2151 55.1152 17.2151Z" fill="white"/>
<path d="M59.0202 2.2243C59.0156 3.35435 58.0291 4.31591 56.871 4.31927C55.722 4.32152 54.716 3.35323 54.7023 2.22992C54.6874 1.11672 55.7655 0.0664278 56.8961 0.0922639C58.044 0.116977 59.0248 1.10099 59.0202 2.2243Z" fill="white"/>
</svg>
