<svg width="113" height="36" viewBox="0 0 113 36" fill="none" xmlns="http://www.w3.org/2000/svg">
<g id="angularjs-original-wordmark logo">
<path id="Vector" d="M29.5625 24.9533V13.6116H31.0456L38.0602 22.7483V13.6116H39.4619V24.9533H37.9788L30.966 15.737V24.9533H29.5625ZM50.8434 24.5088C49.9193 24.858 48.9226 25.033 47.8535 25.033C43.7023 25.033 41.6259 23.0633 41.6259 19.1241C41.6259 15.3966 43.6298 13.532 47.6368 13.532C48.7873 13.532 49.8556 13.6912 50.8434 14.0088V15.2776C49.8709 14.9102 48.8387 14.7219 47.7978 14.722C44.6725 14.722 43.1098 16.1902 43.1098 19.1232C43.1098 22.2688 44.6468 23.843 47.7261 23.843C48.2178 23.843 48.7626 23.7791 49.3622 23.6513V19.7978H50.8443L50.8434 24.5088ZM53.2091 20.5757V13.6125H54.6912V20.5757C54.6912 22.7536 55.7869 23.8438 57.9784 23.8438C60.1689 23.8438 61.2646 22.7536 61.2646 20.5757V13.6125H62.7477V20.5757C62.7477 23.5472 61.1576 25.0338 57.9784 25.0338C54.7991 25.0338 53.2091 23.5481 53.2091 20.5757ZM66.8749 13.6116V23.7642H72.8717V24.9533H65.3927V13.6116H66.8749ZM75.0109 24.9533H73.4721L79.1709 12.1162L84.8705 24.9533H83.2274L81.7443 21.3842H77.9531L78.3617 20.196H81.2482L79.1072 15.0562L75.0109 24.9533ZM86.4331 24.9533V13.6116H91.3227C93.5035 13.6116 94.593 14.519 94.593 16.332C94.593 17.8081 93.5274 18.9001 91.3952 19.6071L95.3306 24.9525H93.3744L89.7282 19.853V18.894C91.9187 18.5492 93.0136 17.7162 93.0136 16.3958C93.0136 15.3493 92.4051 14.8252 91.1874 14.8252H87.9162V24.9533H86.4331ZM100.886 13.6116V21.6861C100.886 23.864 99.5905 24.9533 96.9984 24.9533V23.7642C98.6018 23.7642 99.4039 23.0703 99.4039 21.6861V13.6116H100.886ZM103.531 24.557V23.2086C104.734 23.6312 106.032 23.8438 107.427 23.8438C109.399 23.8438 110.386 23.1307 110.386 21.701C110.386 20.4873 109.658 19.8775 108.204 19.8775H106.729C104.33 19.8775 103.13 18.8476 103.13 16.7852C103.13 14.617 104.667 13.5328 107.741 13.5328C109.076 13.5328 110.318 13.693 111.467 14.0097V15.3581C110.318 14.9346 109.076 14.722 107.741 14.722C105.656 14.722 104.614 15.4097 104.614 16.7843C104.614 18.0006 105.319 18.6078 106.73 18.6078H108.205C110.647 18.6078 111.869 19.6403 111.869 21.7001C111.869 23.9217 110.388 25.033 107.428 25.033C106.032 25.033 104.735 24.8737 103.531 24.557Z" fill="#CCCCCC"/>
<path id="Vector_2" d="M29.9336 24.5822V13.2422H31.4158L38.4295 22.3781V13.2422H39.833V24.5822H38.3499L31.3362 15.3659V24.5822H29.9336ZM51.2145 24.1386C50.2904 24.4877 49.2937 24.6627 48.2246 24.6627C44.0734 24.6627 41.9961 22.694 41.9961 18.7547C41.9961 15.0264 44.0009 13.1617 48.0088 13.1617C49.1575 13.1617 50.2267 13.3219 51.2145 13.6386V14.9074C50.242 14.54 49.2098 14.3517 48.1688 14.3517C45.0436 14.3517 43.48 15.82 43.48 18.753C43.48 21.8995 45.0188 23.4727 48.0972 23.4727C48.5889 23.4727 49.1346 23.4097 49.7333 23.282V19.4276H51.2154L51.2145 24.1386ZM53.5793 20.2055V13.2414H55.0615V20.2046C55.0615 22.3825 56.1572 23.4727 58.3486 23.4727C60.54 23.4727 61.6357 22.3825 61.6357 20.2046V13.2414H63.1179V20.2046C63.1179 23.177 61.5287 24.6627 58.3486 24.6627C55.1685 24.6627 53.5793 23.177 53.5793 20.2055ZM67.2451 13.2414V23.3931H73.241V24.5822H65.7629V13.2414H67.2451ZM75.382 24.5822H73.8424L79.542 11.7451L85.2416 24.5822H83.5967L82.1137 21.0131H78.3233L78.7328 19.824H81.6175L79.4774 14.6842L75.382 24.5822ZM86.8033 24.5822V13.2422H91.6929C93.8737 13.2422 94.9624 14.1487 94.9624 15.9617C94.9624 17.437 93.8976 18.5299 91.7654 19.2369L95.7008 24.5822H93.7446L90.0984 19.4836V18.5229C92.289 18.1781 93.3847 17.346 93.3847 16.0247C93.3847 14.9782 92.7753 14.455 91.5567 14.455H88.2864V24.5822H86.8033Z" fill="black"/>
<path id="Vector_3" d="M101.263 13.2412V21.3157C101.263 23.4945 99.967 24.583 97.375 24.583V23.3939C98.9783 23.3939 99.7804 22.7 99.7804 21.3157V13.2412H101.263ZM103.908 24.1857V22.8374C105.11 23.2591 106.408 23.4726 107.803 23.4726C109.774 23.4726 110.761 22.7586 110.761 21.3306C110.761 20.1152 110.034 19.5071 108.581 19.5071H107.105C104.706 19.5071 103.506 18.4755 103.506 16.414C103.506 14.2457 105.042 13.1616 108.116 13.1616C109.453 13.1616 110.694 13.3217 111.844 13.6376V14.9869C110.694 14.5634 109.453 14.3507 108.116 14.3507C106.033 14.3507 104.99 15.0385 104.99 16.4131C104.99 17.6285 105.695 18.2366 107.106 18.2366H108.581C111.023 18.2366 112.245 19.2682 112.245 21.3297C112.245 23.5505 110.765 24.6617 107.804 24.6617C106.409 24.6617 105.11 24.5025 103.908 24.1857Z" fill="#A6120D"/>
<path id="Vector_4" d="M14.3443 4.50732L0.957031 9.16845L3.07239 26.5223L14.3584 32.6596L25.7029 26.4401L27.8173 9.0862L14.3443 4.50732Z" fill="#B3B3B3"/>
<path id="Vector_5" d="M26.4802 10.0889L14.3125 5.9834V31.193L24.5099 25.6088L26.4802 10.0889Z" fill="#A6120D"/>
<path id="Vector_6" d="M2.46094 10.1633L4.27473 25.6831L14.3156 31.193V5.9834L2.46094 10.1633Z" fill="#DD1B16"/>
<path id="Vector_7" d="M17.6626 19.4039L14.3127 20.9536H10.7815L9.12153 25.0608L6.03516 25.1168L14.3118 6.89844L17.6626 19.4039ZM17.338 18.6234L14.3348 12.7399L11.871 18.5219H14.3127L17.338 18.6234Z" fill="#F2F2F2"/>
<path id="Vector_8" d="M14.3125 6.89844L14.3337 12.7399L17.13 18.5272H14.3178L14.3125 20.9501L18.1992 20.9536L20.0165 25.1177L22.9703 25.1719L14.3125 6.89844Z" fill="#B3B3B3"/>
</g>
</svg>
