<svg width="191" height="67" viewBox="0 0 191 67" fill="none" xmlns="http://www.w3.org/2000/svg">
<path d="M89.3732 23.766C88.4248 23.7366 87.6541 24.4721 87.6245 25.3843L87.6245 33.8581C83.5638 30.6216 77.6061 31.2689 74.3457 35.2999C73.0119 36.977 72.2709 39.0366 72.2709 41.1845C72.182 46.363 76.3316 50.6293 81.5483 50.7176C86.7649 50.8059 91.0627 46.6866 91.1516 41.5081L91.1516 25.502C91.1516 25.0312 90.9738 24.5898 90.6478 24.2662C90.2921 23.9425 89.8475 23.766 89.3732 23.766ZM87.1502 43.4501C86.5574 44.8624 85.4311 45.9805 84.0084 46.5983C82.5264 47.2162 80.8665 47.2162 79.3845 46.5983C77.9618 46.0099 76.8651 44.8624 76.2723 43.4795C75.6499 42.0378 75.6499 40.3901 76.2723 38.9189C76.8651 37.5066 77.9915 36.3885 79.3845 35.8C80.8665 35.1822 82.5264 35.1822 84.0084 35.8C85.4311 36.4179 86.5574 37.536 87.1502 38.9483C87.7727 40.3606 87.7727 42.0083 87.1502 43.4501ZM109.084 34.5643C105.408 30.9158 99.4212 30.9158 95.7458 34.5643C93.9674 36.3297 92.9893 38.7129 92.9893 41.1845C92.9004 46.363 97.05 50.6293 102.267 50.7176C107.483 50.8059 111.781 46.6866 111.87 41.5081L111.87 41.1845C111.87 39.9487 111.633 38.7424 111.159 37.5949C110.684 36.4474 109.973 35.4176 109.084 34.5643ZM107.869 43.4206C107.572 44.1268 107.128 44.7447 106.594 45.2743C106.061 45.8039 105.408 46.2453 104.727 46.5395C103.245 47.1574 101.585 47.1574 100.103 46.5395C98.6802 45.951 97.5539 44.8035 96.9611 43.4206C96.3387 41.9789 96.3387 40.3312 96.9611 38.8601C97.5539 37.4477 98.6802 36.3591 100.103 35.7412C101.585 35.1233 103.245 35.1233 104.727 35.7412C105.438 36.0354 106.061 36.4768 106.594 37.0064C107.128 37.536 107.572 38.1833 107.869 38.8601C108.491 40.3606 108.491 42.0083 107.869 43.4206ZM148.12 33.5345C148.12 33.2991 148.061 33.0637 147.972 32.8577C147.883 32.6518 147.734 32.4752 147.586 32.2987C147.438 32.1516 147.231 32.0045 147.023 31.9162C146.816 31.8279 146.579 31.7691 146.341 31.7691C146.015 31.7691 145.689 31.8574 145.393 32.0339L135.315 38.5364L135.315 25.5314C135.315 25.0606 135.137 24.6193 134.811 24.2956C134.485 23.9719 134.041 23.766 133.567 23.766C132.588 23.766 131.818 24.531 131.788 25.502L131.788 48.7757C131.788 49.2464 131.966 49.6878 132.292 50.0114C132.618 50.3645 133.063 50.541 133.537 50.541C134.011 50.541 134.456 50.3645 134.782 50.0114C135.108 49.6878 135.315 49.2464 135.286 48.7757L135.286 42.7439L137.331 41.4199L145.126 50.0997C145.452 50.3939 145.867 50.5705 146.312 50.541C146.549 50.541 146.786 50.5116 146.993 50.3939C147.201 50.3057 147.379 50.188 147.557 50.0114C147.705 49.8349 147.853 49.6583 147.942 49.4524C148.031 49.2464 148.09 49.011 148.09 48.7757C148.09 48.3343 147.912 47.893 147.616 47.5693L140.384 39.4779L147.438 34.9174C147.912 34.6231 148.149 34.0935 148.12 33.5345ZM118.865 37.0064C119.399 36.4768 120.051 36.0354 120.762 35.7412C121.503 35.447 122.274 35.2704 123.074 35.2704C123.785 35.2704 124.467 35.3881 125.119 35.6235C125.771 35.8883 126.394 36.2414 126.927 36.7122C127.253 36.977 127.668 37.0947 128.083 37.0947C128.557 37.1241 129.032 36.9476 129.358 36.5945C129.684 36.2708 129.862 35.8 129.862 35.3293C129.862 34.8291 129.654 34.3289 129.239 34.0052C127.55 32.5047 125.356 31.6808 123.074 31.7397C117.857 31.7397 113.619 35.9472 113.619 41.1256C113.619 46.3041 117.828 50.4822 123.015 50.5116C125.297 50.5116 127.49 49.7172 129.209 48.246C129.565 47.9224 129.773 47.4516 129.773 46.9514C129.802 46.0099 129.061 45.2449 128.142 45.2155L128.024 45.2155C127.609 45.2155 127.224 45.3331 126.898 45.5685C126.364 46.0393 125.771 46.3924 125.119 46.6572C124.467 46.8926 123.756 47.0103 123.074 47.0103C122.274 47.0103 121.503 46.8631 120.762 46.5395C120.051 46.2453 119.428 45.8039 118.865 45.2743C116.553 42.9793 116.553 39.272 118.835 36.977C118.865 37.0358 118.865 37.0358 118.865 37.0064ZM183.125 32.9754C182.769 32.6518 182.384 32.4164 181.939 32.2693C181.435 32.0927 180.902 31.975 180.368 31.9162C179.835 31.8574 179.301 31.8279 178.768 31.8279C177.701 31.8279 176.604 32.0045 175.596 32.387C174.588 32.74 173.67 33.2697 172.84 33.917L172.84 33.5639C172.81 32.5929 171.98 31.8574 171.002 31.8868C170.559 31.9015 170.137 32.0829 169.824 32.3943C169.51 32.7057 169.327 33.1238 169.312 33.5639L169.312 48.8345C169.342 49.8055 170.172 50.541 171.15 50.5116C171.594 50.4969 172.015 50.3155 172.328 50.0041C172.642 49.6927 172.825 49.2746 172.84 48.8345L172.84 41.2139C172.84 40.4195 172.988 39.6545 173.314 38.9189C173.61 38.2127 174.025 37.5949 174.588 37.0653C175.122 36.5356 175.774 36.0943 176.456 35.8C177.197 35.5058 177.967 35.3293 178.768 35.3293C179.568 35.3293 180.339 35.4764 181.08 35.7412C181.317 35.8589 181.554 35.9177 181.821 35.9177C182.058 35.9177 182.295 35.8883 182.502 35.7706C182.71 35.6824 182.888 35.5647 183.065 35.3881C183.214 35.241 183.362 35.0351 183.451 34.8291C183.54 34.6231 183.599 34.3877 183.599 34.1524C183.629 33.711 183.451 33.2991 183.125 32.9754ZM166.763 37.5949C165.252 34.1229 161.813 31.8574 158.02 31.8279C152.803 31.8279 148.594 36.006 148.564 41.1845C148.564 46.363 152.803 50.5705 158.02 50.5705C160.272 50.5705 162.466 49.776 164.185 48.3049L164.244 48.246C164.392 48.1283 164.54 47.9812 164.629 47.8047C165.192 46.9808 164.985 45.8922 164.185 45.3331C163.503 44.8918 162.614 44.9801 162.021 45.5391C161.962 45.598 161.784 45.7451 161.784 45.7745L161.754 45.8039C161.25 46.2158 160.687 46.5689 160.065 46.7749C159.413 47.0103 158.731 47.128 158.02 47.0985C157.367 47.0985 156.745 47.0103 156.123 46.8043C155.53 46.5983 154.967 46.3335 154.463 45.951C153.959 45.598 153.514 45.1566 153.159 44.6564C152.773 44.1562 152.507 43.5678 152.329 42.9793L165.667 42.9793C166.141 42.9793 166.586 42.8028 166.912 42.4791C167.267 42.1554 167.445 41.7141 167.415 41.2433C167.445 39.9781 167.208 38.7424 166.763 37.5949ZM152.329 39.4779C152.507 38.8601 152.773 38.301 153.159 37.8008C153.514 37.3006 153.959 36.8593 154.463 36.5062C154.967 36.1531 155.53 35.8589 156.123 35.6529C156.715 35.447 157.367 35.3587 157.99 35.3587C158.612 35.3587 159.264 35.447 159.857 35.6529C161.043 36.0354 162.08 36.8004 162.821 37.8008C163.207 38.301 163.473 38.8895 163.681 39.4779L152.329 39.4779ZM177.108 48.0106C176.426 48.0106 175.893 48.5697 175.893 49.2464C175.893 49.9232 176.456 50.4528 177.137 50.4528C177.819 50.4528 178.353 49.8937 178.353 49.2464C178.353 48.5403 177.789 48.0106 177.108 48.0106ZM177.108 50.188C176.574 50.2174 176.13 49.8055 176.1 49.2758C176.07 48.7462 176.485 48.3049 177.019 48.2755C177.552 48.246 177.997 48.658 178.027 49.1876L178.027 49.2464C178.056 49.7466 177.641 50.188 177.137 50.188L177.108 50.188Z" fill="#0091E2"/>
<path d="M177.399 49.2468C177.548 49.2174 177.636 49.0997 177.636 48.9526C177.636 48.8349 177.607 48.7466 177.518 48.6878C177.399 48.6289 177.251 48.5995 177.103 48.5995C176.955 48.5995 176.777 48.5995 176.629 48.6289L176.629 49.8353L176.895 49.8353L176.895 49.3645L177.014 49.3645C177.162 49.3645 177.251 49.4234 177.281 49.541C177.31 49.6293 177.34 49.747 177.37 49.8353L177.666 49.8353C177.607 49.747 177.577 49.6293 177.577 49.541C177.607 49.4234 177.518 49.3057 177.399 49.2468ZM177.044 49.1585L176.895 49.1585L176.895 48.8055L177.044 48.8055C177.221 48.8055 177.31 48.8937 177.31 48.982C177.34 49.0997 177.192 49.188 177.044 49.1585ZM69.0353 27.7091C68.8575 27.562 67.2569 26.3556 63.8187 26.3556C62.9295 26.3556 62.0107 26.4439 61.1215 26.591C60.4694 22.0893 56.7051 19.912 56.5569 19.7943L55.6381 19.2646L55.0453 20.1179C54.3042 21.2654 53.7411 22.56 53.415 23.8841C52.7926 26.4439 53.1779 28.8566 54.4821 30.9162C52.9112 31.7989 50.3621 32.0049 49.8286 32.0343L7.73975 32.0343C6.64307 32.0343 5.75387 32.917 5.75387 34.0056C5.69459 37.6541 6.31703 41.3026 7.59156 44.7451C9.04392 48.5112 11.2076 51.3064 13.9938 53.013C17.1357 54.9255 22.2634 56.0141 28.0432 56.0141C30.6515 56.0141 33.2598 55.7788 35.8385 55.308C39.425 54.6607 42.8632 53.4249 46.0347 51.6301C48.643 50.1295 50.9846 48.217 52.9705 45.9809C56.3198 42.2441 58.3057 38.066 59.758 34.3587L60.3508 34.3587C63.9965 34.3587 66.2492 32.917 67.4941 31.6812C68.324 30.9162 68.9464 29.9747 69.391 28.9154L69.6578 28.1504L69.0353 27.7091Z" fill="#0091E2"/>
<path d="M11.6562 30.8314L17.2878 30.8314C17.5546 30.8314 17.7917 30.6254 17.7917 30.3312L17.7917 25.3293C17.7917 25.0645 17.5842 24.8291 17.2878 24.8291L11.6562 24.8291C11.3895 24.8291 11.1523 25.035 11.1523 25.3293L11.1523 30.3312C11.182 30.6254 11.3895 30.8314 11.6562 30.8314ZM19.4219 30.8314L25.0535 30.8314C25.3203 30.8314 25.5574 30.6254 25.5574 30.3312L25.5574 25.3293C25.5574 25.0645 25.3499 24.8291 25.0535 24.8291L19.4219 24.8291C19.1552 24.8291 18.918 25.035 18.918 25.3293L18.918 30.3312C18.9477 30.6254 19.1552 30.8314 19.4219 30.8314ZM27.3358 30.8314L32.9674 30.8314C33.2342 30.8314 33.4713 30.6254 33.4713 30.3312L33.4713 25.3293C33.4713 25.0645 33.2638 24.8291 32.9674 24.8291L27.3358 24.8291C27.0691 24.8291 26.8319 25.035 26.8319 25.3293L26.8319 30.3312C26.8319 30.6254 27.0394 30.8314 27.3358 30.8314ZM35.1311 30.8314L40.7628 30.8314C41.0295 30.8314 41.2666 30.6254 41.2666 30.3312L41.2666 25.3293C41.2666 25.0645 41.0592 24.8291 40.7628 24.8291L35.1311 24.8291C34.8644 24.8291 34.6273 25.035 34.6273 25.3293L34.6273 30.3312C34.6273 30.6254 34.8644 30.8314 35.1311 30.8314ZM19.4219 23.6816L25.0535 23.6816C25.3203 23.6816 25.5574 23.4462 25.5574 23.1814L25.5574 18.1794C25.5574 17.9146 25.3499 17.6792 25.0535 17.6792L19.4219 17.6792C19.1552 17.6792 18.918 17.8852 18.918 18.1794L18.918 23.1814C18.9477 23.4462 19.1552 23.6816 19.4219 23.6816ZM27.3358 23.6816L32.9674 23.6816C33.2342 23.6816 33.4713 23.4462 33.4713 23.1814L33.4713 18.1794C33.4713 17.9146 33.2638 17.6792 32.9674 17.6792L27.3358 17.6792C27.0691 17.6792 26.8319 17.8852 26.8319 18.1794L26.8319 23.1814C26.8319 23.4462 27.0394 23.6816 27.3358 23.6816ZM35.1311 23.6816L40.7628 23.6816C41.0295 23.6816 41.2666 23.4462 41.2666 23.1814L41.2666 18.1794C41.2666 17.9146 41.0295 17.6792 40.7628 17.6792L35.1311 17.6792C34.8644 17.6792 34.6273 17.8852 34.6273 18.1794L34.6273 23.1814C34.6273 23.4462 34.8644 23.6816 35.1311 23.6816ZM35.1311 16.5023L40.7628 16.5023C41.0295 16.5023 41.2666 16.2964 41.2666 16.0021L41.2666 11.0002C41.2666 10.7354 41.0295 10.5 40.7628 10.5L35.1311 10.5C34.8644 10.5 34.6273 10.706 34.6273 11.0002L34.6273 16.0021C34.6273 16.2669 34.8644 16.5023 35.1311 16.5023ZM42.9858 30.8314L48.6174 30.8314C48.8841 30.8314 49.1212 30.6254 49.1212 30.3312L49.1212 25.3293C49.1212 25.0645 48.9138 24.8291 48.6174 24.8291L42.9858 24.8291C42.719 24.8291 42.4819 25.035 42.4819 25.3293L42.4819 30.3312C42.5115 30.6254 42.719 30.8314 42.9858 30.8314Z" fill="#0091E2"/>
</svg>
