<svg width="156" height="73" viewBox="0 0 156 73" fill="none" xmlns="http://www.w3.org/2000/svg">
<g clip-path="url(#clip0_487_25034)">
<path d="M12.5527 49.6286C12.5527 49.6286 10.6264 50.8001 13.8927 51.1352C17.8299 51.6364 19.9234 51.5528 24.2797 50.7176C25.1553 51.2529 26.0812 51.7012 27.0443 52.0561C17.2435 56.2398 4.84447 51.8055 12.5517 49.6296L12.5527 49.6286ZM11.2964 44.1889C11.2964 44.1889 9.20185 45.779 12.4691 46.1131C16.7418 46.5308 20.0917 46.6143 25.8726 45.4449C26.4349 46.0148 27.1233 46.4447 27.8825 46.6999C16.0719 50.2143 2.83561 47.034 11.2954 44.1899L11.2964 44.1889ZM34.416 53.7287C34.416 53.7287 35.8406 54.9002 32.8241 55.8211C27.2115 57.4948 9.28442 57.997 4.25916 55.8211C2.50011 55.0693 5.85098 53.9804 6.94007 53.8133C8.02915 53.5627 8.6155 53.5627 8.6155 53.5627C6.68922 52.2242 -4.20164 56.3243 3.07601 57.4958C23.0966 60.7596 39.5991 56.0737 34.4055 53.7298L34.416 53.7287ZM13.4746 38.4986C13.4746 38.4986 4.34382 40.6745 10.2073 41.4273C12.72 41.7614 17.6626 41.6778 22.2688 41.3437C26.0388 41.0096 29.8077 40.3393 29.8077 40.3393C29.8077 40.3393 28.4678 40.924 27.5459 41.5108C18.248 43.9373 0.404507 42.8493 5.51339 40.3393C9.86973 38.247 13.4714 38.4986 13.4714 38.4986H13.4746ZM29.8109 47.6198C39.1925 42.7647 34.8382 38.0799 31.8218 38.6656C31.0693 38.8327 30.7327 38.9998 30.7327 38.9998C30.7327 38.9998 30.9836 38.4986 31.5689 38.3315C37.516 36.2392 42.2089 44.6065 29.6426 47.8714C29.6426 47.8714 29.7262 47.7879 29.8098 47.6208L29.8109 47.6198ZM14.3964 60.8411C23.4436 61.4258 37.2652 60.507 37.5996 56.2387C37.5996 56.2387 36.9307 57.9124 30.1443 59.1674C22.4371 60.5905 12.8987 60.4224 7.27557 59.5015C7.27557 59.5015 8.44828 60.5059 14.3954 60.84L14.3964 60.8411Z" fill="#4E7896"/>
<path d="M24.9088 11C24.9088 11 30.4409 16.4007 19.6439 24.5424C10.9908 31.1408 17.6816 34.9138 19.6439 39.1991C14.5594 34.8282 10.9018 30.9708 13.4107 27.371C17.0594 22.058 27.1395 19.486 24.9088 11ZM22.0538 35.5993C24.6406 38.428 21.3414 41 21.3414 41C21.3414 41 27.942 37.7425 24.91 33.7139C22.1439 29.8564 20.0035 27.971 31.5996 21.5436C31.5996 21.5436 13.3116 25.9144 22.0538 35.5993Z" fill="#F58219"/>
<path d="M86.3244 52.6184V33.8532C86.3244 29.0654 83.575 25.811 76.7014 25.811C72.7751 25.811 69.4352 26.7685 66.4889 27.9159L67.471 31.3623C69.6299 30.5967 72.3814 29.83 75.3267 29.83C79.0582 29.83 80.8256 31.3623 80.8256 34.4259V36.9147H78.8614C69.4352 36.9147 65.1036 40.3611 65.1036 45.9145C65.1036 50.5104 68.0499 53.1911 73.3519 53.1911C76.6908 53.1911 79.2434 51.6588 81.6002 49.7447L81.9918 52.6174H86.3128L86.3244 52.6184ZM80.8256 46.4913C78.8614 48.2145 76.7014 49.172 74.7372 49.172C72.1846 49.172 70.613 47.6397 70.613 44.959C70.613 42.2783 72.1846 40.3631 78.4687 40.3631H80.8256V46.4913ZM104.785 52.6184H97.9117L89.6633 26.3857H95.5549L100.661 42.4702L101.839 47.258C104.393 40.3652 106.356 33.2795 107.141 26.3867H113.033C111.461 35.0027 108.713 44.3853 104.784 52.6195L104.785 52.6184ZM136.6 52.6184V33.8532C136.6 29.0654 133.85 25.811 126.977 25.811C123.05 25.811 119.71 26.7685 116.764 27.9159L117.549 31.3623C119.906 30.5967 122.656 29.83 125.601 29.83C129.332 29.83 131.1 31.3623 131.1 34.4259V36.9147H129.135C119.709 36.9147 115.378 40.3611 115.378 45.9145C115.378 50.5104 118.127 53.1911 123.429 53.1911C126.964 53.1911 129.518 51.6588 131.874 49.7447L132.266 52.6174H136.587L136.6 52.6184ZM131.101 46.4913C129.137 48.2145 126.977 49.172 125.012 49.172C122.46 49.172 120.888 47.6397 120.888 44.959C120.888 42.2783 122.459 40.3631 128.744 40.3631H131.101V46.4913ZM59.0269 57.0213C57.4553 59.3193 55.1006 61.0424 52.1533 62L49.5996 58.9354C51.5638 57.787 53.528 56.0638 54.3132 54.5315C55.0985 53.1901 55.2953 51.276 55.2953 46.8721V17H61.1868V46.4882C61.1868 52.4244 60.5974 54.7224 59.0279 57.0193L59.0269 57.0213Z" fill="#4E7896"/>
</g>
<defs>
<clipPath id="clip0_487_25034">
<rect width="155" height="72" fill="white" transform="translate(0.599609 0.240234)"/>
</clipPath>
</defs>
</svg>
