<svg width="67" height="43" viewBox="0 0 67 43" fill="none" xmlns="http://www.w3.org/2000/svg">
<g clip-path="url(#clip0_486_22711)">
<path d="M33.1129 42.4999C32.8918 42.4999 32.6719 42.4408 32.4783 42.326L30.4581 41.1017C30.1565 40.9288 30.3038 40.8676 30.4033 40.832C30.8057 40.689 30.8872 40.656 31.3167 40.4065C31.3614 40.3806 31.4208 40.3905 31.467 40.4183L33.019 41.362C33.0752 41.3939 33.1546 41.3939 33.2064 41.362L39.2572 37.7849C39.3136 37.752 39.3496 37.6856 39.3496 37.6172V30.4649C39.3496 30.395 39.3136 30.3297 39.2557 30.2941L33.2074 26.7202C33.1515 26.6867 33.0773 26.6867 33.021 26.7202L26.9742 30.2952C26.9154 30.3297 26.8782 30.3971 26.8782 30.4649V37.6172C26.8782 37.6856 26.9154 37.7505 26.9736 37.7829L28.6312 38.7638C29.5306 39.2244 30.0813 38.6819 30.0813 38.1369V31.0754C30.0813 30.9755 30.1596 30.8968 30.2571 30.8968H31.0243C31.1203 30.8968 31.1997 30.9755 31.1997 31.0754V38.1369C31.1997 39.3663 30.546 40.0714 29.408 40.0714C29.0583 40.0714 28.783 40.0714 28.0143 39.6834L26.4276 38.7478C26.0356 38.5157 25.793 38.0818 25.793 37.6172V30.4649C25.793 30.0003 26.0356 29.5664 26.4276 29.3354L32.4783 25.7542C32.8612 25.5325 33.3701 25.5325 33.75 25.7542L39.8004 29.3354C40.1922 29.5675 40.4359 30.0003 40.4359 30.4649V37.6172C40.4359 38.0818 40.1922 38.5142 39.8004 38.7478L33.75 42.326C33.5565 42.4408 33.3371 42.4999 33.1129 42.4999Z" fill="#659F66"/>
<path d="M34.9876 37.6351C32.3398 37.6351 31.7852 36.3903 31.7852 35.3461C31.7852 35.2468 31.863 35.1675 31.9599 35.1675H32.7422C32.8296 35.1675 32.9025 35.2319 32.9161 35.3193C33.0343 36.135 33.3864 36.5467 34.9876 36.5467C36.2623 36.5467 36.805 36.2513 36.805 35.5586C36.805 35.1593 36.6511 34.8629 34.6702 34.6641C33.0146 34.4964 31.9905 34.1218 31.9905 32.7653C31.9905 31.5148 33.0196 30.769 34.745 30.769C36.6834 30.769 37.6426 31.4581 37.7641 32.9366C37.7686 32.9876 37.751 33.0365 37.7179 33.0745C37.6847 33.11 37.6385 33.1317 37.5897 33.1317H36.8044C36.7231 33.1317 36.6511 33.0725 36.6346 32.9916C36.4462 32.1333 35.988 31.859 34.745 31.859C33.3532 31.859 33.1915 32.3556 33.1915 32.7278C33.1915 33.1786 33.3823 33.3097 35.2615 33.5644C37.121 33.8162 38.0043 34.1727 38.0043 35.5113C38.0043 36.8616 36.905 37.6351 34.9876 37.6351Z" fill="#659F66"/>
<path d="M42.3503 30.0625H42.5537C42.72 30.0625 42.7512 29.9426 42.7512 29.8731C42.7512 29.6896 42.6276 29.6896 42.5597 29.6896H42.3503V30.0625ZM42.1031 29.4747H42.5537C42.708 29.4747 43.0105 29.4747 43.0105 29.8289C43.0105 30.0754 42.8561 30.1258 42.7633 30.1574C42.9426 30.17 42.9547 30.2902 42.9793 30.4607C42.9918 30.5681 43.0105 30.7516 43.0471 30.8146H42.7698C42.7633 30.7516 42.72 30.4102 42.72 30.3914C42.7019 30.3154 42.6768 30.2777 42.5844 30.2777H42.3563V30.8146H42.1031V29.4747ZM41.5634 30.1415C41.5634 30.6978 42.0016 31.1466 42.5382 31.1466C43.0814 31.1466 43.5194 30.6883 43.5194 30.1415C43.5194 29.5855 43.0753 29.143 42.5382 29.143C42.0077 29.143 41.5634 29.5789 41.5634 30.1415ZM43.7073 30.1449C43.7073 30.802 43.1827 31.3393 42.5412 31.3393C41.9056 31.3393 41.375 30.8084 41.375 30.1449C41.375 29.4686 41.9181 28.9502 42.5412 28.9502C43.1707 28.9502 43.7073 29.4686 43.7073 30.1449Z" fill="#659F66"/>
<path fill-rule="evenodd" clip-rule="evenodd" d="M14.3792 14.5286C14.3792 14.243 14.2325 13.9805 13.9918 13.8391L7.57667 10.0577C7.46822 9.99222 7.3466 9.95824 7.22361 9.95312H7.15727C7.03459 9.95824 6.91312 9.99222 6.80301 10.0577L0.38789 13.8391C0.148734 13.9805 0 14.243 0 14.5286L0.0140862 24.7108C0.0140862 24.8525 0.0858786 24.9842 0.207502 25.0537C0.32655 25.1267 0.473769 25.1267 0.592363 25.0537L4.40493 22.8176C4.64606 22.671 4.79282 22.4121 4.79282 22.1289V17.3719C4.79282 17.0883 4.93944 16.8259 5.17965 16.6848L6.80301 15.7272C6.92402 15.6557 7.05625 15.6206 7.19135 15.6206C7.32358 15.6206 7.45914 15.6557 7.57667 15.7272L9.19957 16.6848C9.43979 16.8259 9.587 17.0883 9.587 17.3719V22.1289C9.587 22.4121 9.73574 22.6725 9.97535 22.8176L13.7869 25.0537C13.9064 25.1267 14.0557 25.1267 14.1741 25.0537C14.2923 24.9842 14.3667 24.8525 14.3667 24.7108L14.3792 14.5286Z" fill="#333333"/>
<path fill-rule="evenodd" clip-rule="evenodd" d="M44.652 19.8492C44.652 19.9199 44.615 19.9856 44.555 20.0208L42.3516 21.3217C42.2917 21.3569 42.218 21.3569 42.1582 21.3217L39.9547 20.0208C39.8946 19.9856 39.8578 19.9199 39.8578 19.8492V17.2431C39.8578 17.1724 39.8946 17.1068 39.9546 17.0712L42.1579 15.7678C42.218 15.7323 42.2917 15.7323 42.3519 15.7678L44.5552 17.0712C44.615 17.1068 44.652 17.1724 44.652 17.2431V19.8492ZM45.2473 0.550131C45.1272 0.481872 44.9808 0.483269 44.8622 0.554631C44.7439 0.625837 44.671 0.756148 44.671 0.896854V10.9805C44.671 11.0797 44.6192 11.1715 44.5356 11.2211C44.4517 11.2708 44.3483 11.2708 44.2644 11.2211L42.6575 10.273C42.4179 10.1313 42.123 10.1316 41.8833 10.2731L35.4657 14.0666C35.2258 14.2084 35.0781 14.4704 35.0781 14.754V22.3425C35.0781 22.6261 35.2258 22.888 35.4654 23.0301L41.8828 26.8263C42.1227 26.9681 42.4181 26.9681 42.658 26.8263L49.0764 23.0301C49.316 22.888 49.4639 22.6261 49.4639 22.3425V3.42615C49.4639 3.13853 49.3118 2.87326 49.0664 2.73301L45.2473 0.550131Z" fill="#333333"/>
<path fill-rule="evenodd" clip-rule="evenodd" d="M66.616 17.1545C66.8547 17.0125 67.0017 16.751 67.0017 16.4682V14.6292C67.0017 14.3464 66.8547 14.0847 66.6157 13.9427L60.2394 10.1508C59.9995 10.0079 59.7034 10.0078 59.4629 10.1497L53.0476 13.9432C52.8078 14.085 52.6602 14.3469 52.6602 14.6304V22.2169C52.6602 22.5024 52.8096 22.7656 53.0515 22.9067L59.427 26.6275C59.662 26.765 59.9503 26.7665 60.1868 26.6319L64.043 24.4366C64.1654 24.3668 64.2416 24.2354 64.2424 24.0923C64.2433 23.9492 64.1689 23.8167 64.0479 23.7455L57.5919 19.9501C57.4713 19.8794 57.3971 19.7478 57.3971 19.6059V17.2283C57.3971 17.0865 57.471 16.9553 57.5911 16.8845L59.6004 15.6981C59.7199 15.6273 59.8676 15.6273 59.9872 15.6981L61.9974 16.8845C62.1175 16.9553 62.1913 17.0865 62.1913 17.2283V19.0989C62.1913 19.241 62.2655 19.3723 62.3856 19.443C62.5057 19.514 62.6537 19.5134 62.7735 19.4422L66.616 17.1545Z" fill="#333333"/>
<path fill-rule="evenodd" clip-rule="evenodd" d="M59.758 16.791C59.804 16.7637 59.8607 16.7637 59.9067 16.791L61.1381 17.5186C61.1841 17.5459 61.2124 17.5961 61.2124 17.6506V19.107C61.2124 19.1616 61.1841 19.2117 61.1381 19.239L59.9067 19.9667C59.8607 19.994 59.804 19.994 59.758 19.9667L58.5275 19.239C58.4814 19.2117 58.4531 19.1616 58.4531 19.107V17.6506C58.4531 17.5961 58.4814 17.5459 58.5275 17.5186L59.758 16.791Z" fill="#659F66"/>
<path d="M24.3374 10.2391L17.9558 14.0112C17.7171 14.1522 17.5703 14.4127 17.5703 14.6948V22.2446C17.5703 22.5266 17.7171 22.7871 17.9556 22.9284L24.3371 26.7034C24.5758 26.8444 24.8697 26.8444 25.1082 26.7034L31.4883 22.9284C31.7267 22.7871 31.8735 22.5266 31.8735 22.2446V14.6945C31.8735 14.4127 31.7267 14.1522 31.488 14.0112L25.1081 10.2391C24.9889 10.1687 24.8557 10.1333 24.7227 10.1333C24.5896 10.1333 24.4566 10.1687 24.3374 10.2391Z" fill="url(#paint0_linear_486_22711)"/>
<path d="M17.7383 22.6999C17.799 22.7813 17.8755 22.8511 17.965 22.9042L23.4393 26.1425L24.3506 26.6792C24.4869 26.7597 24.6425 26.7939 24.7953 26.7824C24.8463 26.778 24.8972 26.7684 24.9469 26.7537L31.6763 14.1325C31.6248 14.0759 31.5648 14.0267 31.4974 13.987L27.3189 11.5165L25.1108 10.2149C25.0476 10.1777 24.9799 10.1508 24.9104 10.1333L17.7383 22.6999Z" fill="url(#paint1_linear_486_22711)"/>
<path d="M24.6519 10.1361C24.5451 10.147 24.4401 10.1809 24.3439 10.2377L17.9805 13.9989L24.8406 26.7994C24.9357 26.7853 25.0288 26.7528 25.1147 26.702L31.4948 22.927C31.6919 22.8102 31.8264 22.6119 31.8671 22.3876L24.873 10.1491C24.8213 10.1386 24.7688 10.1333 24.7162 10.1333C24.6947 10.1333 24.6732 10.1342 24.6519 10.1361Z" fill="url(#paint2_linear_486_22711)"/>
<path d="M31.506 22.9087L25.1178 26.6836C25.03 26.7356 24.9341 26.7681 24.8359 26.7818L24.9632 27.0191L32.0586 22.8124V22.7133L31.8833 22.4062C31.8307 22.6154 31.692 22.7984 31.506 22.9087Z" fill="url(#paint3_linear_486_22711)"/>
<path d="M31.506 22.9087L25.1178 26.6836C25.03 26.7356 24.9341 26.7681 24.8359 26.7818L24.9632 27.0191L32.0586 22.8124V22.7133L31.8833 22.4062C31.8307 22.6154 31.692 22.7984 31.506 22.9087Z" fill="url(#paint4_linear_486_22711)"/>
</g>
<defs>
<linearGradient id="paint0_linear_486_22711" x1="27.3167" y1="13.0483" x2="21.3253" y2="24.9813" gradientUnits="userSpaceOnUse">
<stop stop-color="#697E66"/>
<stop offset="1" stop-color="#82A178"/>
</linearGradient>
<linearGradient id="paint1_linear_486_22711" x1="23.7601" y1="19.3284" x2="40.2089" y2="7.46279" gradientUnits="userSpaceOnUse">
<stop stop-color="#697E66"/>
<stop offset="0.14" stop-color="#697E66"/>
<stop offset="0.91" stop-color="#9AB48E"/>
<stop offset="1" stop-color="#9AB48E"/>
</linearGradient>
<linearGradient id="paint2_linear_486_22711" x1="17.351" y1="18.4668" x2="32.1058" y2="18.4668" gradientUnits="userSpaceOnUse">
<stop stop-color="#9AB48E"/>
<stop offset="0.09" stop-color="#9AB48E"/>
<stop offset="0.86" stop-color="#697E66"/>
<stop offset="1" stop-color="#697E66"/>
</linearGradient>
<linearGradient id="paint3_linear_486_22711" x1="17.3461" y1="24.7128" x2="32.1009" y2="24.7128" gradientUnits="userSpaceOnUse">
<stop stop-color="#9AB48E"/>
<stop offset="0.09" stop-color="#9AB48E"/>
<stop offset="0.86" stop-color="#697E66"/>
<stop offset="1" stop-color="#697E66"/>
</linearGradient>
<linearGradient id="paint4_linear_486_22711" x1="34.2506" y1="12.6713" x2="24.794" y2="31.506" gradientUnits="userSpaceOnUse">
<stop stop-color="#697E66"/>
<stop offset="1" stop-color="#82A178"/>
</linearGradient>
<clipPath id="clip0_486_22711">
<rect width="67" height="42" fill="white" transform="translate(0 0.5)"/>
</clipPath>
</defs>
</svg>
