<svg width="30" height="31" viewBox="0 0 30 31" fill="none" xmlns="http://www.w3.org/2000/svg">
<path d="M29.2217 12.6716C29.4059 13.6584 29.5062 14.6901 29.5062 15.7668C29.5062 24.1883 23.8699 30.1766 15.357 30.1766C13.421 30.1772 11.5039 29.7963 9.71523 29.0557C7.92653 28.3151 6.30129 27.2294 4.93236 25.8604C3.56344 24.4915 2.47767 22.8663 1.73708 21.0776C0.9965 19.2889 0.615621 17.3718 0.616212 15.4358C0.615621 13.4999 0.9965 11.5828 1.73708 9.79409C2.47767 8.00539 3.56344 6.38015 4.93236 5.01122C6.30129 3.6423 7.92653 2.55652 9.71523 1.81594C11.5039 1.07536 13.421 0.694479 15.357 0.695069C19.3372 0.695069 22.663 2.15956 25.2146 4.53749L21.0592 8.69288V8.68239C19.5124 7.20892 17.5492 6.45271 15.357 6.45271C10.4933 6.45271 6.54007 10.5617 6.54007 15.4268C6.54007 20.2905 10.4933 24.4085 15.357 24.4085C19.7699 24.4085 22.7738 21.8853 23.3907 18.4202H15.357V12.6716H29.2232H29.2217Z" fill="#180228"/>
</svg>
