<svg width="142" height="35" viewBox="0 0 142 35" fill="none" xmlns="http://www.w3.org/2000/svg">
<path d="M80.6963 8.68521C82.5696 8.68521 84.4047 8.68521 86.3128 8.68521C86.3128 9.21954 86.3128 9.71278 86.3128 10.1989C86.4424 10.2096 86.5209 10.24 86.5538 10.2132C90.7078 6.92493 96.1508 7.59151 99.3243 11.7822C102.808 16.3822 101.713 23.3536 97.0565 26.5078C94.5038 28.2359 89.7985 28.9632 86.373 25.7697C86.373 28.8882 86.373 31.9119 86.373 34.9982C84.4357 34.9982 82.6007 34.9982 80.6944 34.9982C80.6963 26.2308 80.6963 17.4848 80.6963 8.68521ZM95.6615 18.0549C95.6615 15.2384 93.7936 13.3852 90.967 13.396C88.1898 13.4067 86.3365 15.2545 86.3292 18.0209C86.3201 20.8677 88.1424 22.7049 90.978 22.7067C93.8356 22.7102 95.6633 20.8946 95.6615 18.0549Z" fill="white"/>
<path d="M77.4934 20.3119C72.9506 20.3119 68.4606 20.3119 63.9689 20.3119C64.02 22.6547 69.0102 24.3507 72.306 21.6575C73.7558 22.4725 75.2238 23.2963 76.8909 24.2309C76.0491 24.9797 75.3626 25.7321 74.5409 26.2968C70.5184 29.0543 63.9396 28.4324 60.4941 25.0155C57.538 22.0847 56.8533 17.1291 58.8745 13.2886C60.7753 9.67695 65.0334 7.62538 69.2604 8.18652C76.113 9.09615 78.6949 15.5654 77.4934 20.3119ZM72.023 16.089C71.6432 14.1661 70.0309 13.0259 67.8015 13.0581C65.6688 13.0903 64.0693 14.2823 63.7826 16.089C66.5306 16.089 69.2713 16.089 72.023 16.089Z" fill="white"/>
<path d="M131.884 22.4293C130.728 24.0269 129.693 25.4888 128.616 26.9184C128.43 27.165 128.068 27.4295 127.779 27.4349C125.839 27.4796 123.896 27.4581 121.772 27.4581C122.008 27.1043 122.167 26.8469 122.344 26.6021C124.281 23.9143 126.207 21.2194 128.174 18.5531C128.543 18.0545 128.524 17.74 128.161 17.2467C126.264 14.6769 124.411 12.0749 122.546 9.48187C122.38 9.25134 122.238 9.00294 122.004 8.6348C124.144 8.6348 126.134 8.61514 128.125 8.65982C128.377 8.66518 128.68 8.97077 128.857 9.20845C129.852 10.547 130.818 11.9087 131.882 13.3866C132.859 12.0303 133.812 10.7811 134.676 9.47651C135.101 8.83316 135.571 8.58119 136.369 8.61157C138.118 8.67947 139.871 8.63301 141.768 8.63301C141.52 9.01723 141.361 9.28887 141.176 9.54442C139.345 12.0874 137.535 14.6465 135.658 17.1574C135.211 17.7561 135.271 18.1242 135.686 18.6853C137.619 21.3016 139.506 23.9519 141.408 26.5914C141.578 26.8273 141.737 27.0721 141.996 27.4492C139.818 27.4492 137.771 27.4671 135.728 27.4242C135.512 27.4188 135.262 27.0918 135.098 26.8648C134.042 25.428 133.003 23.9769 131.884 22.4293Z" fill="white"/>
<path d="M41.5286 12.1307C39.9309 12.9724 38.3862 13.7873 36.7721 14.6362C36.0855 13.5317 35.1415 12.8866 33.7666 13.0385C33.1549 13.1064 32.5999 13.2708 32.4684 13.9392C32.3351 14.6147 32.8518 14.9042 33.3813 15.0829C34.2687 15.3814 35.189 15.5869 36.0764 15.8871C37.1062 16.2356 38.178 16.5322 39.122 17.0434C42.6643 18.9609 43.0076 23.9147 39.8122 26.3326C36.2316 29.0418 29.5305 28.4288 26.7259 25.1192C26.3479 24.6724 26.0539 24.1595 25.6632 23.5948C27.3613 22.6512 28.959 21.763 30.5548 20.8766C31.7325 22.7084 32.8993 23.3017 34.7106 22.9872C35.3132 22.8835 35.9504 22.7406 36.0673 22.0079C36.1896 21.2305 35.5761 20.9767 34.9991 20.7837C33.9382 20.4317 32.8463 20.1618 31.7855 19.808C31.0131 19.5506 30.2353 19.2718 29.5159 18.8983C26.3789 17.2703 25.5755 13.4352 27.7666 10.701C30.9821 6.69079 39.1093 7.48068 41.5286 12.1307Z" fill="white"/>
<path d="M55.6428 22.4868C55.6428 24.1596 55.6428 25.7501 55.6428 27.4621C53.0866 27.698 50.543 27.9196 48.246 26.5042C46.6009 25.4909 46.1188 23.8093 46.0458 22.0419C45.949 19.7044 45.9709 17.3615 45.9435 15.0222C45.9399 14.7041 45.9435 14.386 45.9435 13.9928C44.9156 13.9928 43.9843 13.9928 42.9709 13.9928C42.9709 12.195 42.9709 10.4705 42.9709 8.63518C43.9314 8.63518 44.8863 8.63518 45.9435 8.63518C45.9435 7.58795 45.9143 6.64615 45.9618 5.70794C45.9746 5.44166 46.1535 5.01633 46.3544 4.952C48.078 4.39979 49.8255 3.91371 51.6788 3.37579C51.6788 5.16645 51.6788 6.84273 51.6788 8.6048C53.0263 8.6048 54.288 8.6048 55.6155 8.6048C55.6155 10.3972 55.6155 12.1003 55.6155 13.9339C54.3647 13.9339 53.0811 13.9339 51.6769 13.9339C51.6769 15.1741 51.6769 16.2892 51.6769 17.4044C51.6769 18.5017 51.6623 19.5971 51.6824 20.6944C51.7025 21.7148 52.0695 22.1419 53.0957 22.3475C53.5102 22.4297 53.9374 22.4565 54.361 22.4797C54.7554 22.5029 55.1498 22.4868 55.6428 22.4868Z" fill="white"/>
<path d="M109.579 27.4317C107.66 27.4317 105.841 27.4317 103.953 27.4317C103.953 18.2944 103.953 9.18203 103.953 0C105.803 0 107.664 0 109.579 0C109.579 9.1302 109.579 18.2407 109.579 27.4317Z" fill="white"/>
<path d="M113.464 27.3873C113.464 21.1593 113.464 14.9528 113.464 8.68909C115.345 8.68909 117.178 8.68909 119.079 8.68909C119.079 14.9081 119.079 21.1111 119.079 27.3873C117.235 27.3873 115.376 27.3873 113.464 27.3873Z" fill="white"/>
<path d="M119.694 3.53844C119.687 5.33624 118.113 6.86598 116.265 6.87135C114.432 6.87492 112.827 5.33445 112.805 3.54737C112.781 1.77637 114.501 0.105453 116.305 0.146556C118.137 0.185872 119.701 1.75136 119.694 3.53844Z" fill="white"/>
<path d="M22.3221 8.55127H11.0982V14.0126H22.3221V8.55127Z" fill="#00A7E1"/>
<path d="M22.3203 15.31H5.45425V20.7714H22.3203V15.31Z" fill="#F32735"/>
<path d="M22.3201 22.0671H0V27.5284H22.3201V22.0671Z" fill="#FFDA00"/>
</svg>
