<svg width="24" height="32" viewBox="0 0 24 32" fill="none" xmlns="http://www.w3.org/2000/svg">
<path d="M0.000666505 14.0879C0.000666505 14.0879 -0.0819632 16.1865 1.59284 16.8138C3.07395 17.3691 3.64436 16.2612 3.64436 16.2612C3.64436 16.2612 3.59194 17.9617 5.36892 18.5908C7.04373 19.1843 7.81227 17.7396 7.81227 17.7396C7.81227 17.7396 8.08504 19.402 9.84869 19.8871C11.3334 20.2949 12.4395 18.8502 12.4395 18.8502V29.6969C12.4395 30.549 12.9211 31.9848 14.699 31.9856C16.4759 31.9874 16.882 30.5116 16.882 29.6969V11.4829C16.882 10.5944 17.7705 10.5944 17.7705 11.4829V13.8516C17.7705 17.2207 19.5812 19.3096 20.2147 19.8862C20.8482 20.4637 21.6958 20.756 22.7202 20.5383C24.4581 20.1696 24.0788 18.8324 23.5865 17.6978C22.3986 14.9631 21.5839 11.0661 21.336 9.22342C20.6332 4.01953 16.1747 0.00533295 10.7772 2.00959e-06C4.89003 -0.00355195 0.00510896 4.70722 0.000666505 10.5944V14.0879Z" fill="#FFDC5D"/>
</svg>
