<svg width="85" height="35" viewBox="0 0 85 35" fill="none" xmlns="http://www.w3.org/2000/svg">
<g id="azure-original-wordmark logo">
<path id="Vector" d="M60.4175 24.8542C58.6046 24.7368 57.5508 23.6946 57.2719 21.7452C57.1975 21.2265 57.1975 21.2131 57.1895 17.8464L57.1822 14.5878H58.7866L58.7926 17.7397C58.7985 20.5803 58.8019 20.9138 58.8291 21.1131C58.938 21.9244 59.1551 22.47 59.5257 22.8612C59.8219 23.1746 60.1685 23.3578 60.6486 23.4551C60.8744 23.5014 61.5192 23.5014 61.7257 23.4551C62.1892 23.3597 62.6141 23.127 62.9463 22.7867C63.3387 22.3908 63.6289 21.8291 63.7697 21.1943L63.8162 20.9802L63.8215 17.8021L63.8268 14.6227H65.4651V24.6173H63.8441V23.8242C63.8441 23.286 63.8381 23.0336 63.8255 23.0377C63.7887 23.081 63.7576 23.1291 63.7332 23.1806C63.4377 23.7112 63.0038 24.1496 62.4788 24.4482C61.8678 24.7871 61.2549 24.9079 60.4175 24.8542ZM78.812 24.8462C78.1518 24.7907 77.5136 24.5802 76.948 24.2315C75.7872 23.5067 75.1006 22.3123 74.9001 20.6695C74.8303 20.1005 74.8217 19.3368 74.8801 18.8537C75.0096 17.7733 75.43 16.713 76.029 15.9567C76.1817 15.7621 76.5303 15.4112 76.7222 15.2562C77.2399 14.8386 77.8456 14.5468 78.4926 14.4032C78.8685 14.3207 79.5299 14.2818 79.929 14.3187C80.9317 14.4126 81.8495 14.8891 82.4737 15.6387C83.1085 16.4003 83.4565 17.4646 83.5017 18.7752C83.5088 19.0419 83.5099 19.3089 83.505 19.5757L83.4963 20.0025L79.9861 20.0065L76.4759 20.0112V20.1696C76.4759 20.6507 76.5914 21.199 76.792 21.666C76.9646 22.068 77.2628 22.5069 77.5058 22.7196C78.0054 23.1555 78.6281 23.4212 79.2855 23.4792C79.5339 23.5027 80.1661 23.4779 80.4483 23.4343C81.2551 23.3088 82.0221 22.9894 82.6404 22.5216C82.7134 22.4659 82.7831 22.4143 82.7958 22.4069C82.8137 22.3955 82.8183 22.5391 82.8177 23.145V23.8966L82.651 24.0006C81.9349 24.4432 81.1325 24.7239 80.2989 24.8233C80.0452 24.8549 79.1155 24.869 78.812 24.8462ZM81.8667 18.5014C81.8667 17.6954 81.5301 16.7996 81.0539 16.3386C80.7142 16.0095 80.2803 15.7972 79.8141 15.7319C79.583 15.6957 79.0963 15.7098 78.8526 15.7588C78.3547 15.8546 77.8971 16.1002 77.5397 16.4634C77.1463 16.857 76.8487 17.3375 76.6704 17.8672C76.604 18.0618 76.527 18.3806 76.5024 18.5577L76.4911 18.6423H81.8667V18.5014ZM34.2501 24.5945L36.8991 17.5706L39.5407 10.5688H41.2381L41.3085 10.75C41.5236 11.3077 46.5964 24.6019 46.5964 24.6086C46.5964 24.6133 46.19 24.6167 45.6933 24.6167H44.7901L44.0597 22.6518L43.3279 20.687H37.4403L37.4151 20.7541C37.4011 20.7903 37.0883 21.6748 36.7205 22.7183L36.0524 24.6167H35.1473C34.4314 24.6167 34.2442 24.6126 34.2501 24.5945ZM42.7906 19.1878C42.7906 19.1845 42.2992 17.8384 41.6976 16.195C40.5727 13.1229 40.5096 12.9377 40.4206 12.4444C40.3788 12.2136 40.3575 12.2069 40.3329 12.4176C40.2979 12.6462 40.2468 12.872 40.1802 13.0933C40.1503 13.1866 39.6437 14.5898 39.054 16.2124C38.6933 17.1999 38.3358 18.1886 37.9815 19.1785C37.9815 19.1865 39.0639 19.1932 40.3861 19.1932C41.7089 19.1932 42.7906 19.1905 42.7906 19.1878ZM47.1422 24.3617V24.1053L50.0754 20.0354L53.0086 15.9655L50.3523 15.9567L47.6974 15.948L47.6928 15.2676L47.6881 14.5878H55.37V15.0468L52.4368 19.1389C50.8231 21.3896 49.503 23.235 49.503 23.239C49.503 23.2437 50.8072 23.2477 52.401 23.2477H55.2996V24.6167H47.1422V24.3617ZM68.6652 24.6053C68.6585 24.5985 68.6539 22.3418 68.6539 19.5905V14.5871H70.2569V15.6185C70.2569 16.1862 70.2636 16.6499 70.2715 16.6499C70.2802 16.6499 70.3194 16.5573 70.3585 16.4439C70.5444 15.9149 70.8514 15.4378 71.2544 15.0515C71.6009 14.7119 72.0435 14.4897 72.5207 14.416C72.6582 14.3938 72.7744 14.3891 73.0493 14.3965C73.3946 14.4059 73.5746 14.4314 73.7844 14.5005L73.8508 14.522V16.2023L73.6616 16.107C73.3336 15.9391 72.9664 15.8648 72.5997 15.8923C72.3414 15.9057 72.1721 15.9393 71.9656 16.0171C71.5465 16.1734 71.1911 16.4664 70.9555 16.8499C70.5962 17.4423 70.3674 18.1061 70.2848 18.796C70.2715 18.9147 70.2642 19.8844 70.2609 21.7949L70.2563 24.618H69.4667C69.0324 24.618 68.6718 24.612 68.6652 24.6053Z" fill="#0089D6"/>
<path id="Vector_2" d="M10.9707 3.5712H19.0721L10.6623 28.7511C10.5759 29.0099 10.4113 29.2348 10.1918 29.3941C9.97222 29.5535 9.70873 29.6391 9.43843 29.6391H3.13371C2.92895 29.639 2.72714 29.5898 2.54495 29.4953C2.36276 29.4009 2.20541 29.264 2.08591 29.096C1.96644 28.9279 1.88831 28.7336 1.85797 28.5289C1.82764 28.3243 1.84598 28.1153 1.91148 27.9192L9.74688 4.45899C9.83328 4.20018 9.99784 3.97527 10.2174 3.81594C10.4369 3.6566 10.7004 3.57087 10.9707 3.5708V3.5712Z" fill="url(#paint0_linear_486_22726)"/>
<path id="Vector_3" d="M22.7428 20.4605H9.8965C9.77703 20.4602 9.66025 20.4963 9.56139 20.5641C9.46253 20.6319 9.38619 20.7282 9.34231 20.8405C9.29844 20.9528 9.28907 21.0758 9.31543 21.1936C9.34179 21.3113 9.40266 21.4183 9.4901 21.5006L17.7451 29.2868C17.9855 29.5134 18.3021 29.6393 18.6309 29.6391H25.9051L22.7428 20.4605Z" fill="#0078D4"/>
<path id="Vector_4" d="M10.9689 3.5713C10.6956 3.57026 10.4292 3.65753 10.2085 3.82037C9.98784 3.9832 9.82446 4.21307 9.74224 4.47639L1.91938 27.898C1.84955 28.0948 1.82763 28.3056 1.85548 28.5128C1.88334 28.7199 1.96014 28.9172 2.07941 29.088C2.19867 29.2588 2.35689 29.398 2.54067 29.494C2.72445 29.5899 2.92839 29.6397 3.13525 29.6392H9.60285C9.84373 29.5957 10.0689 29.4884 10.2553 29.3282C10.4417 29.168 10.5826 28.9607 10.6638 28.7274L12.2237 24.0814L17.7963 29.3335C18.0297 29.5287 18.3226 29.6367 18.6256 29.6392H25.873L22.6944 20.4602L13.4285 20.4625L19.0996 3.5713H10.9689Z" fill="url(#paint1_linear_486_22726)"/>
<path id="Vector_5" d="M21.3174 4.45787C21.2311 4.19942 21.0668 3.97485 20.8475 3.81579C20.6282 3.65673 20.3651 3.57122 20.0952 3.57129H11.0664C11.3363 3.57132 11.5993 3.65688 11.8186 3.81592C12.0378 3.97497 12.2021 4.19949 12.2884 4.45787L20.124 27.9191C20.1896 28.1152 20.2081 28.3243 20.1778 28.529C20.1476 28.7337 20.0695 28.9282 19.95 29.0963C19.8306 29.2645 19.6732 29.4015 19.491 29.4959C19.3087 29.5904 19.1068 29.6396 18.902 29.6396H27.9312C28.1359 29.6394 28.3377 29.5901 28.5198 29.4955C28.702 29.401 28.8592 29.264 28.9786 29.0959C29.098 28.9278 29.176 28.7334 29.2064 28.5288C29.2367 28.3242 29.2184 28.1152 29.153 27.9191L21.3174 4.45787Z" fill="url(#paint2_linear_486_22726)"/>
</g>
<defs>
<linearGradient id="paint0_linear_486_22726" x1="13.9235" y1="5.50293" x2="5.35067" y2="30.5651" gradientUnits="userSpaceOnUse">
<stop stop-color="#114A8B"/>
<stop offset="1" stop-color="#0669BC"/>
</linearGradient>
<linearGradient id="paint1_linear_486_22726" x1="16.5498" y1="17.2081" x2="14.5996" y2="17.8607" gradientUnits="userSpaceOnUse">
<stop stop-opacity="0.3"/>
<stop offset="0.071" stop-opacity="0.2"/>
<stop offset="0.321" stop-opacity="0.1"/>
<stop offset="0.623" stop-opacity="0.05"/>
<stop offset="1" stop-opacity="0"/>
</linearGradient>
<linearGradient id="paint2_linear_486_22726" x1="15.4804" y1="4.77037" x2="24.8868" y2="29.5693" gradientUnits="userSpaceOnUse">
<stop stop-color="#3CCBF4"/>
<stop offset="1" stop-color="#2892DF"/>
</linearGradient>
</defs>
</svg>
