<svg width="45" height="67" viewBox="0 0 45 67" fill="none" xmlns="http://www.w3.org/2000/svg">
<path d="M22.5 33.5C22.5 27.3957 27.4855 22.447 33.6355 22.447C39.7853 22.447 44.7709 27.3957 44.7709 33.5C44.7709 39.6045 39.7853 44.553 33.6355 44.553C27.4855 44.553 22.5 39.6045 22.5 33.5Z" fill="#1ABCFE"/>
<path d="M0.229004 55.606C0.229004 49.5017 5.21451 44.553 11.3645 44.553H22.4999V55.606C22.4999 61.7104 17.5145 66.6589 11.3645 66.6589C5.21451 66.6589 0.229004 61.7104 0.229004 55.606Z" fill="#0ACF83"/>
<path d="M22.5 0.341064V22.447H33.6355C39.7855 22.447 44.7709 17.4984 44.7709 11.394C44.7709 5.28966 39.7855 0.341064 33.6355 0.341064H22.5Z" fill="#FF7262"/>
<path d="M0.229004 11.394C0.229004 17.4984 5.21451 22.447 11.3645 22.447H22.4999V0.341064H11.3645C5.21451 0.341064 0.229004 5.28965 0.229004 11.394Z" fill="#F24E1E"/>
<path d="M0.229004 33.5C0.229004 39.6045 5.21451 44.553 11.3645 44.553H22.4999V22.447H11.3645C5.21451 22.447 0.229004 27.3957 0.229004 33.5Z" fill="#A259FF"/>
</svg>
