<svg width="102" height="43" viewBox="0 0 102 43" fill="none" xmlns="http://www.w3.org/2000/svg">
<path d="M68.6908 14.6297C69.4195 15.5639 70.1949 16.8671 70.1949 18.7355C70.1949 23.2477 66.6589 25.8915 61.5348 25.8915C60.2316 25.8915 59.0545 25.728 58.3211 25.5272L56.9806 27.6805L60.9649 27.9234C67.9995 28.3718 72.1427 28.5774 72.1427 33.9817C72.1427 38.6574 68.0369 41.3012 60.9649 41.3012C53.893 41.3012 50.8008 39.4328 50.8008 36.2192C50.8008 34.3881 51.6135 33.4165 53.0382 32.0713C51.6976 31.5061 51.2492 30.4878 51.2492 29.3901C51.2492 28.4933 51.6976 27.6805 52.4263 26.9098C53.1597 26.1391 53.9724 25.3637 54.944 24.4715C52.9541 23.4953 51.4501 21.384 51.4501 18.3712C51.4501 13.6954 54.5376 10.4865 60.7594 10.4865C62.5064 10.4865 63.5667 10.6453 64.5009 10.8928H72.4277V14.3494L68.6862 14.6343L68.6908 14.6297ZM56.6583 33.169C56.1304 33.8182 55.6026 34.5096 55.6026 35.3223C55.6026 36.9478 57.6765 37.4383 60.5212 37.4383C62.8801 37.4383 66.0891 37.2748 66.0891 35.0794C66.0891 33.7762 64.543 33.6968 62.5905 33.5754L56.6583 33.169ZM61.1284 14.5082C58.891 14.5082 57.2281 15.6059 57.2281 18.2497C57.2281 20.2396 58.3258 21.6222 61.0117 21.6222C63.2864 21.6222 64.8326 20.2816 64.8326 18.1656C64.8326 15.7694 63.4499 14.5082 61.1331 14.5082H61.1284Z" fill="white"/>
<path d="M74.3384 31.6696V28.4606L76.4123 28.1757C76.9822 28.0916 77.0616 27.9701 77.0616 27.3629V15.4097C77.0616 14.9613 76.9401 14.6764 76.5338 14.5549L74.3384 13.7795L74.7868 10.4865H83.204V27.3629C83.204 28.0122 83.2414 28.0962 83.8533 28.1757L85.9272 28.4606V31.6696H74.3384ZM79.584 7.2401C77.2671 7.2401 75.9265 5.89951 75.9265 3.57801C75.9265 1.25651 77.2671 0 79.584 0C81.9008 0 83.2834 1.26118 83.2834 3.57801C83.2834 5.89484 81.9428 7.2401 79.584 7.2401Z" fill="white"/>
<path d="M102 30.0954C100.253 30.9502 97.6887 31.7209 95.3719 31.7209C90.5327 31.7209 88.7063 29.7731 88.7063 25.1768V14.5269C88.7063 14.284 88.7063 14.1205 88.3793 14.1205H85.5347V10.5004C89.1127 10.0941 90.5373 8.30506 90.9811 3.87225H94.844V9.64565C94.844 9.93058 94.844 10.052 95.171 10.052H100.902V14.1158H94.844V23.8316C94.844 26.2325 95.4139 27.1667 97.6093 27.1667C98.749 27.1667 99.9261 26.8818 100.902 26.5174L102 30.0954Z" fill="white"/>
<path d="M41.7672 19.4269L23.1812 0.840824C22.1115 -0.228842 20.3739 -0.228842 19.3042 0.840824L15.4459 4.6991L20.3412 9.59434C21.4809 9.21131 22.7841 9.46822 23.6903 10.3744C24.6012 11.2852 24.8581 12.6025 24.4657 13.7469L29.1834 18.4646C30.3232 18.0723 31.6404 18.3245 32.5559 19.24C33.8311 20.5152 33.8311 22.5798 32.5559 23.855C31.2807 25.1302 29.2161 25.1302 27.9409 23.855C26.9834 22.8974 26.7452 21.4868 27.2309 20.305L22.8308 15.9049V27.4844C23.1391 27.6385 23.4334 27.8441 23.695 28.101C24.9702 29.3762 24.9702 31.4407 23.695 32.7159C22.4198 33.9911 20.3552 33.9911 19.08 32.7159C17.8048 31.4407 17.8048 29.3762 19.08 28.101C19.393 27.788 19.7573 27.5498 20.1497 27.391V15.704C19.762 15.5452 19.3976 15.307 19.08 14.994C18.1131 14.0318 17.8842 12.6118 18.3793 11.4254L13.5542 6.6002L0.802249 19.3428C-0.267417 20.4124 -0.267417 22.1501 0.802249 23.2197L19.3883 41.8058C20.4579 42.8754 22.1956 42.8754 23.2652 41.8058L41.7672 23.3038C42.8369 22.2341 42.8369 20.4965 41.7672 19.4269Z" fill="white"/>
</svg>
