<svg width="92" height="41" viewBox="0 0 92 41" fill="none" xmlns="http://www.w3.org/2000/svg">
<g id="MySQL logo">
<path id="Vector" d="M1 25.1077H3.79373V14.1156L8.11869 23.7016C8.62883 24.8572 9.32778 25.2724 10.6975 25.2724C12.0673 25.2724 12.7389 24.8618 13.2498 23.7016L17.5752 14.1156V25.1119H20.3694V14.1338C20.3694 13.0628 19.9387 12.5448 19.0526 12.2774C16.9305 11.617 15.5065 12.1882 14.8622 13.6162L10.618 23.0768L6.50713 13.6121C5.88934 12.1841 4.43885 11.6129 2.31674 12.2733C1.4298 12.5411 1 13.0591 1 14.1296V25.1077ZM22.6915 16.1577H25.4844V22.2163C25.4583 22.5456 25.5904 23.3182 27.1208 23.3417C27.9017 23.3541 33.1472 23.3417 33.196 23.3417V16.1276H35.9951C36.0076 16.1276 35.9922 25.9641 35.9926 26.0062C36.008 28.4321 32.9724 28.9591 31.5737 29H22.7523V27.1263L31.5894 27.1259C33.3873 26.936 33.1753 26.0458 33.1753 25.7458V25.0153H27.2376C24.4749 24.9905 22.7159 23.7883 22.694 22.4057C22.6919 22.2819 22.7536 16.2171 22.6923 16.1573L22.6915 16.1577Z" fill="#00618A"/>
<path id="Vector_2" d="M38 25.0579H46.1798C47.1371 25.0579 48.0677 24.8588 48.8069 24.5138C50.0382 23.9521 50.64 23.1905 50.64 22.1932V20.1267C50.64 19.3105 49.956 18.5493 48.6159 18.0417C47.9045 17.7692 47.0291 17.6246 46.1811 17.6246H42.7338C41.5852 17.6246 41.0378 17.28 40.9012 16.5188C40.8738 16.4282 40.8738 16.3511 40.8738 16.2648V14.9779C40.8738 14.9053 40.8738 14.8324 40.9012 14.7419C41.0378 14.1617 41.3389 13.9982 42.3509 13.9035C42.4332 13.9035 42.5424 13.8851 42.625 13.8851H50.75V12H42.7617C41.6126 12 41.0108 12.0725 40.4635 12.2356C38.7658 12.7617 38.027 13.6 38.027 15.0504V16.7003C38.027 17.9696 39.4776 19.0573 41.9115 19.3109C42.1856 19.329 42.4589 19.347 42.7321 19.347H45.6869C45.7965 19.347 45.9062 19.347 45.988 19.3654C46.8904 19.438 47.2741 19.601 47.5474 19.9271C47.716 20.0948 47.7666 20.2541 47.7666 20.4302V22.0801C47.7666 22.2796 47.63 22.5336 47.3563 22.7508C47.1101 22.9687 46.6998 23.1133 46.1524 23.1498C46.0428 23.1498 45.961 23.1678 45.8518 23.1678H38V25.0533V25.0579ZM68.3883 21.7766C68.3883 23.7165 69.838 24.8043 72.7653 25.0219C73.0384 25.0429 73.3121 25.0549 73.5859 25.0579H81V23.1725H73.5311C71.8625 23.1725 71.2329 22.7554 71.2329 21.7581V12.0038H68.3878V21.7757L68.3883 21.7766ZM52.4549 21.8747V15.1531C52.4549 13.4453 53.6609 12.4095 56.046 12.0826C56.3003 12.0465 56.5569 12.0283 56.8139 12.0281H62.2144C62.4804 12.0282 62.7461 12.0465 63.0097 12.0826C65.3947 12.4095 66.6007 13.4449 66.6007 15.1531V21.8747C66.6007 23.2601 66.0884 24.0016 64.9077 24.4849L67.7102 27H64.4067L62.1393 24.9653L59.8567 25.1091H56.8139C56.2931 25.1091 55.7449 25.0361 55.1415 24.8727C53.3282 24.3822 52.4549 23.4374 52.4549 21.8747ZM55.526 21.707C55.526 21.798 55.5535 21.8885 55.5809 21.9979C55.7495 22.7793 56.4854 23.2152 57.6049 23.2152H60.1899L57.8158 21.0845H61.1193L63.1855 22.9427C63.5671 22.7407 63.818 22.4313 63.9024 22.0344C63.9298 21.9438 63.9298 21.8529 63.9298 21.7619V15.317C63.9298 15.2445 63.9298 15.1493 63.9024 15.0625C63.7337 14.3361 62.9974 13.9182 61.9011 13.9182H57.61C56.345 13.9182 55.5269 14.4631 55.5269 15.317V21.712L55.526 21.707Z" fill="#E48E00"/>
<path id="Vector_3" fill-rule="evenodd" clip-rule="evenodd" d="M81 23C81 24.1947 82.1801 25 83.5 25C84.8199 25 86 24.1947 86 23C86 21.8053 84.8199 21 83.5 21C82.1801 21 81 21.8053 81 23ZM85.4399 23C85.4399 23.9067 84.5735 24.5841 83.499 24.5841C82.4129 24.5841 81.5581 23.9067 81.5581 23C81.5581 22.0933 82.4119 21.4159 83.499 21.4159C84.5725 21.4159 85.4399 22.0933 85.4399 23ZM84.1728 24.1416H84.7324L83.9128 23.1392C84.3528 23.1018 84.6856 22.9308 84.6856 22.5149C84.6856 22.0507 84.3186 21.8592 83.6126 21.8592H82.4989V24.142H82.9791V23.1553H83.4256L84.1723 24.142L84.1728 24.1416ZM82.9791 22.8343V22.1786H83.5322C83.8188 22.1786 84.1657 22.2212 84.1657 22.4883C84.1657 22.8081 83.8525 22.8351 83.492 22.8351H82.9791V22.8343Z" fill="#E48E00"/>
</g>
</svg>
