<svg width="110" height="67" viewBox="0 0 110 67" fill="none" xmlns="http://www.w3.org/2000/svg">
<path d="M25.9556 17.2527H46.7026V18.8965H27.8574V31.2677H45.5788V32.9114H27.8574V46.4938H46.9187V48.1375H25.9556V17.2527ZM48.5612 17.2527H50.7656L60.534 30.8351L70.5185 17.2527L84.099 0L61.7874 32.2626L73.2847 48.1375H70.9939L60.534 33.69L50.0308 48.1375H47.7832L59.3669 32.2626L48.5612 17.2527ZM74.106 18.8965V17.2527H97.7489V18.8965H86.8567V48.1375H84.9549V18.8965H74.106Z" fill="white"/>
<path d="M0 17.2527H2.37726L35.1583 66.1495L21.6115 48.1375L1.98826 19.5885L1.90181 48.1375H0V17.2527Z" fill="white"/>
<path d="M97.5569 45.9979C97.9501 45.9979 98.2369 45.6978 98.2369 45.31C98.2369 44.9222 97.9501 44.6221 97.5569 44.6221C97.1684 44.6221 96.877 44.9222 96.877 45.31C96.877 45.6978 97.1684 45.9979 97.5569 45.9979ZM99.4257 44.1881C99.4257 45.3331 100.254 46.081 101.461 46.081C102.747 46.081 103.524 45.31 103.524 43.9711V39.2573H102.488V43.9665C102.488 44.7098 102.113 45.1068 101.452 45.1068C100.86 45.1068 100.457 44.7375 100.443 44.1881H99.4257ZM104.879 44.1281C104.953 45.3192 105.948 46.081 107.428 46.081C109.01 46.081 110 45.2823 110 44.008C110 43.0062 109.436 42.4522 108.066 42.1336L107.331 41.9535C106.461 41.7504 106.11 41.478 106.11 41.0025C106.11 40.4023 106.656 40.0098 107.474 40.0098C108.251 40.0098 108.788 40.393 108.885 41.0071H109.894C109.833 39.8852 108.843 39.0957 107.488 39.0957C106.031 39.0957 105.06 39.8852 105.06 41.0717C105.06 42.0505 105.61 42.6322 106.817 42.9138L107.678 43.1216C108.561 43.3294 108.95 43.6341 108.95 44.1419C108.95 44.7329 108.339 45.1622 107.507 45.1622C106.614 45.1622 105.994 44.7606 105.906 44.1281H104.879Z" fill="white"/>
</svg>
