<svg width="95" height="59" viewBox="0 0 95 59" fill="none" xmlns="http://www.w3.org/2000/svg">
<path d="M46.9503 58.5652C46.6368 58.5652 46.3255 58.483 46.0506 58.3231L43.1862 56.6176C42.7589 56.3776 42.9671 56.2912 43.1089 56.2414C43.68 56.0426 43.7938 55.9972 44.4037 55.6492C44.4681 55.6124 44.5518 55.6275 44.6162 55.6665L46.8172 56.9807C46.8966 57.0261 47.0105 57.0261 47.0835 56.9807L55.6618 51.996C55.7413 51.9506 55.7928 51.8577 55.7928 51.7626V41.7975C55.7928 41.7003 55.7413 41.6095 55.6597 41.5598L47.0856 36.5794C47.0062 36.5319 46.9009 36.5319 46.8215 36.5794L38.2496 41.5619C38.1658 41.6095 38.1143 41.7046 38.1143 41.7975V51.7626C38.1143 51.8577 38.168 51.9485 38.2496 51.9939L40.5987 53.36C41.8742 54.002 42.6536 53.2454 42.6536 52.4867V42.6471C42.6536 42.5087 42.7653 42.3985 42.9027 42.3985H43.9914C44.1267 42.3985 44.2405 42.5087 44.2405 42.6471V52.4867C44.2405 54.1987 43.3128 55.1823 41.7002 55.1823C41.2042 55.1823 40.8134 55.1823 39.7248 54.6418L37.4744 53.3384C36.9183 53.0142 36.5747 52.4111 36.5747 51.7626V41.7975C36.5747 41.1491 36.9183 40.546 37.4744 40.2239L46.0528 35.2349C46.596 34.9258 47.3175 34.9258 47.8565 35.2349L56.4348 40.2239C56.991 40.5481 57.3367 41.1512 57.3367 41.7975V51.7626C57.3367 52.4111 56.991 53.012 56.4348 53.3384L47.8565 58.3231C47.5816 58.483 47.2703 58.5652 46.9525 58.5652H46.9503Z" fill="white"/>
<path d="M49.5999 51.6978C45.8464 51.6978 45.0605 49.9641 45.0605 48.5072C45.0605 48.3689 45.1701 48.2586 45.3075 48.2586H46.4155C46.54 48.2586 46.6431 48.3473 46.6624 48.4705C46.8299 49.6075 47.3281 50.1803 49.5999 50.1803C51.4079 50.1803 52.1766 49.7696 52.1766 48.8034C52.1766 48.2478 51.9576 47.835 49.1489 47.5561C46.802 47.3227 45.3504 46.7995 45.3504 44.9103C45.3504 43.168 46.8084 42.1283 49.2563 42.1283C52.0048 42.1283 53.364 43.0881 53.5358 45.1481C53.5423 45.2194 53.5165 45.2864 53.4693 45.3405C53.422 45.3902 53.3576 45.4204 53.2867 45.4204H52.1745C52.0585 45.4204 51.9576 45.3383 51.934 45.2259C51.6677 44.0305 51.0171 43.6479 49.2542 43.6479C47.2808 43.6479 47.0511 44.3396 47.0511 44.8584C47.0511 45.4874 47.3216 45.669 49.9864 46.0235C52.6232 46.3737 53.8751 46.8709 53.8751 48.7364C53.8751 50.6018 52.3162 51.6956 49.5977 51.6956L49.5999 51.6978Z" fill="white"/>
<path d="M61.9679 41.2462C61.9679 42.1627 61.225 42.9107 60.3145 42.9107C59.4041 42.9107 58.6611 42.1714 58.6611 41.2462C58.6611 40.3211 59.432 39.5818 60.3145 39.5818C61.1971 39.5818 61.9679 40.3038 61.9679 41.2462ZM58.9295 41.2419C58.9295 42.0179 59.5501 42.6426 60.3124 42.6426C61.0747 42.6426 61.7038 42.005 61.7038 41.2419C61.7038 40.4789 61.0747 39.8498 60.3124 39.8498C59.5501 39.8498 58.9295 40.4572 58.9295 41.2419ZM59.694 40.3124H60.3339C60.5529 40.3124 60.9823 40.3124 60.9823 40.8053C60.9823 41.149 60.7633 41.2181 60.6323 41.2635C60.8857 41.2808 60.9029 41.4494 60.9394 41.6872C60.9566 41.8363 60.9845 42.0914 61.036 42.18H60.6431C60.6345 42.0914 60.5722 41.6159 60.5722 41.5899C60.5464 41.484 60.5099 41.4321 60.379 41.4321H60.0547V42.18H59.6961V40.3124H59.694ZM60.044 41.1317H60.3317C60.5679 41.1317 60.6109 40.9652 60.6109 40.8679C60.6109 40.6129 60.4348 40.6129 60.3403 40.6129H60.044V41.1317Z" fill="white"/>
<path fill-rule="evenodd" clip-rule="evenodd" d="M20.3862 19.574C20.3862 19.1763 20.1779 18.811 19.8365 18.6121L10.7428 13.3421C10.5882 13.2513 10.4164 13.2038 10.2425 13.1973H10.148C9.97408 13.2038 9.8023 13.2513 9.64555 13.3421L0.549702 18.6121C0.210433 18.8088 0 19.1741 0 19.574L0.0193255 33.7629C0.0193255 33.9596 0.120247 34.1433 0.294176 34.2406C0.463811 34.3422 0.672096 34.3422 0.839584 34.2406L6.24427 31.1257C6.58569 30.9203 6.79397 30.5615 6.79397 30.1659V23.5384C6.79397 23.1428 7.00226 22.7775 7.34153 22.5808L9.6434 21.2471C9.81518 21.1477 10.002 21.098 10.1931 21.098C10.3842 21.098 10.5732 21.1477 10.7385 21.2471L13.0382 22.5808C13.3797 22.7775 13.5879 23.1428 13.5879 23.5384V30.1659C13.5879 30.5593 13.7984 30.9225 14.1376 31.1257L19.5402 34.2406C19.7098 34.3422 19.9202 34.3422 20.0899 34.2406C20.2574 34.1433 20.3626 33.9596 20.3626 33.7629L20.3798 19.574H20.3862Z" fill="white"/>
<path fill-rule="evenodd" clip-rule="evenodd" d="M64.1456 0.0697481C63.976 -0.0253629 63.7677 -0.0232013 63.6002 0.0762329C63.4327 0.175667 63.3296 0.357243 63.3296 0.55395V14.6044C63.3296 14.7428 63.2566 14.8703 63.1385 14.9395C63.0204 15.0087 62.8723 15.0087 62.7542 14.9395L60.4759 13.6187C60.1366 13.422 59.7179 13.422 59.3787 13.6187L50.2807 18.9039C49.9414 19.1006 49.731 19.4659 49.731 19.8615V30.4361C49.731 30.8317 49.9414 31.197 50.2807 31.3937L59.3787 36.6832C59.7179 36.8799 60.1366 36.8799 60.4781 36.6832L69.5782 31.3937C69.9175 31.1948 70.1279 30.8317 70.1279 30.4361V4.07738C70.1279 3.67748 69.9132 3.30785 69.5653 3.11114L64.1456 0.0697481ZM63.3017 26.9602C63.3017 27.0597 63.2502 27.1504 63.1643 27.2002L60.04 29.0138C59.9563 29.0635 59.8511 29.0635 59.7652 29.0138L56.6409 27.2002C56.555 27.1504 56.5035 27.0597 56.5035 26.9602V23.3287C56.5035 23.2293 56.555 23.1385 56.6409 23.0888L59.7652 21.273C59.8511 21.2233 59.9541 21.2233 60.04 21.273L63.1643 23.0888C63.248 23.1385 63.3017 23.2293 63.3017 23.3287V26.9602Z" fill="white"/>
<path fill-rule="evenodd" clip-rule="evenodd" d="M94.4434 23.2358C94.7826 23.0369 94.9909 22.6738 94.9909 22.2803V19.7188C94.9909 19.3254 94.7826 18.9601 94.4434 18.7612L85.4034 13.4783C85.0641 13.2794 84.6432 13.2794 84.3018 13.4783L75.206 18.7634C74.8667 18.9601 74.6562 19.3254 74.6562 19.721V30.2913C74.6562 30.689 74.8688 31.0565 75.2103 31.2532L84.2481 36.4389C84.5809 36.6313 84.9889 36.6335 85.326 36.4454L90.793 33.3867C90.9669 33.2894 91.0743 33.1057 91.0764 32.9068C91.0764 32.708 90.9734 32.5221 90.8016 32.4226L81.6478 27.1353C81.476 27.0359 81.3708 26.8543 81.3708 26.6554V23.3417C81.3708 23.145 81.476 22.9613 81.6456 22.8618L84.4951 21.2082C84.6647 21.1087 84.873 21.1087 85.0426 21.2082L87.892 22.8618C88.0617 22.9613 88.1669 23.1428 88.1669 23.3417V25.9486C88.1669 26.1475 88.2721 26.329 88.4417 26.4285C88.6114 26.5279 88.8218 26.5258 88.9914 26.4285L94.4391 23.2401L94.4434 23.2358Z" fill="white"/>
<path fill-rule="evenodd" clip-rule="evenodd" d="M84.7184 22.7407C84.7829 22.7018 84.8644 22.7018 84.9289 22.7407L86.6746 23.7545C86.739 23.7934 86.7798 23.8626 86.7798 23.9383V25.968C86.7798 26.0437 86.739 26.1128 86.6746 26.1518L84.9289 27.1656C84.8644 27.2045 84.7829 27.2045 84.7184 27.1656L82.9748 26.1518C82.9104 26.1128 82.8696 26.0437 82.8696 25.968V23.9383C82.8696 23.8626 82.9104 23.7934 82.9748 23.7545L84.7184 22.7407Z" fill="white"/>
<path fill-rule="evenodd" clip-rule="evenodd" d="M34.4527 13.5864C34.7898 13.3897 35.2064 13.3897 35.5414 13.5864L44.5664 18.8283C44.9035 19.025 45.1118 19.386 45.1118 19.7794V30.274C45.1118 30.6653 44.9035 31.0284 44.5664 31.2251L35.5414 36.4714C35.2043 36.6681 34.7877 36.6681 34.4506 36.4714L25.4277 31.2251C25.0906 31.0284 24.8823 30.6674 24.8823 30.274V19.7794C24.8823 19.3881 25.0906 19.025 25.4277 18.8283L34.4506 13.5864H34.4527Z" fill="url(#paint0_linear_2646_13687)"/>
<path opacity="0.66" d="M44.5211 18.8305L35.5369 13.5886C35.4467 13.5367 35.3501 13.4999 35.2513 13.474L25.0947 30.9636C25.1806 31.0674 25.2837 31.1582 25.4018 31.2252L34.4397 36.4714C34.7081 36.627 35.0216 36.6573 35.3072 36.5643L44.796 19.0747C44.7208 18.9796 44.6306 18.8953 44.519 18.8305H44.5211Z" fill="#4B4B4B"/>
<path d="M35.5216 36.4715L44.5251 31.2252C44.8623 31.0285 45.0276 30.6675 45.0276 30.2741V30.2331L35.2876 13.4827C35.0063 13.4027 34.7014 13.4373 34.4437 13.5886L25.5132 18.7722L35.2296 36.5904C35.3305 36.5666 35.4293 36.5277 35.5238 36.4736L35.5216 36.4715Z" fill="url(#paint1_linear_2646_13687)"/>
<defs>
<linearGradient id="paint0_linear_2646_13687" x1="24.8845" y1="25.03" x2="45.1118" y2="25.03" gradientUnits="userSpaceOnUse">
<stop stop-color="white"/>
<stop offset="0.19" stop-color="#E8E8E8"/>
<stop offset="0.54" stop-color="#C2C2C2"/>
<stop offset="0.82" stop-color="#ABABAB"/>
<stop offset="1" stop-color="#A3A3A3"/>
</linearGradient>
<linearGradient id="paint1_linear_2646_13687" x1="24.7445" y1="25.0149" x2="45.6117" y2="25.0149" gradientUnits="userSpaceOnUse">
<stop stop-color="#A3A3A3"/>
<stop offset="0.18" stop-color="#ABABAB"/>
<stop offset="0.46" stop-color="#C2C2C2"/>
<stop offset="0.81" stop-color="#E8E8E8"/>
<stop offset="0.99" stop-color="white"/>
</linearGradient>
</defs>
</svg>
