<svg width="100" height="100" viewBox="0 0 100 100" fill="none" xmlns="http://www.w3.org/2000/svg">
<g clip-path="url(#clip0_2032_57666)">
<mask id="mask0_2032_57666" style="mask-type:luminance" maskUnits="userSpaceOnUse" x="0" y="0" width="101" height="100">
<path d="M100 0H0.000152588V100H100V0Z" fill="white"/>
</mask>
<g mask="url(#mask0_2032_57666)">
<mask id="mask1_2032_57666" style="mask-type:luminance" maskUnits="userSpaceOnUse" x="0" y="0" width="101" height="100">
<path d="M100.001 0H0.000610352V100H100.001V0Z" fill="white"/>
</mask>
<g mask="url(#mask1_2032_57666)">
<mask id="mask2_2032_57666" style="mask-type:luminance" maskUnits="userSpaceOnUse" x="0" y="0" width="100" height="100">
<path d="M99.6117 0.58313H0.583954V99.6109H99.6117V0.58313Z" fill="white"/>
</mask>
<g mask="url(#mask2_2032_57666)">
<path d="M0.583954 0.58313V68.2637L31.9451 99.6109H99.6117V32.2915L67.9173 0.58313H0.583954Z" fill="#242E3D"/>
</g>
<path d="M2.65347 67.4027V2.65271H67.0563L97.5424 33.1388V97.5555H32.7924L2.65347 67.4027Z" fill="white"/>
<path d="M16.6944 56.3887V59.9998H14.6111V50.097H18.4027C19.2916 50.0554 20.1666 50.347 20.8472 50.9443C22.0416 52.2498 22.0416 54.2498 20.8472 55.5415C20.1666 56.1248 19.2916 56.4304 18.4027 56.3887H16.7083H16.6944ZM16.6944 54.7915H18.1527C18.5555 54.8193 18.9583 54.6804 19.25 54.4026C19.75 53.722 19.75 52.7915 19.25 52.097C18.9583 51.8192 18.5555 51.6804 18.1527 51.7081H16.6944V54.7915ZM30.4861 59.9998L29.7916 57.7359H26.4027L25.7361 59.9998H23.4861L26.9722 50.097H29.3333L32.8194 59.9998H30.4861ZM26.8472 56.2081H29.3333L28.0694 52.0693L26.8333 56.2081H26.8472ZM35.75 59.9998V50.097H39.5694C40.4583 50.0415 41.3333 50.3331 42.0139 50.9165C42.625 51.4859 42.9583 52.2915 42.9166 53.1248C42.9166 53.6804 42.7639 54.2081 42.4444 54.6665C42.1111 55.1387 41.6527 55.5137 41.1111 55.7359L43.5694 59.9998H41.3611L39.2222 56.1526H37.8194V59.9998H35.7639H35.75ZM37.8055 54.6804H39.2916C40.0139 54.7776 40.6944 54.2776 40.7916 53.5415C40.8055 53.4165 40.8055 53.2915 40.7916 53.1665C40.9027 52.4581 40.4027 51.7915 39.6805 51.6804C39.5555 51.6665 39.4305 51.6665 39.3194 51.6804H37.8055V54.6804ZM48.6111 59.9998V51.8054H45.5972V50.097H53.7777V51.8054H50.7639V59.9998H48.625H48.6111ZM58.8889 53.1248V59.9998H57V50.097H59.2916L63.3194 57.0276V50.097H65.2083V59.9998H62.9166L58.8889 53.1248ZM69.0833 59.9998V50.097H75.5972V51.7498H71.2222V54.097H74.7777V55.7498H71.2222V58.3331H75.5972V59.9859H69.0833V59.9998ZM79.4166 59.9998V50.097H83.2361C84.125 50.0415 85 50.3331 85.6805 50.9165C86.3055 51.4859 86.625 52.2915 86.5833 53.1248C86.5833 53.6804 86.4166 54.2081 86.0972 54.6665C85.7639 55.1387 85.3055 55.5137 84.7638 55.7359L87.2222 59.9998H85.0138L82.875 56.1526H81.4722V59.9998H79.4166ZM81.4722 54.6804H82.9583C83.6805 54.7776 84.3611 54.2776 84.4583 53.5415C84.4583 53.4165 84.4583 53.2915 84.4583 53.1665C84.5555 52.4581 84.0694 51.7915 83.3472 51.6804C83.2361 51.6665 83.0972 51.6665 82.9861 51.6804H81.4722V54.6804Z" fill="#242E3D"/>
<path d="M22.6396 23.2639C22.6396 23.5973 22.6673 23.9306 22.7646 24.25C22.8618 24.5278 22.9868 24.8056 23.1257 25.0556C23.1673 25.125 23.1951 25.2223 23.209 25.3056C23.1951 25.4445 23.1118 25.5695 23.0007 25.6389L22.2923 26.1112C22.209 26.1667 22.0979 26.1945 22.0007 26.2084C21.8757 26.2084 21.7507 26.1528 21.6673 26.0556C21.5146 25.9028 21.3757 25.7362 21.2646 25.5417C21.1535 25.3612 21.0423 25.1389 20.9173 24.8889C20.1257 25.875 18.9035 26.4445 17.6396 26.4306C16.8201 26.4723 16.0146 26.1945 15.4173 25.6389C14.2507 24.3473 14.334 22.375 15.6118 21.1945C16.3896 20.5834 17.3618 20.2778 18.3479 20.3195C18.7368 20.3195 19.1396 20.3473 19.5285 20.4028C19.9451 20.4584 20.3618 20.5417 20.8062 20.6528V19.8334C20.8757 19.1945 20.6812 18.5556 20.2785 18.0417C19.7646 17.6528 19.1118 17.4584 18.459 17.5278C18.0562 17.5278 17.6535 17.5834 17.2646 17.6667C16.8479 17.7639 16.459 17.8889 16.0701 18.0556C15.9451 18.1112 15.8062 18.1528 15.6812 18.1945C15.6257 18.2084 15.5701 18.2223 15.5007 18.2223C15.3479 18.2223 15.2646 18.1112 15.2646 17.875V17.3334C15.2646 17.1945 15.2785 17.0695 15.3479 16.9445C15.4312 16.8473 15.5423 16.7639 15.6673 16.7084C16.1118 16.4862 16.584 16.3195 17.0701 16.1945C17.6396 16.0556 18.2229 15.9723 18.8062 15.9862C19.8618 15.9028 20.9035 16.2223 21.7229 16.8889C22.3896 17.6389 22.7229 18.625 22.6535 19.6389V23.2778L22.6396 23.2639ZM18.1118 24.9584C18.5007 24.9584 18.8896 24.8889 19.2646 24.75C19.6673 24.6112 20.0423 24.3612 20.3201 24.0417C20.5007 23.8334 20.6257 23.5973 20.6951 23.3334C20.7785 23.0139 20.8062 22.6945 20.8062 22.375V21.9028C20.4729 21.8195 20.1257 21.7639 19.7785 21.7223C19.4312 21.6806 19.084 21.6528 18.7368 21.6528C18.1535 21.6112 17.5562 21.7639 17.0701 22.0973C16.4035 22.7639 16.334 23.8334 16.9312 24.5695C17.2507 24.8612 17.6812 25 18.0979 24.9723M27.0701 26.1667C26.9173 26.1667 26.7646 26.1389 26.6396 26.0556C26.5146 25.9445 26.4451 25.7778 26.4035 25.6112L23.7923 16.9862C23.7368 16.8473 23.709 16.6945 23.6951 16.5278C23.6812 16.4028 23.7646 16.2778 23.9035 16.2639C23.9312 16.2639 23.9451 16.2639 23.9729 16.2639H25.0701C25.2229 16.2639 25.3757 16.2778 25.5146 16.3612C25.6257 16.4862 25.709 16.6389 25.7368 16.8056L27.6118 24.1945L29.3479 16.8056C29.3757 16.6389 29.4451 16.4862 29.5562 16.3612C29.6951 16.2778 29.8479 16.25 30.0007 16.2639H30.9035C31.0562 16.2639 31.2229 16.2778 31.3479 16.3612C31.459 16.4862 31.5423 16.6389 31.5562 16.8056L33.3201 24.2917L35.2507 16.8056C35.2785 16.6389 35.3618 16.4862 35.4729 16.3612C35.5979 16.2778 35.7646 16.25 35.9173 16.2639H36.959C37.0979 16.25 37.209 16.3334 37.2368 16.4584C37.2368 16.4862 37.2368 16.5 37.2368 16.5278C37.2368 16.5834 37.2368 16.6528 37.2229 16.7084C37.1951 16.7917 37.1673 16.8889 37.1396 16.9862L34.4451 25.6112C34.4173 25.7778 34.334 25.9306 34.209 26.0556C34.084 26.1389 33.9312 26.1667 33.7785 26.1667H32.8201C32.6673 26.1667 32.5007 26.1389 32.3757 26.0556C32.2646 25.9306 32.1812 25.7778 32.1535 25.5973L30.4173 18.4167L28.6951 25.6112C28.6673 25.7778 28.5979 25.9306 28.4868 26.0556C28.3479 26.1389 28.1951 26.1806 28.0423 26.1667H27.084H27.0701ZM41.4035 26.4584C40.8201 26.4584 40.2507 26.4028 39.6812 26.2639C39.2368 26.1806 38.8062 26.0278 38.3896 25.8056C38.2507 25.75 38.1257 25.6389 38.0423 25.5C38.0007 25.4028 37.9729 25.2917 37.9729 25.1806V24.6112C37.9729 24.375 38.0562 24.2639 38.2229 24.2639C38.2923 24.2639 38.3618 24.2639 38.4312 24.3056C38.5007 24.3334 38.5979 24.3612 38.709 24.4167C39.0979 24.5834 39.5146 24.7223 39.9451 24.8056C40.3757 24.9028 40.8201 24.9445 41.2785 24.9445C41.8479 24.9723 42.4173 24.8473 42.9035 24.5834C43.2785 24.3612 43.5007 23.9584 43.4868 23.5278C43.4868 23.2362 43.3896 22.9584 43.1812 22.75C42.8618 22.4723 42.4729 22.2639 42.0562 22.1528L40.4312 21.6389C39.7368 21.4584 39.1118 21.0556 38.6396 20.5139C38.2785 20.0417 38.084 19.4723 38.084 18.8889C38.084 18.4584 38.1812 18.0278 38.3896 17.6528C38.584 17.2917 38.8618 16.9862 39.1951 16.7362C39.5423 16.4723 39.9312 16.2778 40.3618 16.1528C40.8201 16.0139 41.2923 15.9584 41.7646 15.9584C42.0146 15.9584 42.2646 15.9723 42.5146 16C42.7646 16.0278 43.0146 16.0695 43.2368 16.125C43.459 16.1667 43.6812 16.2362 43.8757 16.2917C44.0423 16.3473 44.1951 16.4028 44.3479 16.4862C44.4729 16.5556 44.584 16.6389 44.6812 16.75C44.7507 16.8612 44.7923 16.9862 44.7785 17.125V17.6528C44.7785 17.8889 44.6951 18 44.5285 18C44.3757 18 44.2368 17.9445 44.0979 17.8612C43.4173 17.5695 42.6951 17.4167 41.959 17.4306C41.4451 17.4028 40.9312 17.5 40.4729 17.7362C40.1257 17.9445 39.9173 18.3334 39.9451 18.7362C39.9451 19.0417 40.0562 19.3195 40.2785 19.5278C40.6396 19.8195 41.0562 20.0278 41.5146 20.1528L43.0979 20.6667C43.7646 20.8334 44.3757 21.2084 44.834 21.7362C45.1812 22.1806 45.3618 22.7362 45.3479 23.2917C45.3479 23.7362 45.2507 24.1806 45.0562 24.5973C44.8618 24.9862 44.584 25.3056 44.2507 25.5834C43.8757 25.875 43.459 26.0834 43.0146 26.2084C42.5007 26.3473 41.9729 26.4306 41.4312 26.4167" fill="#242E3D"/>
<path d="M43.5142 31.8885C39.8336 34.5968 34.5142 36.0413 29.9309 36.0413C23.8059 36.0691 17.8753 33.8191 13.3336 29.7079C12.9864 29.4024 13.292 28.9718 13.7086 29.2079C18.7642 32.0968 24.5003 33.6246 30.3198 33.6107C34.667 33.5829 38.9725 32.7079 42.9864 31.0135C43.6114 30.7496 44.1253 31.4302 43.5142 31.8746M44.0836 34.3329C43.9448 34.6663 44.2364 34.8052 44.542 34.5552C46.5142 32.9024 47.0281 29.4441 46.6253 28.9441C46.2225 28.4441 42.7781 28.0274 40.6809 29.4996C40.3614 29.7218 40.417 30.0413 40.7781 29.9996C41.9586 29.8607 44.5975 29.5413 45.0698 30.1385C45.542 30.7496 44.542 33.2218 44.0975 34.3329" fill="#FF9900"/>
</g>
</g>
</g>
<defs>
<clipPath id="clip0_2032_57666">
<rect width="100" height="100" fill="white"/>
</clipPath>
</defs>
</svg>
