<svg width="48" height="18" viewBox="0 0 48 18" fill="none" xmlns="http://www.w3.org/2000/svg">
<path fill-rule="evenodd" clip-rule="evenodd" d="M5.85027 7.84534C5.85027 8.74699 6.26645 8.8656 7.22113 8.8656C9.69341 8.8656 10.3299 6.75385 10.3299 4.95053C10.3299 2.2218 8.93454 1.15409 7.29457 1.15409C6.04623 1.15409 5.85027 1.36756 5.85027 2.03198V7.84534ZM0 16.4824V15.5807C1.73797 15.5095 1.93391 15.3908 1.93391 14.1807V2.36419C1.93391 1.15409 1.73797 1.03535 0 0.964155V0.0625H7.58824C9.57104 0.0625 11.1623 0.252316 12.3616 0.964155C13.561 1.676 14.4423 2.98106 14.4423 4.87934C14.4423 6.63525 13.7813 7.91653 12.5575 8.77075C11.4314 9.55379 9.61997 9.95709 7.31899 9.95709H5.85027V14.1807C5.85027 15.3908 6.04623 15.5095 8.20033 15.6283V16.4824H0Z" fill="#121212"/>
<path fill-rule="evenodd" clip-rule="evenodd" d="M32.9649 4.4082V5.33881L32.2741 5.41231C31.7808 5.46137 31.6822 5.65717 31.8301 6.19593L33.7051 12.9308H33.7791L36.0733 4.4082H38.6635L41.2046 12.9308H41.3032C41.9199 10.6287 42.7341 7.5185 42.9561 6.29398C43.0301 5.82867 42.9808 5.55927 42.5367 5.48577L41.4759 5.33881V4.4082H46.5826V5.33881C45.3244 5.43681 45.1516 5.60822 44.7816 6.56333C44.4117 7.44505 43.8935 8.98792 43.3755 10.6778L41.5992 16.4084H38.8857L36.4187 8.88987H36.32L34.0751 16.4084H31.3614L29.2891 9.91854C28.7957 8.37561 28.6477 7.88581 28.1051 6.39198C27.809 5.55927 27.5375 5.43681 26.5508 5.33881V4.4082H32.9649Z" fill="#121212"/>
<path fill-rule="evenodd" clip-rule="evenodd" d="M44.0293 15.2265C44.0293 14.2116 44.8274 13.4785 46.0137 13.4785C47.2214 13.4785 47.9979 14.2116 47.9979 15.2265C47.9549 16.2604 47.2214 16.9746 46.0137 16.9746C44.8274 16.9746 44.0293 16.2604 44.0293 15.2265Z" fill="#121212"/>
<path fill-rule="evenodd" clip-rule="evenodd" d="M20.8476 15.9444C22.4724 15.9444 23.1455 14.0618 23.1455 10.7855C23.1455 7.50926 22.4724 5.62676 20.8476 5.62676C19.1996 5.62676 18.5264 7.50926 18.5264 10.7855C18.5264 14.0618 19.1996 15.9444 20.8476 15.9444ZM26.8361 10.7855C26.8361 14.6975 25.0488 17.0691 20.8476 17.0691C16.6231 17.0691 14.8359 14.6975 14.8359 10.7855C14.8359 6.87362 16.6231 4.50195 20.8476 4.50195C25.0488 4.50195 26.8361 6.87362 26.8361 10.7855Z" fill="#121212"/>
</svg>