<svg width="51" height="16" viewBox="0 0 51 16" fill="none" xmlns="http://www.w3.org/2000/svg">
<path fill-rule="evenodd" clip-rule="evenodd" d="M28.9339 9.22268C28.8006 9.03146 28.8217 8.77359 28.9861 8.60718L31.3751 6.21332C32.0443 5.53604 31.5587 4.39603 30.6011 4.39603C30.3014 4.39603 30.0155 4.51865 29.8108 4.73468L25.6582 9.09326V2.36368C25.6582 1.70343 25.1169 1.16821 24.4492 1.16821C23.7814 1.16821 23.2401 1.70343 23.2401 2.36368V15.273C23.2401 15.4068 23.3499 15.5153 23.4852 15.5153H25.4131C25.5485 15.5153 25.6582 15.4068 25.6582 15.273V12.1211C25.6582 12.0583 25.6828 11.9985 25.7266 11.9532L27.0084 10.6308L30.3796 15.4117C30.4254 15.4769 30.5002 15.5153 30.5804 15.5153H32.8794C33.0767 15.5153 33.1924 15.2959 33.0802 15.1353L28.9339 9.22268Z" fill="#B61989"/>
<path fill-rule="evenodd" clip-rule="evenodd" d="M10.3019 8.02862H8.37444C8.23912 8.02862 8.12939 8.13712 8.12939 8.27093V15.273C8.12939 15.4068 8.23912 15.5153 8.37444 15.5153H10.3019C10.4372 15.5153 10.5474 15.4068 10.5474 15.273V8.27093C10.5474 8.13712 10.4372 8.02862 10.3019 8.02862Z" fill="#B61989"/>
<path fill-rule="evenodd" clip-rule="evenodd" d="M17.856 4.35638C16.8384 4.35638 16.1844 4.74854 15.9074 4.93392C14.9262 5.59175 14.6437 7.75547 12.5411 8.01383C12.4963 8.02307 12.451 8.02842 12.4033 8.02842C12.269 8.02842 12.1597 8.10238 12.1597 8.2357V15.2728C12.1597 15.4066 12.269 15.5156 12.4048 15.5156H14.3327C14.4676 15.5156 14.5778 15.4066 14.5778 15.2728V9.24822C14.5778 8.40551 14.8032 7.74963 15.2544 7.28059C15.7051 6.81154 16.1131 6.57654 16.8369 6.57654C17.575 6.57654 18.2019 6.80473 18.6044 7.26015C19.0079 7.71557 19.2097 8.36463 19.2097 9.20735V15.2728C19.2097 15.4066 19.3194 15.5156 19.4547 15.5156H21.3827C21.518 15.5156 21.6277 15.4066 21.6277 15.2728V8.50574C21.6277 7.23826 21.2912 6.23011 20.6175 5.48081C19.9444 4.73152 19.0931 4.35638 17.856 4.35638Z" fill="#B61989"/>
<path fill-rule="evenodd" clip-rule="evenodd" d="M43.058 12.6614L41.7855 11.8877C41.6782 11.8225 41.5395 11.8488 41.4627 11.9471C41.1409 12.3578 40.8009 12.6915 40.4412 12.9484C40.0317 13.2413 39.5215 13.4408 38.9108 13.5474C38.1102 13.6865 37.3878 13.5742 36.7422 13.2097C36.1877 12.8964 35.7645 12.405 35.4717 11.735H35.4712C35.4712 11.735 35.2001 11.1399 35.0953 10.4558C35.0372 10.0778 35.0224 9.74884 35.0273 9.48513L35.0254 9.48561C35.0273 9.34013 35.0367 9.19903 35.0529 9.06182C35.0721 8.88472 35.0953 8.78692 35.0953 8.78692C35.1799 8.35048 35.3388 7.80359 35.5745 7.45132C35.9775 6.84896 36.5587 6.48112 37.3189 6.34878C37.7259 6.27774 38.1018 6.28845 38.4473 6.38041C38.7922 6.47236 39.1022 6.62223 39.3773 6.83047C39.6519 7.03823 39.8881 7.30146 40.0844 7.61967C40.2089 7.82159 40.3152 8.18894 40.4047 8.41616L36.8953 9.02825C36.2506 9.14064 35.8678 9.82231 36.105 10.4252C36.2846 10.8825 36.7663 11.1423 37.255 11.0557L42.5792 10.1274C42.9606 10.0612 43.2174 9.70262 43.152 9.32554C43.152 9.32456 43.1515 9.3231 43.1515 9.32213C43.0152 8.55775 42.777 7.69703 42.4365 7.04358C42.0965 6.39063 41.6659 5.83984 41.1453 5.39124C40.6252 4.94263 40.014 4.62053 39.3153 4.42396C38.6161 4.22788 37.8391 4.20404 36.9838 4.35341C36.2108 4.48819 35.5307 4.75531 34.9447 5.15477C34.3581 5.55472 33.8764 6.04663 33.4975 6.63098C33.1196 7.21583 32.8607 8.01816 32.723 8.73388C32.723 8.73534 32.7225 8.73729 32.7225 8.73875L32.721 8.7334C32.5832 9.44912 32.5822 10.1897 32.7185 10.9545L32.7259 10.9949C32.8721 11.8133 33.1471 12.5368 33.5536 13.165L33.5526 13.1591C33.5536 13.1606 33.5546 13.162 33.5551 13.1635C33.961 13.7916 34.4541 14.3035 35.0357 14.7C35.6169 15.0966 36.2674 15.3705 36.9868 15.5218C37.7062 15.6727 38.4527 15.6814 39.2257 15.5462C40.2158 15.3739 41.0351 15.044 41.6827 14.5575C42.2643 14.121 42.7485 13.6009 43.1372 12.9976C43.2106 12.8837 43.1741 12.7324 43.058 12.6614Z" fill="#B61989"/>
<path fill-rule="evenodd" clip-rule="evenodd" d="M6.32731 1.27598C6.18412 1.24339 5.36678 1.16797 4.92539 1.16797C3.86398 1.16797 3.14802 1.45455 2.56884 2.02674C1.97638 2.61304 1.68065 3.50539 1.68065 4.70427V5.9844H1.1433C0.567081 5.9844 0.0996094 6.42619 0.0996094 6.99644C0.0996094 7.5662 0.567081 8.02842 1.1433 8.02842H1.68065V15.2728C1.68065 15.4066 1.78989 15.5156 1.9257 15.5156H3.85365C3.98897 15.5156 4.0987 15.4066 4.0987 15.2728V8.02842H5.91791C6.48871 8.02842 6.95176 7.57106 6.95176 7.00665C6.95176 6.44225 6.48871 5.9844 5.91791 5.9844H4.05737V4.90862C4.05737 3.81873 4.53567 3.2733 5.49423 3.2733C5.76733 3.2733 5.8377 3.29763 6.06356 3.34483L6.07045 3.34629C6.43114 3.42365 6.77166 3.15118 6.77166 2.78626V1.83017C6.77166 1.56549 6.58762 1.33534 6.32731 1.27598Z" fill="#B61989"/>
<path fill-rule="evenodd" clip-rule="evenodd" d="M13.8026 4.39039C13.8026 3.50972 13.0807 2.79643 12.1906 2.79643C11.2999 2.79643 10.5781 3.50972 10.5781 4.39039C10.5781 5.27106 11.2999 5.98435 12.1906 5.98435C13.0807 5.98435 13.8026 5.27106 13.8026 4.39039Z" fill="#B61989"/>
<path fill-rule="evenodd" clip-rule="evenodd" d="M9.77233 4.39039C9.77233 3.73743 10.0912 3.15989 10.5823 2.79643H9.76692C8.87675 2.79643 8.15488 3.50972 8.15488 4.39039C8.15488 5.27106 8.87675 5.98435 9.76692 5.98435H10.5823C10.0912 5.62089 9.77233 5.04335 9.77233 4.39039Z" fill="#B61989"/>
<path fill-rule="evenodd" clip-rule="evenodd" d="M49.7625 13.0465C49.3704 13.1939 48.9659 13.2679 48.5491 13.2679C48.122 13.2679 47.7908 13.1623 47.5571 12.9506C47.3223 12.74 47.2057 12.396 47.2057 11.9186V6.45363L49.0554 6.45996C49.643 6.45996 50.1168 5.9807 50.0991 5.39635C50.0814 4.83145 49.5834 4.3955 49.0121 4.3955H47.2057V2.36364C47.2057 1.70338 46.6639 1.16816 45.9967 1.16816C45.3284 1.16816 44.7872 1.70338 44.7872 2.36364V4.3955H44.5229C43.9561 4.3955 43.462 4.82659 43.4443 5.38613C43.4256 5.96562 43.8936 6.44147 44.4757 6.44342L44.7872 6.44439V12.3069C44.7872 12.9068 44.8634 13.4075 45.0165 13.8094C45.1695 14.2118 45.388 14.5349 45.6729 14.7801C45.9583 15.0253 46.2949 15.2029 46.6836 15.3119C47.0729 15.4204 47.4951 15.4754 47.9497 15.4754C48.4187 15.4754 48.8315 15.4272 49.1903 15.3318C49.4993 15.2501 49.6887 15.1377 49.9668 14.9942C50.0479 14.9523 50.0996 14.8691 50.0996 14.7786V13.2713C50.0996 13.099 49.9249 12.9852 49.7625 13.0465Z" fill="#B61989"/>
</svg>